{"glyphs":{"0":{"ha":967,"x_min":82,"x_max":885,"o":"m 483 -28 q 272 38 363 -28 q 132 234 182 103 q 82 556 82 365 q 132 877 82 746 q 272 1074 182 1008 q 483 1139 363 1139 q 694 1074 604 1139 q 835 877 785 1008 q 885 556 885 746 q 835 234 885 365 q 694 38 785 103 q 483 -28 604 -28 m 483 4 q 647 106 588 4 q 707 422 707 207 l 707 690 q 647 1006 707 904 q 483 1107 588 1107 q 319 1006 379 1107 q 260 690 260 904 l 260 422 q 319 106 260 208 q 483 4 379 4 z "},"1":{"ha":479,"x_min":76,"x_max":410,"o":"m 76 0 l 76 28 l 174 42 l 174 1069 l 76 1083 l 76 1111 l 313 1111 l 313 42 l 410 28 l 410 0 l 76 0 z "},"2":{"ha":851,"x_min":53,"x_max":751,"o":"m 53 107 l 346 406 q 522 638 461 525 q 582 872 582 751 q 530 1051 582 994 q 389 1107 478 1107 q 268 1069 319 1107 q 217 971 217 1032 q 290 861 217 897 q 260 785 290 811 q 188 758 229 758 q 111 791 143 758 q 79 881 79 824 q 125 1015 79 956 q 247 1106 171 1074 q 411 1139 324 1139 q 663 1059 581 1139 q 744 849 744 979 q 712 703 744 769 q 634 589 679 638 q 511 472 589 540 l 472 439 l 140 146 l 658 146 l 715 351 l 751 351 l 751 0 l 53 0 l 53 107 z "},"3":{"ha":861,"x_min":58,"x_max":788,"o":"m 371 -28 q 213 6 285 -28 q 100 96 142 39 q 58 224 58 153 q 90 313 58 281 q 167 346 122 346 q 239 319 208 346 q 269 243 269 293 q 196 132 196 207 q 244 40 196 75 q 371 4 292 4 q 533 79 471 4 q 596 289 596 154 q 513 515 596 435 q 267 604 429 594 l 267 635 q 494 713 413 643 q 575 903 575 783 q 524 1051 575 996 q 389 1107 474 1107 q 269 1081 313 1107 q 225 1010 225 1056 q 294 904 225 936 q 266 831 294 857 q 197 806 238 806 q 125 838 156 806 q 94 922 94 869 q 138 1034 94 985 q 252 1111 181 1083 q 404 1139 324 1139 q 651 1075 563 1139 q 740 896 740 1011 q 653 709 740 775 q 401 621 567 643 l 401 617 q 681 524 575 608 q 788 289 788 440 q 741 132 788 204 q 601 16 694 60 q 371 -28 507 -28 z "},"4":{"ha":813,"x_min":0,"x_max":749,"o":"m 340 0 l 340 29 l 468 50 l 468 267 l 0 267 l 0 296 l 589 1111 l 621 1111 l 621 332 l 749 332 l 749 267 l 621 267 l 621 50 l 749 29 l 749 0 l 340 0 m 68 332 l 468 332 l 468 886 l 68 332 z "},"5":{"ha":842,"x_min":36,"x_max":786,"o":"m 349 -28 q 191 6 263 -28 q 78 96 119 39 q 36 224 36 153 q 68 313 36 281 q 144 346 100 346 q 217 319 186 346 q 247 243 247 293 q 174 132 174 207 q 222 40 174 75 q 349 4 269 4 q 513 93 453 4 q 574 324 574 182 q 502 570 574 488 q 313 653 431 653 q 176 629 250 653 l 151 647 l 213 1111 l 581 1111 q 702 1124 664 1111 q 754 1186 740 1138 l 786 1185 q 719 999 775 1050 q 560 949 663 949 l 228 949 l 192 672 q 338 692 261 692 q 559 643 461 692 q 711 510 657 594 q 765 322 765 425 q 721 155 765 235 q 583 24 676 75 q 349 -28 489 -28 z "},"6":{"ha":901,"x_min":83,"x_max":831,"o":"m 457 -28 q 168 129 253 -28 q 83 569 83 286 q 192 994 83 850 q 493 1139 301 1139 q 648 1115 579 1139 q 756 1047 717 1090 q 796 951 796 1004 q 766 872 796 904 q 692 839 736 839 q 629 860 654 839 q 604 917 604 881 q 634 950 625 933 q 643 990 643 967 q 601 1076 643 1042 q 493 1111 560 1111 q 322 1025 386 1111 q 256 743 257 939 l 254 588 q 356 665 296 638 q 481 692 415 692 q 663 650 583 692 q 786 529 742 608 q 831 339 831 450 q 780 142 831 225 q 644 16 729 60 q 457 -28 558 -28 m 457 3 q 610 74 557 3 q 664 269 664 144 l 664 406 q 616 592 664 526 q 471 658 568 658 q 344 622 403 658 q 254 521 286 585 l 253 328 q 302 87 251 171 q 457 3 353 3 z "},"7":{"ha":694,"x_min":58,"x_max":668,"o":"m 196 0 q 235 194 206 103 q 303 361 265 286 q 404 547 342 436 q 522 767 478 676 q 597 967 567 858 l 132 967 l 94 801 l 58 801 l 58 1111 l 668 1111 q 617 842 651 968 q 522 539 582 717 q 430 249 463 368 q 386 0 397 131 l 196 0 z "},"8":{"ha":900,"x_min":75,"x_max":831,"o":"m 454 -28 q 175 47 275 -28 q 75 261 75 122 q 146 463 75 386 q 333 599 217 539 l 269 640 q 158 749 197 690 q 118 874 118 808 q 165 1014 118 954 q 289 1106 211 1074 q 457 1139 367 1139 q 606 1113 535 1139 q 723 1033 678 1086 q 768 906 768 981 q 740 790 768 839 q 671 706 713 740 q 567 636 629 672 l 603 614 q 770 474 710 546 q 831 297 831 403 q 776 119 831 193 q 636 9 722 46 q 454 -28 550 -28 m 528 660 q 618 770 594 708 q 642 901 642 832 q 586 1050 642 993 q 440 1107 531 1107 q 343 1087 389 1107 q 269 1031 297 1067 q 242 949 242 994 q 276 844 242 890 q 381 753 311 799 l 528 660 m 447 4 q 580 33 522 4 q 668 111 638 63 q 699 215 699 160 q 656 350 699 288 q 525 475 614 413 l 374 572 q 256 431 296 515 q 217 253 217 346 q 273 75 217 146 q 447 4 329 4 z "},"9":{"ha":901,"x_min":71,"x_max":818,"o":"m 408 -28 q 253 -3 322 -28 q 145 64 185 21 q 106 160 106 107 q 135 240 106 207 q 210 272 165 272 q 272 251 247 272 q 297 194 297 231 q 267 161 276 178 q 258 121 258 144 q 300 35 258 69 q 408 0 342 0 q 580 86 515 0 q 646 368 644 172 l 646 524 q 547 447 606 474 q 421 419 488 419 q 239 461 318 419 q 115 582 160 503 q 71 772 71 661 q 122 969 71 886 q 258 1095 172 1051 q 444 1139 343 1139 q 733 982 649 1139 q 818 542 818 825 q 709 117 818 261 q 408 -28 600 -28 m 431 453 q 556 490 497 453 q 647 590 615 526 l 649 783 q 599 1024 650 940 q 444 1108 549 1108 q 291 1038 344 1108 q 238 842 238 967 l 238 706 q 285 519 238 585 q 431 453 333 453 z "},"\u0000":{"ha":0,"x_min":0,"x_max":0,"o":""},"\r":{"ha":332,"x_min":0,"x_max":0,"o":""}," ":{"ha":332,"x_min":0,"x_max":0,"o":""},"A":{"ha":999,"x_min":-39,"x_max":1028,"o":"m -39 0 l -39 29 l 97 85 l 499 1139 l 521 1139 l 900 50 l 1028 29 l 1028 0 l 619 0 l 619 29 l 733 47 l 615 376 l 246 376 l 133 85 l 258 29 l 258 0 l -39 0 m 257 406 l 606 406 l 439 894 l 257 406 z "},"Á":{"ha":999,"x_min":-39,"x_max":1028,"o":"m -39 0 l -39 29 l 97 85 l 499 1139 l 521 1139 l 900 50 l 1028 29 l 1028 0 l 619 0 l 619 29 l 733 47 l 615 376 l 246 376 l 133 85 l 258 29 l 258 0 l -39 0 m 257 406 l 606 406 l 439 894 l 257 406 m 383 1204 l 567 1363 q 611 1379 586 1379 q 658 1360 639 1379 q 676 1314 676 1340 q 663 1276 676 1293 q 629 1251 650 1258 l 397 1181 l 383 1204 z "},"Ă":{"ha":999,"x_min":-39,"x_max":1028,"o":"m -39 0 l -39 29 l 97 85 l 499 1139 l 521 1139 l 900 50 l 1028 29 l 1028 0 l 619 0 l 619 29 l 733 47 l 615 376 l 246 376 l 133 85 l 258 29 l 258 0 l -39 0 m 257 406 l 606 406 l 439 894 l 257 406 m 507 1210 q 389 1256 436 1210 q 328 1376 342 1303 l 375 1376 q 424 1313 390 1336 q 510 1289 458 1289 q 597 1313 563 1289 q 644 1376 631 1336 l 692 1376 q 628 1256 675 1301 q 507 1210 582 1210 z "},"Ắ":{"ha":999,"x_min":-39,"x_max":1028,"o":"m -39 0 l -39 29 l 97 85 l 499 1139 l 521 1139 l 900 50 l 1028 29 l 1028 0 l 619 0 l 619 29 l 733 47 l 615 376 l 246 376 l 133 85 l 258 29 l 258 0 l -39 0 m 257 406 l 606 406 l 439 894 l 257 406 m 507 1210 q 389 1256 436 1210 q 328 1376 342 1303 l 375 1376 q 424 1313 390 1336 q 510 1289 458 1289 q 597 1313 563 1289 q 644 1376 631 1336 l 692 1376 q 628 1256 675 1301 q 507 1210 582 1210 m 383 1418 l 567 1576 q 611 1593 586 1593 q 658 1574 639 1593 q 676 1528 676 1554 q 663 1490 676 1507 q 629 1465 650 1472 l 397 1394 l 383 1418 z "},"Ặ":{"ha":999,"x_min":-39,"x_max":1028,"o":"m -39 0 l -39 29 l 97 85 l 499 1139 l 521 1139 l 900 50 l 1028 29 l 1028 0 l 619 0 l 619 29 l 733 47 l 615 376 l 246 376 l 133 85 l 258 29 l 258 0 l -39 0 m 257 406 l 606 406 l 439 894 l 257 406 m 501 -232 q 453 -212 474 -232 q 432 -164 432 -192 q 453 -117 432 -136 q 501 -97 474 -97 q 549 -117 529 -97 q 568 -164 568 -136 q 549 -212 568 -192 q 501 -232 529 -232 m 507 1210 q 389 1256 436 1210 q 328 1376 342 1303 l 375 1376 q 424 1313 390 1336 q 510 1289 458 1289 q 597 1313 563 1289 q 644 1376 631 1336 l 692 1376 q 628 1256 675 1301 q 507 1210 582 1210 z "},"Ằ":{"ha":999,"x_min":-39,"x_max":1028,"o":"m -39 0 l -39 29 l 97 85 l 499 1139 l 521 1139 l 900 50 l 1028 29 l 1028 0 l 619 0 l 619 29 l 733 47 l 615 376 l 246 376 l 133 85 l 258 29 l 258 0 l -39 0 m 257 406 l 606 406 l 439 894 l 257 406 m 507 1210 q 389 1256 436 1210 q 328 1376 342 1303 l 375 1376 q 424 1313 390 1336 q 510 1289 458 1289 q 597 1313 563 1289 q 644 1376 631 1336 l 692 1376 q 628 1256 675 1301 q 507 1210 582 1210 m 394 1465 q 360 1490 374 1472 q 346 1528 346 1507 q 365 1573 346 1553 q 411 1593 385 1593 q 457 1576 438 1593 l 639 1418 l 626 1394 l 394 1465 z "},"Ẳ":{"ha":999,"x_min":-39,"x_max":1028,"o":"m -39 0 l -39 29 l 97 85 l 499 1139 l 521 1139 l 900 50 l 1028 29 l 1028 0 l 619 0 l 619 29 l 733 47 l 615 376 l 246 376 l 133 85 l 258 29 l 258 0 l -39 0 m 257 406 l 606 406 l 439 894 l 257 406 m 507 1210 q 389 1256 436 1210 q 328 1376 342 1303 l 375 1376 q 424 1313 390 1336 q 510 1289 458 1289 q 597 1313 563 1289 q 644 1376 631 1336 l 692 1376 q 628 1256 675 1301 q 507 1210 582 1210 m 515 1390 q 520 1413 515 1404 q 536 1436 525 1422 q 562 1474 553 1454 q 571 1532 571 1494 q 554 1615 571 1592 q 507 1638 538 1638 q 456 1622 478 1638 q 435 1583 435 1607 q 464 1539 435 1554 q 445 1508 464 1519 q 407 1497 426 1497 q 376 1510 389 1497 q 363 1546 363 1524 q 398 1633 363 1599 q 508 1668 433 1668 q 657 1535 657 1668 q 637 1471 657 1492 q 582 1432 617 1450 q 566 1423 579 1431 q 547 1408 553 1415 q 540 1390 540 1400 l 515 1390 z "},"Ẵ":{"ha":999,"x_min":-39,"x_max":1028,"o":"m -39 0 l -39 29 l 97 85 l 499 1139 l 521 1139 l 900 50 l 1028 29 l 1028 0 l 619 0 l 619 29 l 733 47 l 615 376 l 246 376 l 133 85 l 258 29 l 258 0 l -39 0 m 257 406 l 606 406 l 439 894 l 257 406 m 507 1210 q 389 1256 436 1210 q 328 1376 342 1303 l 375 1376 q 424 1313 390 1336 q 510 1289 458 1289 q 597 1313 563 1289 q 644 1376 631 1336 l 692 1376 q 628 1256 675 1301 q 507 1210 582 1210 m 588 1406 q 526 1419 553 1406 q 467 1460 499 1433 q 417 1494 436 1483 q 374 1504 397 1504 q 296 1436 321 1504 l 257 1442 q 274 1488 257 1450 q 330 1560 292 1526 q 431 1593 368 1593 q 492 1579 465 1593 q 553 1539 519 1565 q 601 1506 581 1517 q 644 1494 621 1494 q 722 1563 700 1494 l 761 1557 q 744 1510 761 1549 q 688 1439 726 1472 q 588 1406 650 1406 z "},"Â":{"ha":999,"x_min":-39,"x_max":1028,"o":"m -39 0 l -39 29 l 97 85 l 499 1139 l 521 1139 l 900 50 l 1028 29 l 1028 0 l 619 0 l 619 29 l 733 47 l 615 376 l 246 376 l 133 85 l 258 29 l 258 0 l -39 0 m 257 406 l 606 406 l 439 894 l 257 406 m 304 1149 l 292 1169 l 469 1339 l 551 1339 l 728 1169 l 715 1149 l 510 1244 l 304 1149 z "},"Ấ":{"ha":999,"x_min":-39,"x_max":1028,"o":"m -39 0 l -39 29 l 97 85 l 499 1139 l 521 1139 l 900 50 l 1028 29 l 1028 0 l 619 0 l 619 29 l 733 47 l 615 376 l 246 376 l 133 85 l 258 29 l 258 0 l -39 0 m 257 406 l 606 406 l 439 894 l 257 406 m 304 1149 l 292 1169 l 469 1339 l 551 1339 l 728 1169 l 715 1149 l 510 1244 l 304 1149 m 724 1256 l 907 1414 q 951 1431 926 1431 q 998 1411 979 1431 q 1017 1365 1017 1392 q 1003 1327 1017 1344 q 969 1303 990 1310 l 738 1232 l 724 1256 z "},"Ậ":{"ha":999,"x_min":-39,"x_max":1028,"o":"m -39 0 l -39 29 l 97 85 l 499 1139 l 521 1139 l 900 50 l 1028 29 l 1028 0 l 619 0 l 619 29 l 733 47 l 615 376 l 246 376 l 133 85 l 258 29 l 258 0 l -39 0 m 257 406 l 606 406 l 439 894 l 257 406 m 501 -232 q 453 -212 474 -232 q 432 -164 432 -192 q 453 -117 432 -136 q 501 -97 474 -97 q 549 -117 529 -97 q 568 -164 568 -136 q 549 -212 568 -192 q 501 -232 529 -232 m 304 1149 l 292 1169 l 469 1339 l 551 1339 l 728 1169 l 715 1149 l 510 1244 l 304 1149 z "},"Ầ":{"ha":999,"x_min":-39,"x_max":1028,"o":"m -39 0 l -39 29 l 97 85 l 499 1139 l 521 1139 l 900 50 l 1028 29 l 1028 0 l 619 0 l 619 29 l 733 47 l 615 376 l 246 376 l 133 85 l 258 29 l 258 0 l -39 0 m 257 406 l 606 406 l 439 894 l 257 406 m 304 1149 l 292 1169 l 469 1339 l 551 1339 l 728 1169 l 715 1149 l 510 1244 l 304 1149 m 485 1419 q 450 1444 464 1426 q 436 1482 436 1461 q 456 1527 436 1507 q 501 1547 475 1547 q 547 1531 528 1547 l 729 1372 l 717 1349 l 485 1419 z "},"Ẩ":{"ha":999,"x_min":-39,"x_max":1028,"o":"m -39 0 l -39 29 l 97 85 l 499 1139 l 521 1139 l 900 50 l 1028 29 l 1028 0 l 619 0 l 619 29 l 733 47 l 615 376 l 246 376 l 133 85 l 258 29 l 258 0 l -39 0 m 257 406 l 606 406 l 439 894 l 257 406 m 304 1149 l 292 1169 l 469 1339 l 551 1339 l 728 1169 l 715 1149 l 510 1244 l 304 1149 m 694 1282 q 699 1305 694 1296 q 715 1328 704 1314 q 741 1366 732 1346 q 750 1424 750 1386 q 733 1506 750 1483 q 686 1529 717 1529 q 635 1514 657 1529 q 614 1475 614 1499 q 643 1431 614 1446 q 624 1400 643 1411 q 586 1389 606 1389 q 555 1402 568 1389 q 542 1438 542 1415 q 577 1525 542 1490 q 688 1560 613 1560 q 836 1426 836 1560 q 816 1363 836 1383 q 761 1324 796 1342 q 745 1315 758 1322 q 726 1299 732 1307 q 719 1282 719 1292 l 694 1282 z "},"Ẫ":{"ha":999,"x_min":-39,"x_max":1028,"o":"m -39 0 l -39 29 l 97 85 l 499 1139 l 521 1139 l 900 50 l 1028 29 l 1028 0 l 619 0 l 619 29 l 733 47 l 615 376 l 246 376 l 133 85 l 258 29 l 258 0 l -39 0 m 257 406 l 606 406 l 439 894 l 257 406 m 304 1149 l 292 1169 l 469 1339 l 551 1339 l 728 1169 l 715 1149 l 510 1244 l 304 1149 m 588 1419 q 526 1433 553 1419 q 467 1474 499 1447 q 417 1508 436 1497 q 374 1518 397 1518 q 296 1450 321 1518 l 257 1456 q 274 1502 257 1464 q 330 1574 292 1540 q 431 1607 368 1607 q 492 1593 465 1607 q 553 1553 519 1579 q 601 1519 581 1531 q 644 1508 621 1508 q 722 1576 700 1508 l 761 1571 q 744 1524 761 1563 q 688 1453 726 1486 q 588 1419 650 1419 z "},"Ä":{"ha":999,"x_min":-39,"x_max":1028,"o":"m -39 0 l -39 29 l 97 85 l 499 1139 l 521 1139 l 900 50 l 1028 29 l 1028 0 l 619 0 l 619 29 l 733 47 l 615 376 l 246 376 l 133 85 l 258 29 l 258 0 l -39 0 m 257 406 l 606 406 l 439 894 l 257 406 m 385 1192 q 326 1215 350 1192 q 301 1274 301 1239 q 326 1332 301 1308 q 385 1356 350 1356 q 443 1332 419 1356 q 467 1274 467 1308 q 443 1215 467 1239 q 385 1192 419 1192 m 643 1192 q 584 1215 608 1192 q 560 1274 560 1239 q 584 1332 560 1308 q 643 1356 608 1356 q 701 1332 678 1356 q 724 1274 724 1308 q 701 1215 724 1239 q 643 1192 678 1192 z "},"Ạ":{"ha":999,"x_min":-39,"x_max":1028,"o":"m -39 0 l -39 29 l 97 85 l 499 1139 l 521 1139 l 900 50 l 1028 29 l 1028 0 l 619 0 l 619 29 l 733 47 l 615 376 l 246 376 l 133 85 l 258 29 l 258 0 l -39 0 m 257 406 l 606 406 l 439 894 l 257 406 m 501 -232 q 453 -212 474 -232 q 432 -164 432 -192 q 453 -117 432 -136 q 501 -97 474 -97 q 549 -117 529 -97 q 568 -164 568 -136 q 549 -212 568 -192 q 501 -232 529 -232 z "},"À":{"ha":999,"x_min":-39,"x_max":1028,"o":"m -39 0 l -39 29 l 97 85 l 499 1139 l 521 1139 l 900 50 l 1028 29 l 1028 0 l 619 0 l 619 29 l 733 47 l 615 376 l 246 376 l 133 85 l 258 29 l 258 0 l -39 0 m 257 406 l 606 406 l 439 894 l 257 406 m 394 1251 q 360 1276 374 1258 q 346 1314 346 1293 q 365 1359 346 1339 q 411 1379 385 1379 q 457 1363 438 1379 l 639 1204 l 626 1181 l 394 1251 z "},"Ả":{"ha":999,"x_min":-39,"x_max":1028,"o":"m -39 0 l -39 29 l 97 85 l 499 1139 l 521 1139 l 900 50 l 1028 29 l 1028 0 l 619 0 l 619 29 l 733 47 l 615 376 l 246 376 l 133 85 l 258 29 l 258 0 l -39 0 m 257 406 l 606 406 l 439 894 l 257 406 m 515 1176 q 520 1199 515 1190 q 536 1222 525 1208 q 562 1260 553 1240 q 571 1318 571 1281 q 554 1401 571 1378 q 507 1424 538 1424 q 456 1408 478 1424 q 435 1369 435 1393 q 464 1325 435 1340 q 445 1294 464 1306 q 407 1283 426 1283 q 376 1297 389 1283 q 363 1332 363 1310 q 398 1419 363 1385 q 508 1454 433 1454 q 657 1321 657 1454 q 637 1257 657 1278 q 582 1218 617 1236 q 566 1209 579 1217 q 547 1194 553 1201 q 540 1176 540 1186 l 515 1176 z "},"Å":{"ha":999,"x_min":-39,"x_max":1028,"o":"m -39 0 l -39 29 l 97 85 l 482 1097 l 446 1104 l 418 1133 l 381 1172 l 381 1281 l 457 1358 l 567 1358 l 643 1281 l 643 1172 l 604 1133 l 575 1103 l 535 1096 l 900 50 l 1028 29 l 1028 0 l 619 0 l 619 29 l 733 47 l 615 376 l 246 376 l 133 85 l 258 29 l 258 0 l -39 0 m 476 1140 l 546 1140 l 599 1192 l 599 1261 l 546 1313 l 476 1313 l 425 1261 l 425 1192 l 476 1140 m 257 406 l 606 406 l 439 894 l 257 406 z "},"Ã":{"ha":999,"x_min":-39,"x_max":1028,"o":"m -39 0 l -39 29 l 97 85 l 499 1139 l 521 1139 l 900 50 l 1028 29 l 1028 0 l 619 0 l 619 29 l 733 47 l 615 376 l 246 376 l 133 85 l 258 29 l 258 0 l -39 0 m 257 406 l 606 406 l 439 894 l 257 406 m 588 1192 q 526 1206 553 1192 q 467 1246 499 1219 q 417 1280 436 1269 q 374 1290 397 1290 q 296 1222 321 1290 l 257 1228 q 274 1274 257 1236 q 330 1346 292 1313 q 431 1379 368 1379 q 492 1365 465 1379 q 553 1325 519 1351 q 601 1292 581 1303 q 644 1281 621 1281 q 722 1349 700 1281 l 761 1343 q 744 1297 761 1335 q 688 1225 726 1258 q 588 1192 650 1192 z "},"Æ":{"ha":1547,"x_min":-56,"x_max":1469,"o":"m -56 0 l -56 29 l 76 83 l 718 1061 l 600 1081 l 600 1111 l 1438 1111 l 1438 793 l 1400 793 l 1293 1076 l 903 1076 l 903 576 l 1069 576 l 1151 778 l 1189 778 l 1189 339 l 1151 339 l 1069 543 l 903 543 l 903 33 l 1318 33 l 1432 339 l 1469 339 l 1469 0 l 751 0 l 751 429 l 346 429 l 118 83 l 242 29 l 242 0 l -56 0 m 365 458 l 751 458 l 751 1043 l 365 458 z "},"B":{"ha":1035,"x_min":56,"x_max":960,"o":"m 56 29 l 183 50 l 183 1061 l 56 1081 l 56 1111 l 479 1111 q 718 1083 629 1111 q 847 999 807 1056 q 888 851 888 943 q 635 596 888 651 l 635 589 q 874 497 789 568 q 960 300 960 426 q 848 74 960 147 q 546 0 736 0 l 56 0 l 56 29 m 490 600 q 661 663 601 600 q 721 840 721 725 l 721 849 q 479 1076 721 1076 l 336 1076 l 336 600 l 490 600 m 546 33 q 729 102 664 33 q 794 299 794 171 l 794 314 q 730 503 794 440 q 546 565 665 565 l 336 565 l 336 33 l 546 33 z "},"C":{"ha":1035,"x_min":75,"x_max":947,"o":"m 578 -28 q 313 46 426 -28 q 137 251 199 119 q 75 556 75 383 q 138 860 75 728 q 317 1066 201 993 q 585 1139 433 1139 q 706 1118 644 1139 q 818 1060 768 1097 l 911 1139 l 940 1139 l 940 794 l 911 794 l 825 1010 q 712 1081 776 1054 q 585 1107 647 1107 q 413 1057 488 1107 q 297 911 339 1007 q 256 683 256 815 l 256 429 q 296 201 256 297 q 408 55 336 106 q 578 4 481 4 q 719 35 649 4 q 838 119 790 67 l 918 343 l 947 343 l 947 -14 l 918 -14 l 818 57 q 704 -6 768 17 q 578 -28 640 -28 z "},"Ç":{"ha":1036,"x_min":76,"x_max":949,"o":"m 553 -336 q 453 -324 497 -336 l 461 -293 q 500 -297 478 -297 q 578 -275 546 -297 q 610 -204 610 -253 q 585 -141 610 -167 q 510 -110 560 -115 l 532 -25 q 291 62 394 -14 q 132 265 188 138 q 76 556 76 393 q 140 860 76 728 q 319 1066 203 993 q 586 1139 435 1139 q 708 1118 646 1139 q 819 1060 769 1097 l 913 1139 l 942 1139 l 942 794 l 913 794 l 826 1010 q 713 1081 778 1054 q 586 1107 649 1107 q 415 1057 489 1107 q 299 911 340 1007 q 257 683 257 815 l 257 429 q 297 201 257 297 q 410 55 338 106 q 579 4 482 4 q 721 35 650 4 q 839 119 792 67 l 919 343 l 949 343 l 949 -14 l 919 -14 l 819 57 q 706 -6 769 17 q 579 -28 642 -28 l 569 -28 l 558 -75 q 683 -109 638 -78 q 728 -203 728 -140 q 677 -303 728 -269 q 553 -336 626 -336 z "},"D":{"ha":1186,"x_min":56,"x_max":1111,"o":"m 56 29 l 183 50 l 183 1061 l 56 1081 l 56 1111 l 588 1111 q 859 1042 740 1111 q 1044 848 978 974 q 1111 556 1111 722 q 1044 263 1111 389 q 858 69 978 138 q 588 0 739 0 l 56 0 l 56 29 m 588 33 q 767 81 689 33 q 890 222 846 128 q 935 449 935 315 l 935 663 q 890 889 935 796 q 767 1029 846 982 q 588 1076 689 1076 l 336 1076 l 336 33 l 588 33 z "},"Ð":{"ha":1193,"x_min":56,"x_max":1111,"o":"m 56 29 l 183 50 l 183 521 l 78 521 l 78 567 l 183 567 l 183 1061 l 56 1081 l 56 1111 l 588 1111 q 859 1042 740 1111 q 1044 848 978 974 q 1111 556 1111 722 q 1044 263 1111 389 q 858 69 978 138 q 588 0 739 0 l 56 0 l 56 29 m 593 33 q 770 83 693 35 q 891 224 847 131 q 935 449 935 317 l 935 663 q 890 889 935 796 q 767 1029 846 982 q 588 1076 689 1076 l 336 1076 l 336 567 l 592 567 l 592 521 l 336 521 l 336 33 l 593 33 z "},"Đ":{"ha":1193,"x_min":56,"x_max":1111,"o":"m 56 29 l 183 50 l 183 521 l 78 521 l 78 567 l 183 567 l 183 1061 l 56 1081 l 56 1111 l 588 1111 q 859 1042 740 1111 q 1044 848 978 974 q 1111 556 1111 722 q 1044 263 1111 389 q 858 69 978 138 q 588 0 739 0 l 56 0 l 56 29 m 593 33 q 770 83 693 35 q 891 224 847 131 q 935 449 935 317 l 935 663 q 890 889 935 796 q 767 1029 846 982 q 588 1076 689 1076 l 336 1076 l 336 567 l 592 567 l 592 521 l 336 521 l 336 33 l 593 33 z "},"E":{"ha":1001,"x_min":56,"x_max":922,"o":"m 56 0 l 56 29 l 183 50 l 183 1061 l 56 1081 l 56 1111 l 892 1111 l 892 793 l 854 793 l 747 1076 l 336 1076 l 336 576 l 517 576 l 599 778 l 635 778 l 635 339 l 599 339 l 515 543 l 336 543 l 336 33 l 772 33 l 886 339 l 922 339 l 922 0 l 56 0 z "},"É":{"ha":1001,"x_min":56,"x_max":922,"o":"m 56 0 l 56 29 l 183 50 l 183 1061 l 56 1081 l 56 1111 l 892 1111 l 892 793 l 854 793 l 747 1076 l 336 1076 l 336 576 l 517 576 l 599 778 l 635 778 l 635 339 l 599 339 l 515 543 l 336 543 l 336 33 l 772 33 l 886 339 l 922 339 l 922 0 l 56 0 m 375 1204 l 558 1363 q 603 1379 578 1379 q 649 1360 631 1379 q 668 1314 668 1340 q 655 1276 668 1293 q 621 1251 642 1258 l 389 1181 l 375 1204 z "},"Ê":{"ha":1001,"x_min":56,"x_max":922,"o":"m 56 0 l 56 29 l 183 50 l 183 1061 l 56 1081 l 56 1111 l 892 1111 l 892 793 l 854 793 l 747 1076 l 336 1076 l 336 576 l 517 576 l 599 778 l 635 778 l 635 339 l 599 339 l 515 543 l 336 543 l 336 33 l 772 33 l 886 339 l 922 339 l 922 0 l 56 0 m 296 1149 l 283 1169 l 461 1339 l 543 1339 l 719 1169 l 707 1149 l 501 1244 l 296 1149 z "},"Ế":{"ha":1001,"x_min":56,"x_max":1008,"o":"m 56 0 l 56 29 l 183 50 l 183 1061 l 56 1081 l 56 1111 l 892 1111 l 892 793 l 854 793 l 747 1076 l 336 1076 l 336 576 l 517 576 l 599 778 l 635 778 l 635 339 l 599 339 l 515 543 l 336 543 l 336 33 l 772 33 l 886 339 l 922 339 l 922 0 l 56 0 m 296 1149 l 283 1169 l 461 1339 l 543 1339 l 719 1169 l 707 1149 l 501 1244 l 296 1149 m 715 1256 l 899 1414 q 943 1431 918 1431 q 990 1411 971 1431 q 1008 1365 1008 1392 q 995 1327 1008 1344 q 961 1303 982 1310 l 729 1232 l 715 1256 z "},"Ệ":{"ha":1001,"x_min":56,"x_max":922,"o":"m 56 0 l 56 29 l 183 50 l 183 1061 l 56 1081 l 56 1111 l 892 1111 l 892 793 l 854 793 l 747 1076 l 336 1076 l 336 576 l 517 576 l 599 778 l 635 778 l 635 339 l 599 339 l 515 543 l 336 543 l 336 33 l 772 33 l 886 339 l 922 339 l 922 0 l 56 0 m 503 -232 q 454 -212 475 -232 q 433 -164 433 -192 q 454 -117 433 -136 q 503 -97 475 -97 q 550 -117 531 -97 q 569 -164 569 -136 q 550 -212 569 -192 q 503 -232 531 -232 m 296 1149 l 283 1169 l 461 1339 l 543 1339 l 719 1169 l 707 1149 l 501 1244 l 296 1149 z "},"Ề":{"ha":1001,"x_min":56,"x_max":922,"o":"m 56 0 l 56 29 l 183 50 l 183 1061 l 56 1081 l 56 1111 l 892 1111 l 892 793 l 854 793 l 747 1076 l 336 1076 l 336 576 l 517 576 l 599 778 l 635 778 l 635 339 l 599 339 l 515 543 l 336 543 l 336 33 l 772 33 l 886 339 l 922 339 l 922 0 l 56 0 m 296 1149 l 283 1169 l 461 1339 l 543 1339 l 719 1169 l 707 1149 l 501 1244 l 296 1149 m 476 1419 q 442 1444 456 1426 q 428 1482 428 1461 q 447 1527 428 1507 q 493 1547 467 1547 q 539 1531 519 1547 l 721 1372 l 708 1349 l 476 1419 z "},"Ể":{"ha":1001,"x_min":56,"x_max":922,"o":"m 56 0 l 56 29 l 183 50 l 183 1061 l 56 1081 l 56 1111 l 892 1111 l 892 793 l 854 793 l 747 1076 l 336 1076 l 336 576 l 517 576 l 599 778 l 635 778 l 635 339 l 599 339 l 515 543 l 336 543 l 336 33 l 772 33 l 886 339 l 922 339 l 922 0 l 56 0 m 296 1149 l 283 1169 l 461 1339 l 543 1339 l 719 1169 l 707 1149 l 501 1244 l 296 1149 m 686 1282 q 691 1305 686 1296 q 707 1328 696 1314 q 733 1366 724 1346 q 742 1424 742 1386 q 725 1506 742 1483 q 678 1529 708 1529 q 627 1514 649 1529 q 606 1475 606 1499 q 635 1431 606 1446 q 616 1400 635 1411 q 578 1389 597 1389 q 547 1402 560 1389 q 533 1438 533 1415 q 569 1525 533 1490 q 679 1560 604 1560 q 828 1426 828 1560 q 808 1363 828 1383 q 753 1324 788 1342 q 737 1315 750 1322 q 717 1299 724 1307 q 711 1282 711 1292 l 686 1282 z "},"Ễ":{"ha":1001,"x_min":56,"x_max":922,"o":"m 56 0 l 56 29 l 183 50 l 183 1061 l 56 1081 l 56 1111 l 892 1111 l 892 793 l 854 793 l 747 1076 l 336 1076 l 336 576 l 517 576 l 599 778 l 635 778 l 635 339 l 599 339 l 515 543 l 336 543 l 336 33 l 772 33 l 886 339 l 922 339 l 922 0 l 56 0 m 296 1149 l 283 1169 l 461 1339 l 543 1339 l 719 1169 l 707 1149 l 501 1244 l 296 1149 m 579 1419 q 517 1433 544 1419 q 458 1474 490 1447 q 408 1508 428 1497 q 365 1518 389 1518 q 288 1450 313 1518 l 249 1456 q 266 1502 249 1464 q 322 1574 283 1540 q 422 1607 360 1607 q 484 1593 457 1607 q 544 1553 511 1579 q 592 1519 572 1531 q 636 1508 613 1508 q 714 1576 692 1508 l 753 1571 q 735 1524 753 1563 q 680 1453 718 1486 q 579 1419 642 1419 z "},"Ë":{"ha":1001,"x_min":56,"x_max":922,"o":"m 56 0 l 56 29 l 183 50 l 183 1061 l 56 1081 l 56 1111 l 892 1111 l 892 793 l 854 793 l 747 1076 l 336 1076 l 336 576 l 517 576 l 599 778 l 635 778 l 635 339 l 599 339 l 515 543 l 336 543 l 336 33 l 772 33 l 886 339 l 922 339 l 922 0 l 56 0 m 376 1192 q 317 1215 342 1192 q 293 1274 293 1239 q 317 1332 293 1308 q 376 1356 342 1356 q 435 1332 411 1356 q 458 1274 458 1308 q 435 1215 458 1239 q 376 1192 411 1192 m 635 1192 q 576 1215 600 1192 q 551 1274 551 1239 q 576 1332 551 1308 q 635 1356 600 1356 q 692 1332 669 1356 q 715 1274 715 1308 q 692 1215 715 1239 q 635 1192 669 1192 z "},"Ẹ":{"ha":1001,"x_min":56,"x_max":922,"o":"m 56 0 l 56 29 l 183 50 l 183 1061 l 56 1081 l 56 1111 l 892 1111 l 892 793 l 854 793 l 747 1076 l 336 1076 l 336 576 l 517 576 l 599 778 l 635 778 l 635 339 l 599 339 l 515 543 l 336 543 l 336 33 l 772 33 l 886 339 l 922 339 l 922 0 l 56 0 m 503 -232 q 454 -212 475 -232 q 433 -164 433 -192 q 454 -117 433 -136 q 503 -97 475 -97 q 550 -117 531 -97 q 569 -164 569 -136 q 550 -212 569 -192 q 503 -232 531 -232 z "},"È":{"ha":1001,"x_min":56,"x_max":922,"o":"m 56 0 l 56 29 l 183 50 l 183 1061 l 56 1081 l 56 1111 l 892 1111 l 892 793 l 854 793 l 747 1076 l 336 1076 l 336 576 l 517 576 l 599 778 l 635 778 l 635 339 l 599 339 l 515 543 l 336 543 l 336 33 l 772 33 l 886 339 l 922 339 l 922 0 l 56 0 m 386 1251 q 351 1276 365 1258 q 338 1314 338 1293 q 357 1359 338 1339 q 403 1379 376 1379 q 449 1363 429 1379 l 631 1204 l 618 1181 l 386 1251 z "},"Ẻ":{"ha":1001,"x_min":56,"x_max":922,"o":"m 56 0 l 56 29 l 183 50 l 183 1061 l 56 1081 l 56 1111 l 892 1111 l 892 793 l 854 793 l 747 1076 l 336 1076 l 336 576 l 517 576 l 599 778 l 635 778 l 635 339 l 599 339 l 515 543 l 336 543 l 336 33 l 772 33 l 886 339 l 922 339 l 922 0 l 56 0 m 507 1176 q 512 1199 507 1190 q 528 1222 517 1208 q 553 1260 544 1240 q 563 1318 563 1281 q 546 1401 563 1378 q 499 1424 529 1424 q 448 1408 469 1424 q 426 1369 426 1393 q 456 1325 426 1340 q 437 1294 456 1306 q 399 1283 418 1283 q 367 1297 381 1283 q 354 1332 354 1310 q 390 1419 354 1385 q 500 1454 425 1454 q 649 1321 649 1454 q 628 1257 649 1278 q 574 1218 608 1236 q 558 1209 571 1217 q 538 1194 544 1201 q 532 1176 532 1186 l 507 1176 z "},"Ẽ":{"ha":1001,"x_min":56,"x_max":922,"o":"m 56 0 l 56 29 l 183 50 l 183 1061 l 56 1081 l 56 1111 l 892 1111 l 892 793 l 854 793 l 747 1076 l 336 1076 l 336 576 l 517 576 l 599 778 l 635 778 l 635 339 l 599 339 l 515 543 l 336 543 l 336 33 l 772 33 l 886 339 l 922 339 l 922 0 l 56 0 m 579 1192 q 517 1206 544 1192 q 458 1246 490 1219 q 408 1280 428 1269 q 365 1290 389 1290 q 288 1222 313 1290 l 249 1228 q 266 1274 249 1236 q 322 1346 283 1313 q 422 1379 360 1379 q 484 1365 457 1379 q 544 1325 511 1351 q 592 1292 572 1303 q 636 1281 613 1281 q 714 1349 692 1281 l 753 1343 q 735 1297 753 1335 q 680 1225 718 1258 q 579 1192 642 1192 z "},"F":{"ha":933,"x_min":56,"x_max":892,"o":"m 56 0 l 56 29 l 183 50 l 183 1061 l 56 1081 l 56 1111 l 892 1111 l 892 793 l 854 793 l 747 1076 l 336 1076 l 336 556 l 571 556 l 653 757 l 690 757 l 690 318 l 653 318 l 571 522 l 336 522 l 336 50 l 464 29 l 464 0 l 56 0 z "},"G":{"ha":1129,"x_min":75,"x_max":1115,"o":"m 578 -28 q 313 46 426 -28 q 137 251 199 119 q 75 556 75 383 q 140 860 75 728 q 323 1065 206 992 q 592 1139 440 1139 q 833 1067 735 1139 l 918 1139 l 947 1139 l 947 794 l 918 794 l 826 1024 q 592 1107 726 1107 q 417 1057 494 1107 q 297 911 340 1007 q 253 683 253 815 l 253 429 q 294 201 253 297 q 408 55 335 106 q 578 4 481 4 q 763 78 697 4 q 829 275 829 151 l 829 404 l 700 424 l 700 454 l 1115 454 l 1115 424 l 986 404 l 986 275 q 943 127 986 196 q 808 15 900 58 q 578 -28 717 -28 z "},"H":{"ha":1201,"x_min":56,"x_max":1146,"o":"m 56 0 l 56 29 l 183 50 l 183 1061 l 56 1081 l 56 1111 l 464 1111 l 464 1081 l 336 1061 l 336 606 l 864 606 l 864 1061 l 735 1081 l 735 1111 l 1146 1111 l 1146 1081 l 1017 1061 l 1017 50 l 1146 29 l 1146 0 l 735 0 l 735 29 l 864 50 l 864 571 l 336 571 l 336 50 l 464 29 l 464 0 l 56 0 z "},"I":{"ha":519,"x_min":56,"x_max":464,"o":"m 56 0 l 56 29 l 183 50 l 183 1061 l 56 1081 l 56 1111 l 464 1111 l 464 1081 l 336 1061 l 336 50 l 464 29 l 464 0 l 56 0 z "},"Í":{"ha":519,"x_min":56,"x_max":464,"o":"m 56 0 l 56 29 l 183 50 l 183 1061 l 56 1081 l 56 1111 l 464 1111 l 464 1081 l 336 1061 l 336 50 l 464 29 l 464 0 l 56 0 m 131 1204 l 314 1363 q 358 1379 333 1379 q 405 1360 386 1379 q 424 1314 424 1340 q 410 1276 424 1293 q 376 1251 397 1258 l 144 1181 l 131 1204 z "},"Î":{"ha":519,"x_min":39,"x_max":475,"o":"m 56 0 l 56 29 l 183 50 l 183 1061 l 56 1081 l 56 1111 l 464 1111 l 464 1081 l 336 1061 l 336 50 l 464 29 l 464 0 l 56 0 m 51 1149 l 39 1169 l 217 1339 l 299 1339 l 475 1169 l 463 1149 l 257 1244 l 51 1149 z "},"Ï":{"ha":519,"x_min":49,"x_max":471,"o":"m 56 0 l 56 29 l 183 50 l 183 1061 l 56 1081 l 56 1111 l 464 1111 l 464 1081 l 336 1061 l 336 50 l 464 29 l 464 0 l 56 0 m 132 1192 q 73 1215 97 1192 q 49 1274 49 1239 q 73 1332 49 1308 q 132 1356 97 1356 q 190 1332 167 1356 q 214 1274 214 1308 q 190 1215 214 1239 q 132 1192 167 1192 m 390 1192 q 331 1215 356 1192 q 307 1274 307 1239 q 331 1332 307 1308 q 390 1356 356 1356 q 448 1332 425 1356 q 471 1274 471 1308 q 448 1215 471 1239 q 390 1192 425 1192 z "},"Ị":{"ha":519,"x_min":56,"x_max":464,"o":"m 56 0 l 56 29 l 183 50 l 183 1061 l 56 1081 l 56 1111 l 464 1111 l 464 1081 l 336 1061 l 336 50 l 464 29 l 464 0 l 56 0 m 261 -232 q 213 -212 233 -232 q 192 -164 192 -192 q 213 -117 192 -136 q 261 -97 233 -97 q 308 -117 289 -97 q 328 -164 328 -136 q 308 -212 328 -192 q 261 -232 289 -232 z "},"Ì":{"ha":519,"x_min":56,"x_max":464,"o":"m 56 0 l 56 29 l 183 50 l 183 1061 l 56 1081 l 56 1111 l 464 1111 l 464 1081 l 336 1061 l 336 50 l 464 29 l 464 0 l 56 0 m 142 1251 q 107 1276 121 1258 q 93 1314 93 1293 q 113 1359 93 1339 q 158 1379 132 1379 q 204 1363 185 1379 l 386 1204 l 374 1181 l 142 1251 z "},"Ỉ":{"ha":519,"x_min":56,"x_max":464,"o":"m 56 0 l 56 29 l 183 50 l 183 1061 l 56 1081 l 56 1111 l 464 1111 l 464 1081 l 336 1061 l 336 50 l 464 29 l 464 0 l 56 0 m 263 1176 q 267 1199 263 1190 q 283 1222 272 1208 q 309 1260 300 1240 q 318 1318 318 1281 q 301 1401 318 1378 q 254 1424 285 1424 q 203 1408 225 1424 q 182 1369 182 1393 q 211 1325 182 1340 q 192 1294 211 1306 q 154 1283 174 1283 q 123 1297 136 1283 q 110 1332 110 1310 q 145 1419 110 1385 q 256 1454 181 1454 q 404 1321 404 1454 q 384 1257 404 1278 q 329 1218 364 1236 q 313 1209 326 1217 q 294 1194 300 1201 q 288 1176 288 1186 l 263 1176 z "},"Ĩ":{"ha":519,"x_min":4,"x_max":508,"o":"m 56 0 l 56 29 l 183 50 l 183 1061 l 56 1081 l 56 1111 l 464 1111 l 464 1081 l 336 1061 l 336 50 l 464 29 l 464 0 l 56 0 m 335 1192 q 273 1206 300 1192 q 214 1246 246 1219 q 164 1280 183 1269 q 121 1290 144 1290 q 43 1222 68 1290 l 4 1228 q 22 1274 4 1236 q 77 1346 39 1313 q 178 1379 115 1379 q 240 1365 213 1379 q 300 1325 267 1351 q 348 1292 328 1303 q 392 1281 368 1281 q 469 1349 447 1281 l 508 1343 q 491 1297 508 1335 q 435 1225 474 1258 q 335 1192 397 1192 z "},"J":{"ha":622,"x_min":10,"x_max":583,"o":"m 203 -28 q 65 8 119 -28 q 10 114 10 44 q 35 188 10 160 q 103 217 61 217 q 156 199 136 217 q 183 160 175 181 q 190 135 190 140 q 150 67 150 106 q 167 22 150 40 q 213 4 183 4 q 283 65 257 4 q 308 274 308 125 l 308 1061 l 181 1081 l 181 1111 l 583 1111 l 583 1081 l 456 1061 l 456 274 q 437 112 456 176 q 363 10 418 47 q 203 -28 307 -28 z "},"K":{"ha":1025,"x_min":56,"x_max":1067,"o":"m 56 0 l 56 29 l 183 50 l 183 1061 l 56 1081 l 56 1111 l 464 1111 l 464 1081 l 336 1061 l 336 561 l 788 1022 l 636 1081 l 636 1111 l 957 1111 l 957 1081 l 843 1022 l 528 706 l 972 50 l 1067 29 l 1067 0 l 657 0 l 657 29 l 783 49 l 419 597 l 336 513 l 336 50 l 464 29 l 464 0 l 56 0 z "},"L":{"ha":938,"x_min":56,"x_max":903,"o":"m 56 0 l 56 29 l 183 50 l 183 1061 l 56 1081 l 56 1111 l 464 1111 l 464 1081 l 336 1061 l 336 33 l 751 33 l 865 339 l 903 339 l 903 0 l 56 0 z "},"M":{"ha":1406,"x_min":56,"x_max":1350,"o":"m 633 -14 l 219 1061 l 219 85 l 353 29 l 353 0 l 56 0 l 56 29 l 186 85 l 186 1061 l 58 1081 l 58 1111 l 365 1111 l 714 219 l 1069 1111 l 1350 1111 l 1350 1081 l 1222 1061 l 1222 50 l 1350 29 l 1350 0 l 942 0 l 942 29 l 1069 50 l 1069 1019 l 658 -14 l 633 -14 z "},"N":{"ha":1131,"x_min":60,"x_max":1083,"o":"m 60 0 l 60 29 l 189 85 l 189 1026 l 60 1081 l 60 1111 l 318 1111 l 917 272 l 917 1026 l 788 1081 l 788 1111 l 1083 1111 l 1083 1081 l 951 1026 l 951 0 l 917 0 l 224 974 l 224 85 l 357 29 l 357 0 l 60 0 z "},"Ñ":{"ha":1128,"x_min":60,"x_max":1083,"o":"m 60 0 l 60 29 l 189 85 l 189 1026 l 60 1081 l 60 1111 l 318 1111 l 917 272 l 917 1026 l 788 1081 l 788 1111 l 1083 1111 l 1083 1081 l 951 1026 l 951 0 l 917 0 l 224 974 l 224 85 l 357 29 l 357 0 l 60 0 m 671 1219 q 609 1233 636 1219 q 550 1274 582 1247 q 500 1308 519 1297 q 457 1318 481 1318 q 379 1250 404 1318 l 340 1256 q 358 1302 340 1264 q 413 1374 375 1340 q 514 1407 451 1407 q 576 1393 549 1407 q 636 1353 603 1379 q 684 1319 664 1331 q 728 1308 704 1308 q 806 1376 783 1308 l 844 1371 q 827 1324 844 1363 q 772 1253 810 1286 q 671 1219 733 1219 z "},"O":{"ha":1197,"x_min":75,"x_max":1122,"o":"m 599 -28 q 328 46 447 -28 q 142 252 208 119 q 75 556 75 385 q 142 859 75 726 q 328 1065 208 992 q 599 1139 447 1139 q 869 1065 750 1139 q 1056 859 989 992 q 1122 556 1122 726 q 1056 252 1122 385 q 869 46 989 119 q 599 -28 750 -28 m 599 4 q 778 57 699 4 q 904 210 858 110 q 950 449 950 311 l 950 663 q 904 901 950 800 q 778 1054 858 1001 q 599 1107 699 1107 q 418 1054 497 1107 q 293 901 339 1001 q 247 663 247 800 l 247 449 q 293 210 247 311 q 418 57 339 110 q 599 4 497 4 z "},"Ó":{"ha":1197,"x_min":75,"x_max":1122,"o":"m 599 -28 q 328 46 447 -28 q 142 252 208 119 q 75 556 75 385 q 142 859 75 726 q 328 1065 208 992 q 599 1139 447 1139 q 869 1065 750 1139 q 1056 859 989 992 q 1122 556 1122 726 q 1056 252 1122 385 q 869 46 989 119 q 599 -28 750 -28 m 599 4 q 778 57 699 4 q 904 210 858 110 q 950 449 950 311 l 950 663 q 904 901 950 800 q 778 1054 858 1001 q 599 1107 699 1107 q 418 1054 497 1107 q 293 901 339 1001 q 247 663 247 800 l 247 449 q 293 210 247 311 q 418 57 339 110 q 599 4 497 4 m 472 1204 l 656 1363 q 700 1379 675 1379 q 747 1360 728 1379 q 765 1314 765 1340 q 752 1276 765 1293 q 718 1251 739 1258 l 486 1181 l 472 1204 z "},"Ô":{"ha":1197,"x_min":75,"x_max":1122,"o":"m 599 -28 q 328 46 447 -28 q 142 252 208 119 q 75 556 75 385 q 142 859 75 726 q 328 1065 208 992 q 599 1139 447 1139 q 869 1065 750 1139 q 1056 859 989 992 q 1122 556 1122 726 q 1056 252 1122 385 q 869 46 989 119 q 599 -28 750 -28 m 599 4 q 778 57 699 4 q 904 210 858 110 q 950 449 950 311 l 950 663 q 904 901 950 800 q 778 1054 858 1001 q 599 1107 699 1107 q 418 1054 497 1107 q 293 901 339 1001 q 247 663 247 800 l 247 449 q 293 210 247 311 q 418 57 339 110 q 599 4 497 4 m 393 1149 l 381 1169 l 558 1339 l 640 1339 l 817 1169 l 804 1149 l 599 1244 l 393 1149 z "},"Ố":{"ha":1197,"x_min":75,"x_max":1122,"o":"m 599 -28 q 328 46 447 -28 q 142 252 208 119 q 75 556 75 385 q 142 859 75 726 q 328 1065 208 992 q 599 1139 447 1139 q 869 1065 750 1139 q 1056 859 989 992 q 1122 556 1122 726 q 1056 252 1122 385 q 869 46 989 119 q 599 -28 750 -28 m 599 4 q 778 57 699 4 q 904 210 858 110 q 950 449 950 311 l 950 663 q 904 901 950 800 q 778 1054 858 1001 q 599 1107 699 1107 q 418 1054 497 1107 q 293 901 339 1001 q 247 663 247 800 l 247 449 q 293 210 247 311 q 418 57 339 110 q 599 4 497 4 m 393 1149 l 381 1169 l 558 1339 l 640 1339 l 817 1169 l 804 1149 l 599 1244 l 393 1149 m 813 1256 l 996 1414 q 1040 1431 1015 1431 q 1087 1411 1068 1431 q 1106 1365 1106 1392 q 1092 1327 1106 1344 q 1058 1303 1079 1310 l 826 1232 l 813 1256 z "},"Ộ":{"ha":1197,"x_min":75,"x_max":1122,"o":"m 599 -28 q 328 46 447 -28 q 142 252 208 119 q 75 556 75 385 q 142 859 75 726 q 328 1065 208 992 q 599 1139 447 1139 q 869 1065 750 1139 q 1056 859 989 992 q 1122 556 1122 726 q 1056 252 1122 385 q 869 46 989 119 q 599 -28 750 -28 m 599 4 q 778 57 699 4 q 904 210 858 110 q 950 449 950 311 l 950 663 q 904 901 950 800 q 778 1054 858 1001 q 599 1107 699 1107 q 418 1054 497 1107 q 293 901 339 1001 q 247 663 247 800 l 247 449 q 293 210 247 311 q 418 57 339 110 q 599 4 497 4 m 600 -232 q 551 -212 572 -232 q 531 -164 531 -192 q 551 -117 531 -136 q 600 -97 572 -97 q 647 -117 628 -97 q 667 -164 667 -136 q 647 -212 667 -192 q 600 -232 628 -232 m 393 1149 l 381 1169 l 558 1339 l 640 1339 l 817 1169 l 804 1149 l 599 1244 l 393 1149 z "},"Ồ":{"ha":1197,"x_min":75,"x_max":1122,"o":"m 599 -28 q 328 46 447 -28 q 142 252 208 119 q 75 556 75 385 q 142 859 75 726 q 328 1065 208 992 q 599 1139 447 1139 q 869 1065 750 1139 q 1056 859 989 992 q 1122 556 1122 726 q 1056 252 1122 385 q 869 46 989 119 q 599 -28 750 -28 m 599 4 q 778 57 699 4 q 904 210 858 110 q 950 449 950 311 l 950 663 q 904 901 950 800 q 778 1054 858 1001 q 599 1107 699 1107 q 418 1054 497 1107 q 293 901 339 1001 q 247 663 247 800 l 247 449 q 293 210 247 311 q 418 57 339 110 q 599 4 497 4 m 393 1149 l 381 1169 l 558 1339 l 640 1339 l 817 1169 l 804 1149 l 599 1244 l 393 1149 m 574 1419 q 539 1444 553 1426 q 525 1482 525 1461 q 544 1527 525 1507 q 590 1547 564 1547 q 636 1531 617 1547 l 818 1372 l 806 1349 l 574 1419 z "},"Ổ":{"ha":1197,"x_min":75,"x_max":1122,"o":"m 599 -28 q 328 46 447 -28 q 142 252 208 119 q 75 556 75 385 q 142 859 75 726 q 328 1065 208 992 q 599 1139 447 1139 q 869 1065 750 1139 q 1056 859 989 992 q 1122 556 1122 726 q 1056 252 1122 385 q 869 46 989 119 q 599 -28 750 -28 m 599 4 q 778 57 699 4 q 904 210 858 110 q 950 449 950 311 l 950 663 q 904 901 950 800 q 778 1054 858 1001 q 599 1107 699 1107 q 418 1054 497 1107 q 293 901 339 1001 q 247 663 247 800 l 247 449 q 293 210 247 311 q 418 57 339 110 q 599 4 497 4 m 393 1149 l 381 1169 l 558 1339 l 640 1339 l 817 1169 l 804 1149 l 599 1244 l 393 1149 m 783 1282 q 788 1305 783 1296 q 804 1328 793 1314 q 830 1366 821 1346 q 839 1424 839 1386 q 822 1506 839 1483 q 775 1529 806 1529 q 724 1514 746 1529 q 703 1475 703 1499 q 732 1431 703 1446 q 713 1400 732 1411 q 675 1389 694 1389 q 644 1402 657 1389 q 631 1438 631 1415 q 666 1525 631 1490 q 776 1560 701 1560 q 925 1426 925 1560 q 905 1363 925 1383 q 850 1324 885 1342 q 834 1315 847 1322 q 815 1299 821 1307 q 808 1282 808 1292 l 783 1282 z "},"Ỗ":{"ha":1197,"x_min":75,"x_max":1122,"o":"m 599 -28 q 328 46 447 -28 q 142 252 208 119 q 75 556 75 385 q 142 859 75 726 q 328 1065 208 992 q 599 1139 447 1139 q 869 1065 750 1139 q 1056 859 989 992 q 1122 556 1122 726 q 1056 252 1122 385 q 869 46 989 119 q 599 -28 750 -28 m 599 4 q 778 57 699 4 q 904 210 858 110 q 950 449 950 311 l 950 663 q 904 901 950 800 q 778 1054 858 1001 q 599 1107 699 1107 q 418 1054 497 1107 q 293 901 339 1001 q 247 663 247 800 l 247 449 q 293 210 247 311 q 418 57 339 110 q 599 4 497 4 m 393 1149 l 381 1169 l 558 1339 l 640 1339 l 817 1169 l 804 1149 l 599 1244 l 393 1149 m 676 1419 q 615 1433 642 1419 q 556 1474 588 1447 q 506 1508 525 1497 q 463 1518 486 1518 q 385 1450 410 1518 l 346 1456 q 363 1502 346 1464 q 419 1574 381 1540 q 519 1607 457 1607 q 581 1593 554 1607 q 642 1553 608 1579 q 690 1519 669 1531 q 733 1508 710 1508 q 811 1576 789 1508 l 850 1571 q 833 1524 850 1563 q 777 1453 815 1486 q 676 1419 739 1419 z "},"Ö":{"ha":1197,"x_min":75,"x_max":1122,"o":"m 599 -28 q 328 46 447 -28 q 142 252 208 119 q 75 556 75 385 q 142 859 75 726 q 328 1065 208 992 q 599 1139 447 1139 q 869 1065 750 1139 q 1056 859 989 992 q 1122 556 1122 726 q 1056 252 1122 385 q 869 46 989 119 q 599 -28 750 -28 m 599 4 q 778 57 699 4 q 904 210 858 110 q 950 449 950 311 l 950 663 q 904 901 950 800 q 778 1054 858 1001 q 599 1107 699 1107 q 418 1054 497 1107 q 293 901 339 1001 q 247 663 247 800 l 247 449 q 293 210 247 311 q 418 57 339 110 q 599 4 497 4 m 474 1192 q 415 1215 439 1192 q 390 1274 390 1239 q 415 1332 390 1308 q 474 1356 439 1356 q 532 1332 508 1356 q 556 1274 556 1308 q 532 1215 556 1239 q 474 1192 508 1192 m 732 1192 q 673 1215 697 1192 q 649 1274 649 1239 q 673 1332 649 1308 q 732 1356 697 1356 q 790 1332 767 1356 q 813 1274 813 1308 q 790 1215 813 1239 q 732 1192 767 1192 z "},"Ọ":{"ha":1197,"x_min":75,"x_max":1122,"o":"m 599 -28 q 328 46 447 -28 q 142 252 208 119 q 75 556 75 385 q 142 859 75 726 q 328 1065 208 992 q 599 1139 447 1139 q 869 1065 750 1139 q 1056 859 989 992 q 1122 556 1122 726 q 1056 252 1122 385 q 869 46 989 119 q 599 -28 750 -28 m 599 4 q 778 57 699 4 q 904 210 858 110 q 950 449 950 311 l 950 663 q 904 901 950 800 q 778 1054 858 1001 q 599 1107 699 1107 q 418 1054 497 1107 q 293 901 339 1001 q 247 663 247 800 l 247 449 q 293 210 247 311 q 418 57 339 110 q 599 4 497 4 m 600 -232 q 551 -212 572 -232 q 531 -164 531 -192 q 551 -117 531 -136 q 600 -97 572 -97 q 647 -117 628 -97 q 667 -164 667 -136 q 647 -212 667 -192 q 600 -232 628 -232 z "},"Ò":{"ha":1197,"x_min":75,"x_max":1122,"o":"m 599 -28 q 328 46 447 -28 q 142 252 208 119 q 75 556 75 385 q 142 859 75 726 q 328 1065 208 992 q 599 1139 447 1139 q 869 1065 750 1139 q 1056 859 989 992 q 1122 556 1122 726 q 1056 252 1122 385 q 869 46 989 119 q 599 -28 750 -28 m 599 4 q 778 57 699 4 q 904 210 858 110 q 950 449 950 311 l 950 663 q 904 901 950 800 q 778 1054 858 1001 q 599 1107 699 1107 q 418 1054 497 1107 q 293 901 339 1001 q 247 663 247 800 l 247 449 q 293 210 247 311 q 418 57 339 110 q 599 4 497 4 m 483 1251 q 449 1276 463 1258 q 435 1314 435 1293 q 454 1359 435 1339 q 500 1379 474 1379 q 546 1363 526 1379 l 728 1204 l 715 1181 l 483 1251 z "},"Ỏ":{"ha":1197,"x_min":75,"x_max":1122,"o":"m 599 -28 q 328 46 447 -28 q 142 252 208 119 q 75 556 75 385 q 142 859 75 726 q 328 1065 208 992 q 599 1139 447 1139 q 869 1065 750 1139 q 1056 859 989 992 q 1122 556 1122 726 q 1056 252 1122 385 q 869 46 989 119 q 599 -28 750 -28 m 599 4 q 778 57 699 4 q 904 210 858 110 q 950 449 950 311 l 950 663 q 904 901 950 800 q 778 1054 858 1001 q 599 1107 699 1107 q 418 1054 497 1107 q 293 901 339 1001 q 247 663 247 800 l 247 449 q 293 210 247 311 q 418 57 339 110 q 599 4 497 4 m 604 1176 q 609 1199 604 1190 q 625 1222 614 1208 q 651 1260 642 1240 q 660 1318 660 1281 q 643 1401 660 1378 q 596 1424 626 1424 q 545 1408 567 1424 q 524 1369 524 1393 q 553 1325 524 1340 q 534 1294 553 1306 q 496 1283 515 1283 q 465 1297 478 1283 q 451 1332 451 1310 q 487 1419 451 1385 q 597 1454 522 1454 q 746 1321 746 1454 q 726 1257 746 1278 q 671 1218 706 1236 q 655 1209 668 1217 q 635 1194 642 1201 q 629 1176 629 1186 l 604 1176 z "},"Ơ":{"ha":1197,"x_min":75,"x_max":1122,"o":"m 899 1046 q 1063 842 1004 969 q 1122 556 1122 715 q 1056 252 1122 385 q 869 46 989 119 q 599 -28 750 -28 q 328 46 447 -28 q 142 252 208 119 q 75 556 75 385 q 142 859 75 726 q 328 1065 208 992 q 599 1139 447 1139 q 825 1090 721 1139 q 861 1086 844 1086 q 915 1096 890 1086 q 957 1122 940 1106 q 963 1136 963 1128 q 947 1174 963 1153 q 936 1208 936 1192 q 958 1249 936 1232 q 1021 1265 979 1265 q 1075 1246 1057 1265 q 1093 1196 1093 1226 q 1083 1151 1093 1174 q 1056 1110 1074 1128 q 899 1046 988 1043 m 950 663 q 904 901 950 800 q 778 1054 858 1001 q 599 1107 699 1107 q 418 1054 497 1107 q 293 901 339 1001 q 247 663 247 800 l 247 449 q 293 210 247 311 q 418 57 339 110 q 599 4 497 4 q 778 57 699 4 q 904 210 858 110 q 950 449 950 311 l 950 663 z "},"Ớ":{"ha":1197,"x_min":75,"x_max":1122,"o":"m 899 1046 q 1063 842 1004 969 q 1122 556 1122 715 q 1056 252 1122 385 q 869 46 989 119 q 599 -28 750 -28 q 328 46 447 -28 q 142 252 208 119 q 75 556 75 385 q 142 859 75 726 q 328 1065 208 992 q 599 1139 447 1139 q 825 1090 721 1139 q 861 1086 844 1086 q 915 1096 890 1086 q 957 1122 940 1106 q 963 1136 963 1128 q 947 1174 963 1153 q 936 1208 936 1192 q 958 1249 936 1232 q 1021 1265 979 1265 q 1075 1246 1057 1265 q 1093 1196 1093 1226 q 1083 1151 1093 1174 q 1056 1110 1074 1128 q 899 1046 988 1043 m 950 663 q 904 901 950 800 q 778 1054 858 1001 q 599 1107 699 1107 q 418 1054 497 1107 q 293 901 339 1001 q 247 663 247 800 l 247 449 q 293 210 247 311 q 418 57 339 110 q 599 4 497 4 q 778 57 699 4 q 904 210 858 110 q 950 449 950 311 l 950 663 m 472 1204 l 656 1363 q 700 1379 675 1379 q 747 1360 728 1379 q 765 1314 765 1340 q 752 1276 765 1293 q 718 1251 739 1258 l 486 1181 l 472 1204 z "},"Ợ":{"ha":1197,"x_min":75,"x_max":1122,"o":"m 899 1046 q 1063 842 1004 969 q 1122 556 1122 715 q 1056 252 1122 385 q 869 46 989 119 q 599 -28 750 -28 q 328 46 447 -28 q 142 252 208 119 q 75 556 75 385 q 142 859 75 726 q 328 1065 208 992 q 599 1139 447 1139 q 825 1090 721 1139 q 861 1086 844 1086 q 915 1096 890 1086 q 957 1122 940 1106 q 963 1136 963 1128 q 947 1174 963 1153 q 936 1208 936 1192 q 958 1249 936 1232 q 1021 1265 979 1265 q 1075 1246 1057 1265 q 1093 1196 1093 1226 q 1083 1151 1093 1174 q 1056 1110 1074 1128 q 899 1046 988 1043 m 950 663 q 904 901 950 800 q 778 1054 858 1001 q 599 1107 699 1107 q 418 1054 497 1107 q 293 901 339 1001 q 247 663 247 800 l 247 449 q 293 210 247 311 q 418 57 339 110 q 599 4 497 4 q 778 57 699 4 q 904 210 858 110 q 950 449 950 311 l 950 663 m 596 -261 q 547 -241 568 -261 q 526 -193 526 -221 q 547 -146 526 -165 q 596 -126 568 -126 q 643 -146 624 -126 q 663 -193 663 -165 q 643 -241 663 -221 q 596 -261 624 -261 z "},"Ờ":{"ha":1197,"x_min":75,"x_max":1122,"o":"m 899 1046 q 1063 842 1004 969 q 1122 556 1122 715 q 1056 252 1122 385 q 869 46 989 119 q 599 -28 750 -28 q 328 46 447 -28 q 142 252 208 119 q 75 556 75 385 q 142 859 75 726 q 328 1065 208 992 q 599 1139 447 1139 q 825 1090 721 1139 q 861 1086 844 1086 q 915 1096 890 1086 q 957 1122 940 1106 q 963 1136 963 1128 q 947 1174 963 1153 q 936 1208 936 1192 q 958 1249 936 1232 q 1021 1265 979 1265 q 1075 1246 1057 1265 q 1093 1196 1093 1226 q 1083 1151 1093 1174 q 1056 1110 1074 1128 q 899 1046 988 1043 m 950 663 q 904 901 950 800 q 778 1054 858 1001 q 599 1107 699 1107 q 418 1054 497 1107 q 293 901 339 1001 q 247 663 247 800 l 247 449 q 293 210 247 311 q 418 57 339 110 q 599 4 497 4 q 778 57 699 4 q 904 210 858 110 q 950 449 950 311 l 950 663 m 483 1251 q 449 1276 463 1258 q 435 1314 435 1293 q 454 1359 435 1339 q 500 1379 474 1379 q 546 1363 526 1379 l 728 1204 l 715 1181 l 483 1251 z "},"Ở":{"ha":1197,"x_min":75,"x_max":1122,"o":"m 899 1046 q 1063 842 1004 969 q 1122 556 1122 715 q 1056 252 1122 385 q 869 46 989 119 q 599 -28 750 -28 q 328 46 447 -28 q 142 252 208 119 q 75 556 75 385 q 142 859 75 726 q 328 1065 208 992 q 599 1139 447 1139 q 825 1090 721 1139 q 861 1086 844 1086 q 915 1096 890 1086 q 957 1122 940 1106 q 963 1136 963 1128 q 947 1174 963 1153 q 936 1208 936 1192 q 958 1249 936 1232 q 1021 1265 979 1265 q 1075 1246 1057 1265 q 1093 1196 1093 1226 q 1083 1151 1093 1174 q 1056 1110 1074 1128 q 899 1046 988 1043 m 950 663 q 904 901 950 800 q 778 1054 858 1001 q 599 1107 699 1107 q 418 1054 497 1107 q 293 901 339 1001 q 247 663 247 800 l 247 449 q 293 210 247 311 q 418 57 339 110 q 599 4 497 4 q 778 57 699 4 q 904 210 858 110 q 950 449 950 311 l 950 663 m 604 1176 q 609 1199 604 1190 q 625 1222 614 1208 q 651 1260 642 1240 q 660 1318 660 1281 q 643 1401 660 1378 q 596 1424 626 1424 q 545 1408 567 1424 q 524 1369 524 1393 q 553 1325 524 1340 q 534 1294 553 1306 q 496 1283 515 1283 q 465 1297 478 1283 q 451 1332 451 1310 q 487 1419 451 1385 q 597 1454 522 1454 q 746 1321 746 1454 q 726 1257 746 1278 q 671 1218 706 1236 q 655 1209 668 1217 q 635 1194 642 1201 q 629 1176 629 1186 l 604 1176 z "},"Ỡ":{"ha":1197,"x_min":75,"x_max":1122,"o":"m 899 1046 q 1063 842 1004 969 q 1122 556 1122 715 q 1056 252 1122 385 q 869 46 989 119 q 599 -28 750 -28 q 328 46 447 -28 q 142 252 208 119 q 75 556 75 385 q 142 859 75 726 q 328 1065 208 992 q 599 1139 447 1139 q 825 1090 721 1139 q 861 1086 844 1086 q 915 1096 890 1086 q 957 1122 940 1106 q 963 1136 963 1128 q 947 1174 963 1153 q 936 1208 936 1192 q 958 1249 936 1232 q 1021 1265 979 1265 q 1075 1246 1057 1265 q 1093 1196 1093 1226 q 1083 1151 1093 1174 q 1056 1110 1074 1128 q 899 1046 988 1043 m 950 663 q 904 901 950 800 q 778 1054 858 1001 q 599 1107 699 1107 q 418 1054 497 1107 q 293 901 339 1001 q 247 663 247 800 l 247 449 q 293 210 247 311 q 418 57 339 110 q 599 4 497 4 q 778 57 699 4 q 904 210 858 110 q 950 449 950 311 l 950 663 m 676 1192 q 615 1206 642 1192 q 556 1246 588 1219 q 506 1280 525 1269 q 463 1290 486 1290 q 385 1222 410 1290 l 346 1228 q 363 1274 346 1236 q 419 1346 381 1313 q 519 1379 457 1379 q 581 1365 554 1379 q 642 1325 608 1351 q 690 1292 669 1303 q 733 1281 710 1281 q 811 1349 789 1281 l 850 1343 q 833 1297 850 1335 q 777 1225 815 1258 q 676 1192 739 1192 z "},"Ø":{"ha":1197,"x_min":75,"x_max":1122,"o":"m 338 39 q 144 246 214 111 q 75 556 75 381 q 142 859 75 726 q 328 1065 208 992 q 599 1139 447 1139 q 817 1093 714 1139 l 839 1142 l 896 1142 l 863 1068 q 1053 863 985 996 q 1122 556 1122 729 q 1056 252 1122 385 q 869 46 989 119 q 599 -28 750 -28 q 385 15 483 -28 l 365 -31 l 307 -31 l 338 39 m 790 1046 q 599 1107 706 1107 q 418 1054 497 1107 q 293 901 339 1001 q 247 663 247 800 l 247 449 q 279 243 247 333 q 369 96 311 153 l 790 1046 m 599 4 q 778 57 699 4 q 904 210 858 110 q 950 449 950 311 l 950 663 q 919 863 950 775 q 831 1010 888 951 l 410 61 q 599 4 492 4 z "},"Õ":{"ha":1197,"x_min":75,"x_max":1122,"o":"m 599 -28 q 328 46 447 -28 q 142 252 208 119 q 75 556 75 385 q 142 859 75 726 q 328 1065 208 992 q 599 1139 447 1139 q 869 1065 750 1139 q 1056 859 989 992 q 1122 556 1122 726 q 1056 252 1122 385 q 869 46 989 119 q 599 -28 750 -28 m 599 4 q 778 57 699 4 q 904 210 858 110 q 950 449 950 311 l 950 663 q 904 901 950 800 q 778 1054 858 1001 q 599 1107 699 1107 q 418 1054 497 1107 q 293 901 339 1001 q 247 663 247 800 l 247 449 q 293 210 247 311 q 418 57 339 110 q 599 4 497 4 m 676 1192 q 615 1206 642 1192 q 556 1246 588 1219 q 506 1280 525 1269 q 463 1290 486 1290 q 385 1222 410 1290 l 346 1228 q 363 1274 346 1236 q 419 1346 381 1313 q 519 1379 457 1379 q 581 1365 554 1379 q 642 1325 608 1351 q 690 1292 669 1303 q 733 1281 710 1281 q 811 1349 789 1281 l 850 1343 q 833 1297 850 1335 q 777 1225 815 1258 q 676 1192 739 1192 z "},"Œ":{"ha":1721,"x_min":75,"x_max":1642,"o":"m 599 -28 q 328 46 447 -28 q 142 252 208 119 q 75 556 75 385 q 142 859 75 726 q 328 1065 208 992 q 599 1139 447 1139 q 797 1099 708 1139 q 946 985 885 1060 l 946 1111 l 1611 1111 l 1611 793 l 1574 793 l 1467 1076 l 1083 1076 l 1083 576 l 1246 576 l 1329 778 l 1365 778 l 1365 339 l 1329 339 l 1246 543 l 1083 543 l 1083 33 l 1492 33 l 1606 339 l 1642 339 l 1642 0 l 946 0 l 946 126 q 797 12 885 51 q 599 -28 708 -28 m 599 4 q 774 56 699 4 q 890 209 849 108 q 931 449 931 310 l 931 663 q 890 902 931 801 q 774 1055 849 1003 q 599 1107 699 1107 q 420 1054 499 1107 q 297 901 342 1001 q 253 663 253 801 l 253 449 q 297 210 253 310 q 420 57 342 110 q 599 4 499 4 z "},"P":{"ha":950,"x_min":56,"x_max":897,"o":"m 56 29 l 183 50 l 183 1061 l 56 1081 l 56 1111 l 492 1111 q 797 1024 697 1111 q 897 771 897 936 q 797 518 897 606 q 492 431 697 431 l 336 431 l 336 50 l 464 29 l 464 0 l 56 0 l 56 29 m 472 464 q 729 743 729 464 l 729 799 q 472 1076 729 1076 l 336 1076 l 336 464 l 472 464 z "},"Þ":{"ha":982,"x_min":56,"x_max":942,"o":"m 56 29 l 183 50 l 183 1061 l 56 1081 l 56 1111 l 469 1111 l 469 1081 l 342 1061 l 342 867 l 497 867 q 834 794 726 867 q 942 560 942 721 q 834 327 942 400 q 497 254 726 254 l 342 254 l 342 50 l 469 29 l 469 0 l 56 0 l 56 29 m 478 288 q 764 539 764 288 l 764 581 q 478 833 764 833 l 342 833 l 342 288 l 478 288 z "},"Q":{"ha":1197,"x_min":75,"x_max":1122,"o":"m 810 -321 q 515 -81 515 -321 l 515 -21 q 285 75 385 -3 q 130 276 185 153 q 75 556 75 400 q 142 859 75 726 q 328 1065 208 992 q 599 1139 447 1139 q 869 1065 750 1139 q 1056 859 989 992 q 1122 556 1122 726 q 1067 278 1122 401 q 914 76 1013 154 q 686 -21 815 -1 l 686 -114 q 856 -289 686 -289 l 856 -321 l 810 -321 m 599 4 q 778 57 699 4 q 902 210 857 110 q 947 449 947 310 l 947 663 q 902 901 947 801 q 778 1054 857 1001 q 599 1107 699 1107 q 419 1054 497 1107 q 295 901 340 1001 q 250 663 250 801 l 250 449 q 295 210 250 310 q 419 57 340 110 q 599 4 497 4 z "},"R":{"ha":1010,"x_min":56,"x_max":1039,"o":"m 863 -14 q 746 24 785 -14 q 693 151 707 61 l 667 338 q 602 485 653 432 q 444 539 551 539 l 336 539 l 336 50 l 464 29 l 464 0 l 56 0 l 56 29 l 183 50 l 183 1061 l 56 1081 l 56 1111 l 444 1111 q 772 1040 671 1111 q 874 825 874 969 q 585 549 874 586 l 585 540 q 756 464 692 525 q 838 301 821 403 l 856 182 q 881 76 867 104 q 926 49 896 49 q 971 62 947 49 q 1015 96 994 75 l 1039 71 q 956 6 999 25 q 863 -14 913 -14 m 492 572 q 649 634 593 572 q 706 817 706 696 l 706 846 q 444 1076 706 1076 l 336 1076 l 336 572 l 492 572 z "},"S":{"ha":925,"x_min":93,"x_max":846,"o":"m 496 -28 q 242 46 367 -28 l 124 -14 l 93 -14 l 93 343 l 124 343 l 243 85 q 507 3 358 3 q 709 67 629 3 q 789 249 789 132 q 738 383 789 333 q 571 461 686 432 l 340 521 q 158 630 219 553 q 97 813 97 707 q 135 983 97 908 q 247 1098 174 1057 q 422 1139 321 1139 q 649 1096 549 1139 l 750 1139 l 781 1139 l 781 856 l 750 856 l 650 1058 q 424 1108 546 1108 q 233 1047 303 1108 q 164 883 164 985 q 213 765 164 808 q 358 697 263 722 l 607 632 q 787 527 728 601 q 846 301 846 453 q 751 60 846 147 q 496 -28 656 -28 z "},"T":{"ha":972,"x_min":35,"x_max":939,"o":"m 282 0 l 282 29 l 410 50 l 410 1076 l 181 1076 l 75 801 l 35 801 l 35 1111 l 939 1111 l 939 801 l 897 801 l 793 1076 l 563 1076 l 563 50 l 690 29 l 690 0 l 282 0 z "},"U":{"ha":1124,"x_min":38,"x_max":1088,"o":"m 558 -28 q 260 63 354 -28 q 165 304 165 154 l 165 1061 l 38 1081 l 38 1111 l 446 1111 l 446 1081 l 318 1061 l 318 304 q 394 95 318 168 q 626 22 471 22 q 921 304 921 22 l 921 1026 l 792 1081 l 792 1111 l 1088 1111 l 1088 1081 l 954 1026 l 954 304 q 861 55 954 138 q 558 -28 768 -28 z "},"Ú":{"ha":1124,"x_min":38,"x_max":1088,"o":"m 558 -28 q 260 63 354 -28 q 165 304 165 154 l 165 1061 l 38 1081 l 38 1111 l 446 1111 l 446 1081 l 318 1061 l 318 304 q 394 95 318 168 q 626 22 471 22 q 921 304 921 22 l 921 1026 l 792 1081 l 792 1111 l 1088 1111 l 1088 1081 l 954 1026 l 954 304 q 861 55 954 138 q 558 -28 768 -28 m 436 1204 l 619 1363 q 664 1379 639 1379 q 710 1360 692 1379 q 729 1314 729 1340 q 716 1276 729 1293 q 682 1251 703 1258 l 450 1181 l 436 1204 z "},"Û":{"ha":1124,"x_min":38,"x_max":1088,"o":"m 558 -28 q 260 63 354 -28 q 165 304 165 154 l 165 1061 l 38 1081 l 38 1111 l 446 1111 l 446 1081 l 318 1061 l 318 304 q 394 95 318 168 q 626 22 471 22 q 921 304 921 22 l 921 1026 l 792 1081 l 792 1111 l 1088 1111 l 1088 1081 l 954 1026 l 954 304 q 861 55 954 138 q 558 -28 768 -28 m 357 1149 l 344 1169 l 522 1339 l 604 1339 l 781 1169 l 768 1149 l 563 1244 l 357 1149 z "},"Ü":{"ha":1124,"x_min":38,"x_max":1088,"o":"m 558 -28 q 260 63 354 -28 q 165 304 165 154 l 165 1061 l 38 1081 l 38 1111 l 446 1111 l 446 1081 l 318 1061 l 318 304 q 394 95 318 168 q 626 22 471 22 q 921 304 921 22 l 921 1026 l 792 1081 l 792 1111 l 1088 1111 l 1088 1081 l 954 1026 l 954 304 q 861 55 954 138 q 558 -28 768 -28 m 438 1192 q 378 1215 403 1192 q 354 1274 354 1239 q 378 1332 354 1308 q 438 1356 403 1356 q 496 1332 472 1356 q 519 1274 519 1308 q 496 1215 519 1239 q 438 1192 472 1192 m 696 1192 q 637 1215 661 1192 q 613 1274 613 1239 q 637 1332 613 1308 q 696 1356 661 1356 q 753 1332 731 1356 q 776 1274 776 1308 q 753 1215 776 1239 q 696 1192 731 1192 z "},"Ụ":{"ha":1124,"x_min":38,"x_max":1088,"o":"m 558 -28 q 260 63 354 -28 q 165 304 165 154 l 165 1061 l 38 1081 l 38 1111 l 446 1111 l 446 1081 l 318 1061 l 318 304 q 394 95 318 168 q 626 22 471 22 q 921 304 921 22 l 921 1026 l 792 1081 l 792 1111 l 1088 1111 l 1088 1081 l 954 1026 l 954 304 q 861 55 954 138 q 558 -28 768 -28 m 564 -232 q 515 -212 536 -232 q 494 -164 494 -192 q 515 -117 494 -136 q 564 -97 536 -97 q 611 -117 592 -97 q 631 -164 631 -136 q 611 -212 631 -192 q 564 -232 592 -232 z "},"Ù":{"ha":1124,"x_min":38,"x_max":1088,"o":"m 558 -28 q 260 63 354 -28 q 165 304 165 154 l 165 1061 l 38 1081 l 38 1111 l 446 1111 l 446 1081 l 318 1061 l 318 304 q 394 95 318 168 q 626 22 471 22 q 921 304 921 22 l 921 1026 l 792 1081 l 792 1111 l 1088 1111 l 1088 1081 l 954 1026 l 954 304 q 861 55 954 138 q 558 -28 768 -28 m 447 1251 q 413 1276 426 1258 q 399 1314 399 1293 q 418 1359 399 1339 q 464 1379 438 1379 q 510 1363 490 1379 l 692 1204 l 679 1181 l 447 1251 z "},"Ủ":{"ha":1124,"x_min":38,"x_max":1088,"o":"m 558 -28 q 260 63 354 -28 q 165 304 165 154 l 165 1061 l 38 1081 l 38 1111 l 446 1111 l 446 1081 l 318 1061 l 318 304 q 394 95 318 168 q 626 22 471 22 q 921 304 921 22 l 921 1026 l 792 1081 l 792 1111 l 1088 1111 l 1088 1081 l 954 1026 l 954 304 q 861 55 954 138 q 558 -28 768 -28 m 568 1176 q 573 1199 568 1190 q 589 1222 578 1208 q 615 1260 606 1240 q 624 1318 624 1281 q 607 1401 624 1378 q 560 1424 590 1424 q 509 1408 531 1424 q 488 1369 488 1393 q 517 1325 488 1340 q 498 1294 517 1306 q 460 1283 479 1283 q 428 1297 442 1283 q 415 1332 415 1310 q 451 1419 415 1385 q 561 1454 486 1454 q 710 1321 710 1454 q 690 1257 710 1278 q 635 1218 669 1236 q 619 1209 632 1217 q 599 1194 606 1201 q 593 1176 593 1186 l 568 1176 z "},"Ư":{"ha":1124,"x_min":38,"x_max":1183,"o":"m 1111 1267 q 1165 1247 1147 1267 q 1183 1197 1183 1228 q 1174 1152 1183 1175 q 1146 1111 1164 1129 q 993 1047 1081 1047 q 954 1050 982 1047 l 954 304 q 861 55 954 138 q 558 -28 768 -28 q 260 63 354 -28 q 165 304 165 154 l 165 1061 l 38 1081 l 38 1111 l 446 1111 l 446 1081 l 318 1061 l 318 304 q 394 95 318 168 q 626 22 471 22 q 921 304 921 22 l 921 1026 l 792 1081 l 792 1111 l 954 1111 l 954 1088 q 1006 1097 982 1088 q 1047 1124 1031 1107 q 1053 1138 1053 1129 q 1038 1175 1053 1154 q 1026 1210 1026 1193 q 1048 1250 1026 1233 q 1111 1267 1069 1267 z "},"Ứ":{"ha":1124,"x_min":38,"x_max":1183,"o":"m 1111 1267 q 1165 1247 1147 1267 q 1183 1197 1183 1228 q 1174 1152 1183 1175 q 1146 1111 1164 1129 q 993 1047 1081 1047 q 954 1050 982 1047 l 954 304 q 861 55 954 138 q 558 -28 768 -28 q 260 63 354 -28 q 165 304 165 154 l 165 1061 l 38 1081 l 38 1111 l 446 1111 l 446 1081 l 318 1061 l 318 304 q 394 95 318 168 q 626 22 471 22 q 921 304 921 22 l 921 1026 l 792 1081 l 792 1111 l 954 1111 l 954 1088 q 1006 1097 982 1088 q 1047 1124 1031 1107 q 1053 1138 1053 1129 q 1038 1175 1053 1154 q 1026 1210 1026 1193 q 1048 1250 1026 1233 q 1111 1267 1069 1267 m 436 1204 l 619 1363 q 664 1379 639 1379 q 710 1360 692 1379 q 729 1314 729 1340 q 716 1276 729 1293 q 682 1251 703 1258 l 450 1181 l 436 1204 z "},"Ự":{"ha":1124,"x_min":38,"x_max":1183,"o":"m 1111 1267 q 1165 1247 1147 1267 q 1183 1197 1183 1228 q 1174 1152 1183 1175 q 1146 1111 1164 1129 q 993 1047 1081 1047 q 954 1050 982 1047 l 954 304 q 861 55 954 138 q 558 -28 768 -28 q 260 63 354 -28 q 165 304 165 154 l 165 1061 l 38 1081 l 38 1111 l 446 1111 l 446 1081 l 318 1061 l 318 304 q 394 95 318 168 q 626 22 471 22 q 921 304 921 22 l 921 1026 l 792 1081 l 792 1111 l 954 1111 l 954 1088 q 1006 1097 982 1088 q 1047 1124 1031 1107 q 1053 1138 1053 1129 q 1038 1175 1053 1154 q 1026 1210 1026 1193 q 1048 1250 1026 1233 q 1111 1267 1069 1267 m 564 -232 q 515 -212 536 -232 q 494 -164 494 -192 q 515 -117 494 -136 q 564 -97 536 -97 q 611 -117 592 -97 q 631 -164 631 -136 q 611 -212 631 -192 q 564 -232 592 -232 z "},"Ừ":{"ha":1124,"x_min":38,"x_max":1183,"o":"m 1111 1267 q 1165 1247 1147 1267 q 1183 1197 1183 1228 q 1174 1152 1183 1175 q 1146 1111 1164 1129 q 993 1047 1081 1047 q 954 1050 982 1047 l 954 304 q 861 55 954 138 q 558 -28 768 -28 q 260 63 354 -28 q 165 304 165 154 l 165 1061 l 38 1081 l 38 1111 l 446 1111 l 446 1081 l 318 1061 l 318 304 q 394 95 318 168 q 626 22 471 22 q 921 304 921 22 l 921 1026 l 792 1081 l 792 1111 l 954 1111 l 954 1088 q 1006 1097 982 1088 q 1047 1124 1031 1107 q 1053 1138 1053 1129 q 1038 1175 1053 1154 q 1026 1210 1026 1193 q 1048 1250 1026 1233 q 1111 1267 1069 1267 m 447 1251 q 413 1276 426 1258 q 399 1314 399 1293 q 418 1359 399 1339 q 464 1379 438 1379 q 510 1363 490 1379 l 692 1204 l 679 1181 l 447 1251 z "},"Ử":{"ha":1124,"x_min":38,"x_max":1183,"o":"m 1111 1267 q 1165 1247 1147 1267 q 1183 1197 1183 1228 q 1174 1152 1183 1175 q 1146 1111 1164 1129 q 993 1047 1081 1047 q 954 1050 982 1047 l 954 304 q 861 55 954 138 q 558 -28 768 -28 q 260 63 354 -28 q 165 304 165 154 l 165 1061 l 38 1081 l 38 1111 l 446 1111 l 446 1081 l 318 1061 l 318 304 q 394 95 318 168 q 626 22 471 22 q 921 304 921 22 l 921 1026 l 792 1081 l 792 1111 l 954 1111 l 954 1088 q 1006 1097 982 1088 q 1047 1124 1031 1107 q 1053 1138 1053 1129 q 1038 1175 1053 1154 q 1026 1210 1026 1193 q 1048 1250 1026 1233 q 1111 1267 1069 1267 m 568 1176 q 573 1199 568 1190 q 589 1222 578 1208 q 615 1260 606 1240 q 624 1318 624 1281 q 607 1401 624 1378 q 560 1424 590 1424 q 509 1408 531 1424 q 488 1369 488 1393 q 517 1325 488 1340 q 498 1294 517 1306 q 460 1283 479 1283 q 428 1297 442 1283 q 415 1332 415 1310 q 451 1419 415 1385 q 561 1454 486 1454 q 710 1321 710 1454 q 690 1257 710 1278 q 635 1218 669 1236 q 619 1209 632 1217 q 599 1194 606 1201 q 593 1176 593 1186 l 568 1176 z "},"Ữ":{"ha":1124,"x_min":38,"x_max":1183,"o":"m 1111 1267 q 1165 1247 1147 1267 q 1183 1197 1183 1228 q 1174 1152 1183 1175 q 1146 1111 1164 1129 q 993 1047 1081 1047 q 954 1050 982 1047 l 954 304 q 861 55 954 138 q 558 -28 768 -28 q 260 63 354 -28 q 165 304 165 154 l 165 1061 l 38 1081 l 38 1111 l 446 1111 l 446 1081 l 318 1061 l 318 304 q 394 95 318 168 q 626 22 471 22 q 921 304 921 22 l 921 1026 l 792 1081 l 792 1111 l 954 1111 l 954 1088 q 1006 1097 982 1088 q 1047 1124 1031 1107 q 1053 1138 1053 1129 q 1038 1175 1053 1154 q 1026 1210 1026 1193 q 1048 1250 1026 1233 q 1111 1267 1069 1267 m 640 1192 q 578 1206 606 1192 q 519 1246 551 1219 q 469 1280 489 1269 q 426 1290 450 1290 q 349 1222 374 1290 l 310 1228 q 327 1274 310 1236 q 383 1346 344 1313 q 483 1379 421 1379 q 545 1365 518 1379 q 606 1325 572 1351 q 653 1292 633 1303 q 697 1281 674 1281 q 775 1349 753 1281 l 814 1343 q 797 1297 814 1335 q 741 1225 779 1258 q 640 1192 703 1192 z "},"Ũ":{"ha":1124,"x_min":38,"x_max":1088,"o":"m 558 -28 q 260 63 354 -28 q 165 304 165 154 l 165 1061 l 38 1081 l 38 1111 l 446 1111 l 446 1081 l 318 1061 l 318 304 q 394 95 318 168 q 626 22 471 22 q 921 304 921 22 l 921 1026 l 792 1081 l 792 1111 l 1088 1111 l 1088 1081 l 954 1026 l 954 304 q 861 55 954 138 q 558 -28 768 -28 m 640 1192 q 578 1206 606 1192 q 519 1246 551 1219 q 469 1280 489 1269 q 426 1290 450 1290 q 349 1222 374 1290 l 310 1228 q 327 1274 310 1236 q 383 1346 344 1313 q 483 1379 421 1379 q 545 1365 518 1379 q 606 1325 572 1351 q 653 1292 633 1303 q 697 1281 674 1281 q 775 1349 753 1281 l 814 1343 q 797 1297 814 1335 q 741 1225 779 1258 q 640 1192 703 1192 z "},"V":{"ha":946,"x_min":-40,"x_max":981,"o":"m 471 -28 l 71 1061 l -40 1081 l -40 1111 l 367 1111 l 367 1081 l 236 1064 l 542 232 l 842 1018 l 682 1081 l 682 1111 l 981 1111 l 981 1081 l 879 1019 l 482 -28 l 471 -28 z "},"W":{"ha":1501,"x_min":-29,"x_max":1535,"o":"m 456 -28 l 64 1061 l -29 1081 l -29 1111 l 357 1111 l 357 1081 l 231 1061 l 529 239 l 732 769 l 628 1061 l 500 1081 l 500 1111 l 913 1111 l 913 1081 l 793 1064 l 1094 240 l 1393 1018 l 1236 1081 l 1236 1111 l 1535 1111 l 1535 1081 l 1429 1019 l 1032 -28 l 1021 -28 l 750 721 l 467 -28 l 456 -28 z "},"X":{"ha":1056,"x_min":-11,"x_max":1093,"o":"m 3 0 l 3 29 l 140 107 l 458 532 l 107 1061 l -11 1081 l -11 1111 l 410 1111 l 410 1081 l 300 1064 l 569 656 l 838 1014 l 672 1081 l 672 1111 l 1004 1111 l 1004 1081 l 872 1007 l 589 628 l 974 49 l 1093 29 l 1093 0 l 671 0 l 671 29 l 781 47 l 478 503 l 171 94 l 335 29 l 335 0 l 3 0 z "},"Y":{"ha":913,"x_min":-46,"x_max":947,"o":"m 272 0 l 272 29 l 401 50 l 401 472 l 64 1061 l -46 1081 l -46 1111 l 372 1111 l 372 1081 l 243 1061 l 535 557 l 803 1014 l 636 1081 l 636 1111 l 947 1111 l 947 1081 l 840 1013 l 551 518 l 551 50 l 681 29 l 681 0 l 272 0 z "},"Ý":{"ha":939,"x_min":-46,"x_max":947,"o":"m 433 1203 l 617 1361 q 661 1378 636 1378 q 708 1358 689 1378 q 726 1313 726 1339 q 713 1274 726 1292 q 679 1250 700 1257 l 447 1179 l 433 1203 m 272 0 l 272 29 l 401 50 l 401 472 l 64 1061 l -46 1081 l -46 1111 l 372 1111 l 372 1081 l 243 1061 l 535 557 l 803 1014 l 636 1081 l 636 1111 l 947 1111 l 947 1081 l 840 1013 l 551 518 l 551 50 l 681 29 l 681 0 l 272 0 z "},"Ỵ":{"ha":913,"x_min":-46,"x_max":947,"o":"m 272 0 l 272 29 l 401 50 l 401 472 l 64 1061 l -46 1081 l -46 1111 l 372 1111 l 372 1081 l 243 1061 l 535 557 l 803 1014 l 636 1081 l 636 1111 l 947 1111 l 947 1081 l 840 1013 l 551 518 l 551 50 l 681 29 l 681 0 l 272 0 m 458 -232 q 410 -212 431 -232 q 389 -164 389 -192 q 410 -117 389 -136 q 458 -97 431 -97 q 506 -117 486 -97 q 525 -164 525 -136 q 506 -212 525 -192 q 458 -232 486 -232 z "},"Ỳ":{"ha":913,"x_min":-46,"x_max":947,"o":"m 272 0 l 272 29 l 401 50 l 401 472 l 64 1061 l -46 1081 l -46 1111 l 372 1111 l 372 1081 l 243 1061 l 535 557 l 803 1014 l 636 1081 l 636 1111 l 947 1111 l 947 1081 l 840 1013 l 551 518 l 551 50 l 681 29 l 681 0 l 272 0 m 342 1251 q 307 1276 321 1258 q 293 1314 293 1293 q 313 1359 293 1339 q 358 1379 332 1379 q 404 1363 385 1379 l 586 1204 l 574 1181 l 342 1251 z "},"Ỷ":{"ha":913,"x_min":-46,"x_max":947,"o":"m 272 0 l 272 29 l 401 50 l 401 472 l 64 1061 l -46 1081 l -46 1111 l 372 1111 l 372 1081 l 243 1061 l 535 557 l 803 1014 l 636 1081 l 636 1111 l 947 1111 l 947 1081 l 840 1013 l 551 518 l 551 50 l 681 29 l 681 0 l 272 0 m 463 1176 q 467 1199 463 1190 q 483 1222 472 1208 q 509 1260 500 1240 q 518 1318 518 1281 q 501 1401 518 1378 q 454 1424 485 1424 q 403 1408 425 1424 q 382 1369 382 1393 q 411 1325 382 1340 q 392 1294 411 1306 q 354 1283 374 1283 q 323 1297 336 1283 q 310 1332 310 1310 q 345 1419 310 1385 q 456 1454 381 1454 q 604 1321 604 1454 q 584 1257 604 1278 q 529 1218 564 1236 q 513 1209 526 1217 q 494 1194 500 1201 q 488 1176 488 1186 l 463 1176 z "},"Ỹ":{"ha":913,"x_min":-46,"x_max":947,"o":"m 272 0 l 272 29 l 401 50 l 401 472 l 64 1061 l -46 1081 l -46 1111 l 372 1111 l 372 1081 l 243 1061 l 535 557 l 803 1014 l 636 1081 l 636 1111 l 947 1111 l 947 1081 l 840 1013 l 551 518 l 551 50 l 681 29 l 681 0 l 272 0 m 535 1192 q 473 1206 500 1192 q 414 1246 446 1219 q 364 1280 383 1269 q 321 1290 344 1290 q 243 1222 268 1290 l 204 1228 q 222 1274 204 1236 q 277 1346 239 1313 q 378 1379 315 1379 q 440 1365 413 1379 q 500 1325 467 1351 q 548 1292 528 1303 q 592 1281 568 1281 q 669 1349 647 1281 l 708 1343 q 691 1297 708 1335 q 635 1225 674 1258 q 535 1192 597 1192 z "},"Z":{"ha":951,"x_min":46,"x_max":897,"o":"m 46 0 l 46 33 l 696 1076 l 265 1076 l 122 799 l 86 799 l 119 1111 l 883 1111 l 883 1076 l 232 33 l 718 33 l 861 332 l 897 332 l 864 0 l 46 0 z "},"a":{"ha":788,"x_min":64,"x_max":792,"o":"m 267 -14 q 121 33 178 -14 q 64 171 64 79 q 174 356 64 301 q 428 411 283 411 l 521 411 l 521 518 q 505 630 521 590 q 456 685 489 669 q 365 701 422 701 q 268 676 300 701 q 236 607 236 650 q 275 554 236 567 q 249 493 275 519 q 186 467 222 467 q 124 488 147 467 q 100 554 100 510 q 181 683 100 635 q 382 732 261 732 q 660 490 660 732 l 660 93 q 673 47 660 63 q 711 31 686 31 q 749 47 735 31 q 763 90 763 63 l 792 90 q 760 14 792 42 q 674 -14 729 -14 q 566 23 610 -14 q 521 138 522 60 q 419 26 488 67 q 267 -14 350 -14 m 343 47 q 420 69 381 47 q 488 134 460 92 q 521 236 515 176 l 521 381 l 428 381 q 258 330 314 381 q 201 188 201 279 q 238 79 201 111 q 343 47 274 47 z "},"á":{"ha":775,"x_min":64,"x_max":792,"o":"m 267 -14 q 121 33 178 -14 q 64 171 64 79 q 174 356 64 301 q 428 411 283 411 l 521 411 l 521 518 q 505 630 521 590 q 456 685 489 669 q 365 701 422 701 q 268 676 300 701 q 236 607 236 650 q 275 554 236 567 q 249 493 275 519 q 186 467 222 467 q 124 488 147 467 q 100 554 100 510 q 181 683 100 635 q 382 732 261 732 q 660 490 660 732 l 660 93 q 673 47 660 63 q 711 31 686 31 q 749 47 735 31 q 763 90 763 63 l 792 90 q 760 14 792 42 q 674 -14 729 -14 q 566 23 610 -14 q 521 138 522 60 q 419 26 488 67 q 267 -14 350 -14 m 343 47 q 420 69 381 47 q 488 134 460 92 q 521 236 515 176 l 521 381 l 428 381 q 258 330 314 381 q 201 188 201 279 q 238 79 201 111 q 343 47 274 47 m 319 810 l 422 1029 q 446 1057 429 1046 q 482 1068 463 1068 q 528 1049 508 1068 q 547 1003 547 1029 q 524 954 547 971 l 342 793 l 319 810 z "},"ă":{"ha":788,"x_min":64,"x_max":792,"o":"m 267 -14 q 121 33 178 -14 q 64 171 64 79 q 174 356 64 301 q 428 411 283 411 l 521 411 l 521 518 q 505 630 521 590 q 456 685 489 669 q 365 701 422 701 q 268 676 300 701 q 236 607 236 650 q 275 554 236 567 q 249 493 275 519 q 186 467 222 467 q 124 488 147 467 q 100 554 100 510 q 181 683 100 635 q 382 732 261 732 q 660 490 660 732 l 660 93 q 673 47 660 63 q 711 31 686 31 q 749 47 735 31 q 763 90 763 63 l 792 90 q 760 14 792 42 q 674 -14 729 -14 q 566 23 610 -14 q 521 138 522 60 q 419 26 488 67 q 267 -14 350 -14 m 343 47 q 420 69 381 47 q 488 134 460 92 q 521 236 515 176 l 521 381 l 428 381 q 258 330 314 381 q 201 188 201 279 q 238 79 201 111 q 343 47 274 47 m 376 818 q 258 865 306 818 q 197 985 211 911 l 244 985 q 294 921 260 944 q 379 897 328 897 q 466 921 432 897 q 514 985 500 944 l 561 985 q 498 864 544 910 q 376 818 451 818 z "},"ắ":{"ha":788,"x_min":64,"x_max":792,"o":"m 267 -14 q 121 33 178 -14 q 64 171 64 79 q 174 356 64 301 q 428 411 283 411 l 521 411 l 521 518 q 505 630 521 590 q 456 685 489 669 q 365 701 422 701 q 268 676 300 701 q 236 607 236 650 q 275 554 236 567 q 249 493 275 519 q 186 467 222 467 q 124 488 147 467 q 100 554 100 510 q 181 683 100 635 q 382 732 261 732 q 660 490 660 732 l 660 93 q 673 47 660 63 q 711 31 686 31 q 749 47 735 31 q 763 90 763 63 l 792 90 q 760 14 792 42 q 674 -14 729 -14 q 566 23 610 -14 q 521 138 522 60 q 419 26 488 67 q 267 -14 350 -14 m 343 47 q 420 69 381 47 q 488 134 460 92 q 521 236 515 176 l 521 381 l 428 381 q 258 330 314 381 q 201 188 201 279 q 238 79 201 111 q 343 47 274 47 m 376 818 q 258 865 306 818 q 197 985 211 911 l 244 985 q 294 921 260 944 q 379 897 328 897 q 466 921 432 897 q 514 985 500 944 l 561 985 q 498 864 544 910 q 376 818 451 818 m 356 1024 l 458 1243 q 482 1271 465 1260 q 518 1282 499 1282 q 564 1263 544 1282 q 583 1217 583 1243 q 560 1168 583 1185 l 378 1007 l 356 1024 z "},"ặ":{"ha":788,"x_min":64,"x_max":792,"o":"m 267 -14 q 121 33 178 -14 q 64 171 64 79 q 174 356 64 301 q 428 411 283 411 l 521 411 l 521 518 q 505 630 521 590 q 456 685 489 669 q 365 701 422 701 q 268 676 300 701 q 236 607 236 650 q 275 554 236 567 q 249 493 275 519 q 186 467 222 467 q 124 488 147 467 q 100 554 100 510 q 181 683 100 635 q 382 732 261 732 q 660 490 660 732 l 660 93 q 673 47 660 63 q 711 31 686 31 q 749 47 735 31 q 763 90 763 63 l 792 90 q 760 14 792 42 q 674 -14 729 -14 q 566 23 610 -14 q 521 138 522 60 q 419 26 488 67 q 267 -14 350 -14 m 343 47 q 420 69 381 47 q 488 134 460 92 q 521 236 515 176 l 521 381 l 428 381 q 258 330 314 381 q 201 188 201 279 q 238 79 201 111 q 343 47 274 47 m 396 -232 q 347 -212 368 -232 q 326 -164 326 -192 q 347 -117 326 -136 q 396 -97 368 -97 q 443 -117 424 -97 q 463 -164 463 -136 q 443 -212 463 -192 q 396 -232 424 -232 m 376 818 q 258 865 306 818 q 197 985 211 911 l 244 985 q 294 921 260 944 q 379 897 328 897 q 466 921 432 897 q 514 985 500 944 l 561 985 q 498 864 544 910 q 376 818 451 818 z "},"ằ":{"ha":788,"x_min":64,"x_max":792,"o":"m 267 -14 q 121 33 178 -14 q 64 171 64 79 q 174 356 64 301 q 428 411 283 411 l 521 411 l 521 518 q 505 630 521 590 q 456 685 489 669 q 365 701 422 701 q 268 676 300 701 q 236 607 236 650 q 275 554 236 567 q 249 493 275 519 q 186 467 222 467 q 124 488 147 467 q 100 554 100 510 q 181 683 100 635 q 382 732 261 732 q 660 490 660 732 l 660 93 q 673 47 660 63 q 711 31 686 31 q 749 47 735 31 q 763 90 763 63 l 792 90 q 760 14 792 42 q 674 -14 729 -14 q 566 23 610 -14 q 521 138 522 60 q 419 26 488 67 q 267 -14 350 -14 m 343 47 q 420 69 381 47 q 488 134 460 92 q 521 236 515 176 l 521 381 l 428 381 q 258 330 314 381 q 201 188 201 279 q 238 79 201 111 q 343 47 274 47 m 376 818 q 258 865 306 818 q 197 985 211 911 l 244 985 q 294 921 260 944 q 379 897 328 897 q 466 921 432 897 q 514 985 500 944 l 561 985 q 498 864 544 910 q 376 818 451 818 m 203 1168 q 179 1217 179 1188 q 199 1263 179 1243 q 244 1282 218 1282 q 281 1271 264 1282 q 306 1243 297 1260 l 407 1024 l 385 1007 l 203 1168 z "},"ẳ":{"ha":788,"x_min":64,"x_max":792,"o":"m 267 -14 q 121 33 178 -14 q 64 171 64 79 q 174 356 64 301 q 428 411 283 411 l 521 411 l 521 518 q 505 630 521 590 q 456 685 489 669 q 365 701 422 701 q 268 676 300 701 q 236 607 236 650 q 275 554 236 567 q 249 493 275 519 q 186 467 222 467 q 124 488 147 467 q 100 554 100 510 q 181 683 100 635 q 382 732 261 732 q 660 490 660 732 l 660 93 q 673 47 660 63 q 711 31 686 31 q 749 47 735 31 q 763 90 763 63 l 792 90 q 760 14 792 42 q 674 -14 729 -14 q 566 23 610 -14 q 521 138 522 60 q 419 26 488 67 q 267 -14 350 -14 m 343 47 q 420 69 381 47 q 488 134 460 92 q 521 236 515 176 l 521 381 l 428 381 q 258 330 314 381 q 201 188 201 279 q 238 79 201 111 q 343 47 274 47 m 376 818 q 258 865 306 818 q 197 985 211 911 l 244 985 q 294 921 260 944 q 379 897 328 897 q 466 921 432 897 q 514 985 500 944 l 561 985 q 498 864 544 910 q 376 818 451 818 m 385 999 q 390 1022 385 1013 q 406 1044 394 1031 q 431 1083 422 1063 q 440 1140 440 1103 q 424 1223 440 1200 q 376 1246 407 1246 q 326 1231 347 1246 q 304 1192 304 1215 q 333 1147 304 1163 q 315 1117 333 1128 q 276 1106 296 1106 q 245 1119 258 1106 q 232 1154 232 1132 q 267 1242 232 1207 q 378 1276 303 1276 q 526 1143 526 1276 q 506 1079 526 1100 q 451 1040 486 1058 q 435 1031 449 1039 q 416 1016 422 1024 q 410 999 410 1008 l 385 999 z "},"ẵ":{"ha":788,"x_min":64,"x_max":792,"o":"m 267 -14 q 121 33 178 -14 q 64 171 64 79 q 174 356 64 301 q 428 411 283 411 l 521 411 l 521 518 q 505 630 521 590 q 456 685 489 669 q 365 701 422 701 q 268 676 300 701 q 236 607 236 650 q 275 554 236 567 q 249 493 275 519 q 186 467 222 467 q 124 488 147 467 q 100 554 100 510 q 181 683 100 635 q 382 732 261 732 q 660 490 660 732 l 660 93 q 673 47 660 63 q 711 31 686 31 q 749 47 735 31 q 763 90 763 63 l 792 90 q 760 14 792 42 q 674 -14 729 -14 q 566 23 610 -14 q 521 138 522 60 q 419 26 488 67 q 267 -14 350 -14 m 343 47 q 420 69 381 47 q 488 134 460 92 q 521 236 515 176 l 521 381 l 428 381 q 258 330 314 381 q 201 188 201 279 q 238 79 201 111 q 343 47 274 47 m 376 818 q 258 865 306 818 q 197 985 211 911 l 244 985 q 294 921 260 944 q 379 897 328 897 q 466 921 432 897 q 514 985 500 944 l 561 985 q 498 864 544 910 q 376 818 451 818 m 475 1050 q 408 1064 440 1050 q 335 1104 376 1078 q 275 1138 299 1126 q 228 1149 251 1149 q 149 1081 174 1149 l 111 1086 q 128 1133 111 1094 q 183 1204 144 1171 q 285 1238 222 1238 q 351 1224 319 1238 q 425 1183 383 1210 q 485 1150 461 1161 q 532 1139 508 1139 q 611 1207 586 1139 l 649 1201 q 632 1155 649 1193 q 576 1083 615 1117 q 475 1050 538 1050 z "},"â":{"ha":775,"x_min":64,"x_max":792,"o":"m 267 -14 q 121 33 178 -14 q 64 171 64 79 q 174 356 64 301 q 428 411 283 411 l 521 411 l 521 518 q 505 630 521 590 q 456 685 489 669 q 365 701 422 701 q 268 676 300 701 q 236 607 236 650 q 275 554 236 567 q 249 493 275 519 q 186 467 222 467 q 124 488 147 467 q 100 554 100 510 q 181 683 100 635 q 382 732 261 732 q 660 490 660 732 l 660 93 q 673 47 660 63 q 711 31 686 31 q 749 47 735 31 q 763 90 763 63 l 792 90 q 760 14 792 42 q 674 -14 729 -14 q 566 23 610 -14 q 521 138 522 60 q 419 26 488 67 q 267 -14 350 -14 m 343 47 q 420 69 381 47 q 488 134 460 92 q 521 236 515 176 l 521 381 l 428 381 q 258 330 314 381 q 201 188 201 279 q 238 79 201 111 q 343 47 274 47 m 218 818 l 189 839 l 356 1054 l 410 1054 l 576 839 l 547 818 l 382 949 l 218 818 z "},"ấ":{"ha":788,"x_min":64,"x_max":792,"o":"m 267 -14 q 121 33 178 -14 q 64 171 64 79 q 174 356 64 301 q 428 411 283 411 l 521 411 l 521 518 q 505 630 521 590 q 456 685 489 669 q 365 701 422 701 q 268 676 300 701 q 236 607 236 650 q 275 554 236 567 q 249 493 275 519 q 186 467 222 467 q 124 488 147 467 q 100 554 100 510 q 181 683 100 635 q 382 732 261 732 q 660 490 660 732 l 660 93 q 673 47 660 63 q 711 31 686 31 q 749 47 735 31 q 763 90 763 63 l 792 90 q 760 14 792 42 q 674 -14 729 -14 q 566 23 610 -14 q 521 138 522 60 q 419 26 488 67 q 267 -14 350 -14 m 343 47 q 420 69 381 47 q 488 134 460 92 q 521 236 515 176 l 521 381 l 428 381 q 258 330 314 381 q 201 188 201 279 q 238 79 201 111 q 343 47 274 47 m 217 818 l 188 839 l 354 1054 l 408 1054 l 575 839 l 546 818 l 381 949 l 217 818 m 554 967 l 657 1186 q 681 1214 664 1203 q 717 1225 697 1225 q 763 1206 743 1225 q 782 1160 782 1186 q 758 1111 782 1128 l 576 950 l 554 967 z "},"ậ":{"ha":788,"x_min":64,"x_max":792,"o":"m 267 -14 q 121 33 178 -14 q 64 171 64 79 q 174 356 64 301 q 428 411 283 411 l 521 411 l 521 518 q 505 630 521 590 q 456 685 489 669 q 365 701 422 701 q 268 676 300 701 q 236 607 236 650 q 275 554 236 567 q 249 493 275 519 q 186 467 222 467 q 124 488 147 467 q 100 554 100 510 q 181 683 100 635 q 382 732 261 732 q 660 490 660 732 l 660 93 q 673 47 660 63 q 711 31 686 31 q 749 47 735 31 q 763 90 763 63 l 792 90 q 760 14 792 42 q 674 -14 729 -14 q 566 23 610 -14 q 521 138 522 60 q 419 26 488 67 q 267 -14 350 -14 m 343 47 q 420 69 381 47 q 488 134 460 92 q 521 236 515 176 l 521 381 l 428 381 q 258 330 314 381 q 201 188 201 279 q 238 79 201 111 q 343 47 274 47 m 396 -232 q 347 -212 368 -232 q 326 -164 326 -192 q 347 -117 326 -136 q 396 -97 368 -97 q 443 -117 424 -97 q 463 -164 463 -136 q 443 -212 463 -192 q 396 -232 424 -232 m 217 818 l 188 839 l 354 1054 l 408 1054 l 575 839 l 546 818 l 381 949 l 217 818 z "},"ầ":{"ha":788,"x_min":64,"x_max":792,"o":"m 267 -14 q 121 33 178 -14 q 64 171 64 79 q 174 356 64 301 q 428 411 283 411 l 521 411 l 521 518 q 505 630 521 590 q 456 685 489 669 q 365 701 422 701 q 268 676 300 701 q 236 607 236 650 q 275 554 236 567 q 249 493 275 519 q 186 467 222 467 q 124 488 147 467 q 100 554 100 510 q 181 683 100 635 q 382 732 261 732 q 660 490 660 732 l 660 93 q 673 47 660 63 q 711 31 686 31 q 749 47 735 31 q 763 90 763 63 l 792 90 q 760 14 792 42 q 674 -14 729 -14 q 566 23 610 -14 q 521 138 522 60 q 419 26 488 67 q 267 -14 350 -14 m 343 47 q 420 69 381 47 q 488 134 460 92 q 521 236 515 176 l 521 381 l 428 381 q 258 330 314 381 q 201 188 201 279 q 238 79 201 111 q 343 47 274 47 m 217 818 l 188 839 l 354 1054 l 408 1054 l 575 839 l 546 818 l 381 949 l 217 818 m 396 1182 q 372 1231 372 1201 q 392 1276 372 1257 q 438 1296 411 1296 q 474 1285 457 1296 q 499 1257 490 1274 l 600 1038 l 578 1021 l 396 1182 z "},"ẩ":{"ha":788,"x_min":64,"x_max":792,"o":"m 267 -14 q 121 33 178 -14 q 64 171 64 79 q 174 356 64 301 q 428 411 283 411 l 521 411 l 521 518 q 505 630 521 590 q 456 685 489 669 q 365 701 422 701 q 268 676 300 701 q 236 607 236 650 q 275 554 236 567 q 249 493 275 519 q 186 467 222 467 q 124 488 147 467 q 100 554 100 510 q 181 683 100 635 q 382 732 261 732 q 660 490 660 732 l 660 93 q 673 47 660 63 q 711 31 686 31 q 749 47 735 31 q 763 90 763 63 l 792 90 q 760 14 792 42 q 674 -14 729 -14 q 566 23 610 -14 q 521 138 522 60 q 419 26 488 67 q 267 -14 350 -14 m 343 47 q 420 69 381 47 q 488 134 460 92 q 521 236 515 176 l 521 381 l 428 381 q 258 330 314 381 q 201 188 201 279 q 238 79 201 111 q 343 47 274 47 m 217 818 l 188 839 l 354 1054 l 408 1054 l 575 839 l 546 818 l 381 949 l 217 818 m 564 1000 q 569 1023 564 1014 q 585 1046 574 1032 q 610 1084 601 1064 q 619 1142 619 1104 q 603 1224 619 1201 q 556 1247 586 1247 q 505 1232 526 1247 q 483 1193 483 1217 q 513 1149 483 1164 q 494 1118 513 1129 q 456 1107 475 1107 q 424 1120 438 1107 q 411 1156 411 1133 q 447 1243 411 1208 q 557 1278 482 1278 q 706 1144 706 1278 q 685 1081 706 1101 q 631 1042 665 1060 q 615 1033 628 1040 q 595 1017 601 1025 q 589 1000 589 1010 l 564 1000 z "},"ẫ":{"ha":788,"x_min":64,"x_max":792,"o":"m 267 -14 q 121 33 178 -14 q 64 171 64 79 q 174 356 64 301 q 428 411 283 411 l 521 411 l 521 518 q 505 630 521 590 q 456 685 489 669 q 365 701 422 701 q 268 676 300 701 q 236 607 236 650 q 275 554 236 567 q 249 493 275 519 q 186 467 222 467 q 124 488 147 467 q 100 554 100 510 q 181 683 100 635 q 382 732 261 732 q 660 490 660 732 l 660 93 q 673 47 660 63 q 711 31 686 31 q 749 47 735 31 q 763 90 763 63 l 792 90 q 760 14 792 42 q 674 -14 729 -14 q 566 23 610 -14 q 521 138 522 60 q 419 26 488 67 q 267 -14 350 -14 m 343 47 q 420 69 381 47 q 488 134 460 92 q 521 236 515 176 l 521 381 l 428 381 q 258 330 314 381 q 201 188 201 279 q 238 79 201 111 q 343 47 274 47 m 217 818 l 188 839 l 354 1054 l 408 1054 l 575 839 l 546 818 l 381 949 l 217 818 m 493 1081 q 426 1094 458 1081 q 353 1135 394 1108 q 293 1168 317 1157 q 246 1179 269 1179 q 167 1111 192 1179 l 129 1117 q 146 1163 129 1125 q 201 1235 163 1201 q 303 1268 240 1268 q 369 1254 338 1268 q 443 1214 401 1240 q 503 1181 479 1192 q 550 1169 526 1169 q 629 1238 604 1169 l 667 1232 q 650 1185 667 1224 q 594 1114 633 1147 q 493 1081 556 1081 z "},"ä":{"ha":775,"x_min":64,"x_max":792,"o":"m 267 -14 q 121 33 178 -14 q 64 171 64 79 q 174 356 64 301 q 428 411 283 411 l 521 411 l 521 518 q 505 630 521 590 q 456 685 489 669 q 365 701 422 701 q 268 676 300 701 q 236 607 236 650 q 275 554 236 567 q 249 493 275 519 q 186 467 222 467 q 124 488 147 467 q 100 554 100 510 q 181 683 100 635 q 382 732 261 732 q 660 490 660 732 l 660 93 q 673 47 660 63 q 711 31 686 31 q 749 47 735 31 q 763 90 763 63 l 792 90 q 760 14 792 42 q 674 -14 729 -14 q 566 23 610 -14 q 521 138 522 60 q 419 26 488 67 q 267 -14 350 -14 m 343 47 q 420 69 381 47 q 488 134 460 92 q 521 236 515 176 l 521 381 l 428 381 q 258 330 314 381 q 201 188 201 279 q 238 79 201 111 q 343 47 274 47 m 247 847 q 188 871 213 847 q 164 929 164 894 q 188 988 164 964 q 247 1011 213 1011 q 306 988 282 1011 q 329 929 329 964 q 306 871 329 894 q 247 847 282 847 m 504 847 q 446 871 469 847 q 422 929 422 894 q 446 988 422 964 q 504 1011 469 1011 q 563 988 539 1011 q 586 929 586 964 q 563 871 586 894 q 504 847 539 847 z "},"ạ":{"ha":788,"x_min":64,"x_max":792,"o":"m 267 -14 q 121 33 178 -14 q 64 171 64 79 q 174 356 64 301 q 428 411 283 411 l 521 411 l 521 518 q 505 630 521 590 q 456 685 489 669 q 365 701 422 701 q 268 676 300 701 q 236 607 236 650 q 275 554 236 567 q 249 493 275 519 q 186 467 222 467 q 124 488 147 467 q 100 554 100 510 q 181 683 100 635 q 382 732 261 732 q 660 490 660 732 l 660 93 q 673 47 660 63 q 711 31 686 31 q 749 47 735 31 q 763 90 763 63 l 792 90 q 760 14 792 42 q 674 -14 729 -14 q 566 23 610 -14 q 521 138 522 60 q 419 26 488 67 q 267 -14 350 -14 m 343 47 q 420 69 381 47 q 488 134 460 92 q 521 236 515 176 l 521 381 l 428 381 q 258 330 314 381 q 201 188 201 279 q 238 79 201 111 q 343 47 274 47 m 396 -232 q 347 -212 368 -232 q 326 -164 326 -192 q 347 -117 326 -136 q 396 -97 368 -97 q 443 -117 424 -97 q 463 -164 463 -136 q 443 -212 463 -192 q 396 -232 424 -232 z "},"à":{"ha":775,"x_min":64,"x_max":792,"o":"m 267 -14 q 121 33 178 -14 q 64 171 64 79 q 174 356 64 301 q 428 411 283 411 l 521 411 l 521 518 q 505 630 521 590 q 456 685 489 669 q 365 701 422 701 q 268 676 300 701 q 236 607 236 650 q 275 554 236 567 q 249 493 275 519 q 186 467 222 467 q 124 488 147 467 q 100 554 100 510 q 181 683 100 635 q 382 732 261 732 q 660 490 660 732 l 660 93 q 673 47 660 63 q 711 31 686 31 q 749 47 735 31 q 763 90 763 63 l 792 90 q 760 14 792 42 q 674 -14 729 -14 q 566 23 610 -14 q 521 138 522 60 q 419 26 488 67 q 267 -14 350 -14 m 343 47 q 420 69 381 47 q 488 134 460 92 q 521 236 515 176 l 521 381 l 428 381 q 258 330 314 381 q 201 188 201 279 q 238 79 201 111 q 343 47 274 47 m 192 954 q 168 1003 168 974 q 188 1049 168 1029 q 233 1068 207 1068 q 269 1057 253 1068 q 294 1029 286 1046 l 396 810 l 374 793 l 192 954 z "},"ả":{"ha":788,"x_min":64,"x_max":792,"o":"m 267 -14 q 121 33 178 -14 q 64 171 64 79 q 174 356 64 301 q 428 411 283 411 l 521 411 l 521 518 q 505 630 521 590 q 456 685 489 669 q 365 701 422 701 q 268 676 300 701 q 236 607 236 650 q 275 554 236 567 q 249 493 275 519 q 186 467 222 467 q 124 488 147 467 q 100 554 100 510 q 181 683 100 635 q 382 732 261 732 q 660 490 660 732 l 660 93 q 673 47 660 63 q 711 31 686 31 q 749 47 735 31 q 763 90 763 63 l 792 90 q 760 14 792 42 q 674 -14 729 -14 q 566 23 610 -14 q 521 138 522 60 q 419 26 488 67 q 267 -14 350 -14 m 343 47 q 420 69 381 47 q 488 134 460 92 q 521 236 515 176 l 521 381 l 428 381 q 258 330 314 381 q 201 188 201 279 q 238 79 201 111 q 343 47 274 47 m 385 785 q 390 808 385 799 q 406 831 394 817 q 431 869 422 849 q 440 926 440 889 q 424 1009 440 986 q 376 1032 407 1032 q 326 1017 347 1032 q 304 978 304 1001 q 333 933 304 949 q 315 903 333 914 q 276 892 296 892 q 245 905 258 892 q 232 940 232 918 q 267 1028 232 993 q 378 1063 303 1063 q 526 929 526 1063 q 506 865 526 886 q 451 826 486 844 q 435 817 449 825 q 416 802 422 810 q 410 785 410 794 l 385 785 z "},"å":{"ha":775,"x_min":64,"x_max":792,"o":"m 267 -14 q 121 33 178 -14 q 64 171 64 79 q 174 356 64 301 q 428 411 283 411 l 521 411 l 521 518 q 505 630 521 590 q 456 685 489 669 q 365 701 422 701 q 268 676 300 701 q 236 607 236 650 q 275 554 236 567 q 249 493 275 519 q 186 467 222 467 q 124 488 147 467 q 100 554 100 510 q 181 683 100 635 q 382 732 261 732 q 660 490 660 732 l 660 93 q 673 47 660 63 q 711 31 686 31 q 749 47 735 31 q 763 90 763 63 l 792 90 q 760 14 792 42 q 674 -14 729 -14 q 566 23 610 -14 q 521 138 522 60 q 419 26 488 67 q 267 -14 350 -14 m 343 47 q 420 69 381 47 q 488 134 460 92 q 521 236 515 176 l 521 381 l 428 381 q 258 330 314 381 q 201 188 201 279 q 238 79 201 111 q 343 47 274 47 m 367 792 q 274 831 313 792 q 236 924 236 869 q 274 1017 236 978 q 367 1056 313 1056 q 460 1017 422 1056 q 499 924 499 978 q 460 831 499 869 q 367 792 422 792 m 367 838 q 428 863 401 838 q 454 924 454 889 q 428 984 454 958 q 367 1010 401 1010 q 306 984 332 1010 q 281 924 281 958 q 306 863 281 889 q 367 838 332 838 z "},"ã":{"ha":775,"x_min":64,"x_max":792,"o":"m 267 -14 q 121 33 178 -14 q 64 171 64 79 q 174 356 64 301 q 428 411 283 411 l 521 411 l 521 518 q 505 630 521 590 q 456 685 489 669 q 365 701 422 701 q 268 676 300 701 q 236 607 236 650 q 275 554 236 567 q 249 493 275 519 q 186 467 222 467 q 124 488 147 467 q 100 554 100 510 q 181 683 100 635 q 382 732 261 732 q 660 490 660 732 l 660 93 q 673 47 660 63 q 711 31 686 31 q 749 47 735 31 q 763 90 763 63 l 792 90 q 760 14 792 42 q 674 -14 729 -14 q 566 23 610 -14 q 521 138 522 60 q 419 26 488 67 q 267 -14 350 -14 m 343 47 q 420 69 381 47 q 488 134 460 92 q 521 236 515 176 l 521 381 l 428 381 q 258 330 314 381 q 201 188 201 279 q 238 79 201 111 q 343 47 274 47 m 483 836 q 417 850 449 836 q 343 890 385 864 q 283 924 307 913 q 236 935 260 935 q 157 867 182 935 l 119 872 q 136 919 119 881 q 192 990 153 957 q 293 1024 231 1024 q 360 1010 328 1024 q 433 969 392 996 q 493 936 469 947 q 540 925 517 925 q 619 993 594 925 l 657 988 q 640 941 657 979 q 585 869 624 903 q 483 836 546 836 z "},"æ":{"ha":1219,"x_min":54,"x_max":1164,"o":"m 250 -14 q 110 33 165 -14 q 54 171 54 81 q 170 358 54 303 q 460 414 286 414 l 511 414 l 511 546 q 474 663 511 625 q 369 701 438 701 q 267 672 307 701 q 226 607 226 643 q 265 554 226 567 q 239 493 265 519 q 176 467 213 467 q 115 492 140 467 q 90 554 90 518 q 128 647 90 607 q 231 710 167 688 q 369 732 294 732 q 615 640 553 732 q 725 708 663 685 q 858 732 788 732 q 1015 693 946 732 q 1124 585 1085 654 q 1164 428 1163 517 l 653 428 l 653 290 q 708 92 653 168 q 867 17 763 17 q 1036 71 963 17 q 1126 211 1110 125 l 1158 211 q 1060 47 1139 108 q 867 -14 981 -14 q 662 41 753 -14 q 532 192 571 96 q 422 35 492 83 q 250 -14 351 -14 m 1013 463 q 974 642 1013 583 q 858 701 936 701 q 713 637 765 701 q 654 463 661 572 l 1013 463 m 319 51 q 411 80 367 51 q 483 158 456 108 q 511 265 511 207 l 511 379 l 460 379 q 278 328 351 379 q 206 171 206 276 q 236 83 206 115 q 319 51 267 51 z "},"b":{"ha":890,"x_min":28,"x_max":831,"o":"m 499 -14 q 358 28 417 -14 q 264 144 299 71 l 264 0 l 28 0 l 28 28 l 125 42 l 125 1069 l 28 1083 l 28 1111 l 264 1111 l 264 574 q 358 690 299 647 q 499 732 417 732 q 672 686 597 732 q 789 556 747 640 q 831 360 831 472 q 789 163 831 247 q 672 33 747 79 q 499 -14 597 -14 m 485 21 q 678 290 678 21 l 678 429 q 485 697 678 697 q 374 662 424 697 q 294 567 324 626 q 264 439 265 508 l 264 290 q 292 157 264 219 q 372 58 321 94 q 485 21 422 21 z "},"c":{"ha":760,"x_min":60,"x_max":706,"o":"m 419 -14 q 238 33 319 -14 q 108 165 156 79 q 60 360 60 250 q 110 560 60 475 q 243 688 161 644 q 419 732 325 732 q 564 705 499 732 q 667 629 629 678 q 706 519 706 581 q 682 449 706 474 q 619 425 658 425 q 557 450 582 425 q 532 513 532 475 q 561 543 553 526 q 569 585 569 560 q 528 669 569 636 q 419 701 488 701 q 266 630 319 701 q 213 429 213 558 l 213 290 q 265 92 213 167 q 419 17 317 17 q 584 70 514 17 q 671 211 654 124 l 703 211 q 606 47 683 108 q 419 -14 529 -14 z "},"ç":{"ha":760,"x_min":60,"x_max":706,"o":"m 422 -322 q 322 -310 367 -322 l 331 -279 q 369 -283 347 -283 q 447 -261 415 -283 q 479 -190 479 -239 q 454 -127 479 -153 q 379 -96 429 -101 l 401 -14 q 228 39 306 -8 q 105 169 150 86 q 60 360 60 253 q 110 560 60 475 q 243 688 161 644 q 419 732 325 732 q 564 705 499 732 q 667 629 629 678 q 706 519 706 581 q 682 449 706 474 q 619 425 658 425 q 557 450 582 425 q 532 513 532 475 q 561 543 553 526 q 569 585 569 560 q 528 669 569 636 q 419 701 488 701 q 266 630 319 701 q 213 429 213 558 l 213 290 q 265 92 213 167 q 419 17 317 17 q 584 70 514 17 q 671 211 654 124 l 703 211 q 613 53 685 113 q 439 -12 542 -7 l 428 -61 q 552 -95 507 -64 q 597 -189 597 -126 q 547 -289 597 -256 q 422 -322 496 -322 z "},"d":{"ha":892,"x_min":60,"x_max":863,"o":"m 392 -14 q 218 33 293 -14 q 101 163 143 79 q 60 360 60 247 q 101 556 60 472 q 218 686 143 640 q 392 732 293 732 q 532 690 472 732 q 626 574 592 647 l 626 1069 l 529 1083 l 529 1111 l 765 1111 l 765 42 l 863 28 l 863 0 l 626 0 l 626 144 q 532 28 592 71 q 392 -14 472 -14 m 406 21 q 516 56 467 21 q 595 151 565 92 q 626 279 625 210 l 626 439 q 595 567 625 508 q 516 662 565 626 q 406 697 467 697 q 213 429 213 697 l 213 290 q 406 21 213 21 z "},"ð":{"ha":871,"x_min":60,"x_max":781,"o":"m 419 -14 q 238 33 319 -14 q 108 165 156 79 q 60 360 60 250 q 108 554 60 469 q 238 685 156 639 q 419 732 319 732 q 527 719 474 732 q 624 685 581 707 q 595 852 618 783 q 521 972 572 921 l 343 874 l 326 907 l 492 997 q 269 1094 411 1058 l 276 1125 q 535 1021 428 1090 l 694 1108 l 713 1078 l 567 997 q 781 517 781 838 l 781 360 q 732 165 781 250 q 601 33 683 79 q 419 -14 519 -14 m 419 17 q 575 92 522 17 q 628 290 628 167 l 628 546 q 625 649 628 585 q 527 687 582 672 q 419 701 472 701 q 265 627 317 701 q 213 429 213 553 l 213 290 q 265 92 213 167 q 419 17 317 17 z "},"đ":{"ha":833,"x_min":60,"x_max":863,"o":"m 863 28 l 863 0 l 626 0 l 626 144 q 532 28 592 71 q 392 -14 472 -14 q 218 33 293 -14 q 101 163 143 79 q 60 360 60 247 q 101 556 60 472 q 218 686 143 640 q 392 732 293 732 q 532 690 472 732 q 626 574 592 647 l 626 842 l 433 842 l 433 888 l 626 888 l 626 1069 l 529 1083 l 529 1111 l 765 1111 l 765 888 l 807 888 l 807 842 l 765 842 l 765 42 l 863 28 m 626 439 q 595 567 625 508 q 516 662 565 626 q 406 697 467 697 q 213 429 213 697 l 213 290 q 406 21 213 21 q 516 56 467 21 q 595 151 565 92 q 626 279 625 210 l 626 439 z "},"e":{"ha":779,"x_min":60,"x_max":724,"o":"m 426 -14 q 240 33 324 -14 q 108 164 157 79 q 60 360 60 249 q 108 555 60 471 q 237 685 156 639 q 418 732 318 732 q 575 693 506 732 q 683 585 644 654 q 724 428 722 517 l 213 428 l 213 290 q 267 92 213 168 q 426 17 322 17 q 596 71 522 17 q 686 211 669 125 l 718 211 q 619 47 699 108 q 426 -14 540 -14 m 571 463 q 533 642 571 583 q 417 701 496 701 q 272 636 324 701 q 214 463 221 571 l 571 463 z "},"é":{"ha":776,"x_min":60,"x_max":724,"o":"m 426 -14 q 240 33 324 -14 q 108 164 157 79 q 60 360 60 249 q 108 555 60 471 q 237 685 156 639 q 418 732 318 732 q 575 693 506 732 q 683 585 644 654 q 724 428 722 517 l 213 428 l 213 290 q 267 92 213 168 q 426 17 322 17 q 596 71 522 17 q 686 211 669 125 l 718 211 q 619 47 699 108 q 426 -14 540 -14 m 571 463 q 533 642 571 583 q 417 701 496 701 q 272 636 324 701 q 214 463 221 571 l 571 463 m 367 810 l 469 1029 q 493 1057 476 1046 q 529 1068 510 1068 q 575 1049 556 1068 q 594 1003 594 1029 q 571 954 594 971 l 389 793 l 367 810 z "},"ê":{"ha":776,"x_min":60,"x_max":724,"o":"m 426 -14 q 240 33 324 -14 q 108 164 157 79 q 60 360 60 249 q 108 555 60 471 q 237 685 156 639 q 418 732 318 732 q 575 693 506 732 q 683 585 644 654 q 724 428 722 517 l 213 428 l 213 290 q 267 92 213 168 q 426 17 322 17 q 596 71 522 17 q 686 211 669 125 l 718 211 q 619 47 699 108 q 426 -14 540 -14 m 571 463 q 533 642 571 583 q 417 701 496 701 q 272 636 324 701 q 214 463 221 571 l 571 463 m 257 818 l 228 839 l 394 1054 l 449 1054 l 615 839 l 586 818 l 421 949 l 257 818 z "},"ế":{"ha":779,"x_min":60,"x_max":819,"o":"m 426 -14 q 240 33 324 -14 q 108 164 157 79 q 60 360 60 249 q 108 555 60 471 q 237 685 156 639 q 418 732 318 732 q 575 693 506 732 q 683 585 644 654 q 724 428 722 517 l 213 428 l 213 290 q 267 92 213 168 q 426 17 322 17 q 596 71 522 17 q 686 211 669 125 l 718 211 q 619 47 699 108 q 426 -14 540 -14 m 571 463 q 533 642 571 583 q 417 701 496 701 q 272 636 324 701 q 214 463 221 571 l 571 463 m 254 818 l 225 839 l 392 1054 l 446 1054 l 613 839 l 583 818 l 418 949 l 254 818 m 592 967 l 694 1186 q 718 1214 701 1203 q 754 1225 735 1225 q 800 1206 781 1225 q 819 1160 819 1186 q 796 1111 819 1128 l 614 950 l 592 967 z "},"ệ":{"ha":779,"x_min":60,"x_max":724,"o":"m 426 -14 q 240 33 324 -14 q 108 164 157 79 q 60 360 60 249 q 108 555 60 471 q 237 685 156 639 q 418 732 318 732 q 575 693 506 732 q 683 585 644 654 q 724 428 722 517 l 213 428 l 213 290 q 267 92 213 168 q 426 17 322 17 q 596 71 522 17 q 686 211 669 125 l 718 211 q 619 47 699 108 q 426 -14 540 -14 m 571 463 q 533 642 571 583 q 417 701 496 701 q 272 636 324 701 q 214 463 221 571 l 571 463 m 392 -232 q 343 -212 364 -232 q 322 -164 322 -192 q 343 -117 322 -136 q 392 -97 364 -97 q 439 -117 419 -97 q 458 -164 458 -136 q 439 -212 458 -192 q 392 -232 419 -232 m 254 818 l 225 839 l 392 1054 l 446 1054 l 613 839 l 583 818 l 418 949 l 254 818 z "},"ề":{"ha":779,"x_min":60,"x_max":724,"o":"m 426 -14 q 240 33 324 -14 q 108 164 157 79 q 60 360 60 249 q 108 555 60 471 q 237 685 156 639 q 418 732 318 732 q 575 693 506 732 q 683 585 644 654 q 724 428 722 517 l 213 428 l 213 290 q 267 92 213 168 q 426 17 322 17 q 596 71 522 17 q 686 211 669 125 l 718 211 q 619 47 699 108 q 426 -14 540 -14 m 571 463 q 533 642 571 583 q 417 701 496 701 q 272 636 324 701 q 214 463 221 571 l 571 463 m 254 818 l 225 839 l 392 1054 l 446 1054 l 613 839 l 583 818 l 418 949 l 254 818 m 433 1182 q 410 1231 410 1201 q 429 1276 410 1257 q 475 1296 449 1296 q 511 1285 494 1296 q 536 1257 528 1274 l 638 1038 l 615 1021 l 433 1182 z "},"ể":{"ha":779,"x_min":60,"x_max":743,"o":"m 426 -14 q 240 33 324 -14 q 108 164 157 79 q 60 360 60 249 q 108 555 60 471 q 237 685 156 639 q 418 732 318 732 q 575 693 506 732 q 683 585 644 654 q 724 428 722 517 l 213 428 l 213 290 q 267 92 213 168 q 426 17 322 17 q 596 71 522 17 q 686 211 669 125 l 718 211 q 619 47 699 108 q 426 -14 540 -14 m 571 463 q 533 642 571 583 q 417 701 496 701 q 272 636 324 701 q 214 463 221 571 l 571 463 m 254 818 l 225 839 l 392 1054 l 446 1054 l 613 839 l 583 818 l 418 949 l 254 818 m 601 1000 q 606 1023 601 1014 q 622 1046 611 1032 q 648 1084 639 1064 q 657 1142 657 1104 q 640 1224 657 1201 q 593 1247 624 1247 q 542 1232 564 1247 q 521 1193 521 1217 q 550 1149 521 1164 q 531 1118 550 1129 q 493 1107 513 1107 q 462 1120 475 1107 q 449 1156 449 1133 q 484 1243 449 1208 q 594 1278 519 1278 q 743 1144 743 1278 q 723 1081 743 1101 q 668 1042 703 1060 q 652 1033 665 1040 q 633 1017 639 1025 q 626 1000 626 1010 l 601 1000 z "},"ễ":{"ha":779,"x_min":60,"x_max":724,"o":"m 426 -14 q 240 33 324 -14 q 108 164 157 79 q 60 360 60 249 q 108 555 60 471 q 237 685 156 639 q 418 732 318 732 q 575 693 506 732 q 683 585 644 654 q 724 428 722 517 l 213 428 l 213 290 q 267 92 213 168 q 426 17 322 17 q 596 71 522 17 q 686 211 669 125 l 718 211 q 619 47 699 108 q 426 -14 540 -14 m 571 463 q 533 642 571 583 q 417 701 496 701 q 272 636 324 701 q 214 463 221 571 l 571 463 m 254 818 l 225 839 l 392 1054 l 446 1054 l 613 839 l 583 818 l 418 949 l 254 818 m 531 1081 q 464 1094 496 1081 q 390 1135 432 1108 q 331 1168 354 1157 q 283 1179 307 1179 q 204 1111 229 1179 l 167 1117 q 183 1163 167 1125 q 239 1235 200 1201 q 340 1268 278 1268 q 407 1254 375 1268 q 481 1214 439 1240 q 540 1181 517 1192 q 588 1169 564 1169 q 667 1238 642 1169 l 704 1232 q 688 1185 704 1224 q 632 1114 671 1147 q 531 1081 593 1081 z "},"ë":{"ha":776,"x_min":60,"x_max":724,"o":"m 426 -14 q 240 33 324 -14 q 108 164 157 79 q 60 360 60 249 q 108 555 60 471 q 237 685 156 639 q 418 732 318 732 q 575 693 506 732 q 683 585 644 654 q 724 428 722 517 l 213 428 l 213 290 q 267 92 213 168 q 426 17 322 17 q 596 71 522 17 q 686 211 669 125 l 718 211 q 619 47 699 108 q 426 -14 540 -14 m 571 463 q 533 642 571 583 q 417 701 496 701 q 272 636 324 701 q 214 463 221 571 l 571 463 m 278 847 q 219 871 243 847 q 194 929 194 894 q 219 988 194 964 q 278 1011 243 1011 q 336 988 313 1011 q 360 929 360 964 q 336 871 360 894 q 278 847 313 847 m 535 847 q 476 871 500 847 q 453 929 453 894 q 476 988 453 964 q 535 1011 500 1011 q 593 988 569 1011 q 617 929 617 964 q 593 871 617 894 q 535 847 569 847 z "},"ẹ":{"ha":779,"x_min":60,"x_max":724,"o":"m 426 -14 q 240 33 324 -14 q 108 164 157 79 q 60 360 60 249 q 108 555 60 471 q 237 685 156 639 q 418 732 318 732 q 575 693 506 732 q 683 585 644 654 q 724 428 722 517 l 213 428 l 213 290 q 267 92 213 168 q 426 17 322 17 q 596 71 522 17 q 686 211 669 125 l 718 211 q 619 47 699 108 q 426 -14 540 -14 m 571 463 q 533 642 571 583 q 417 701 496 701 q 272 636 324 701 q 214 463 221 571 l 571 463 m 392 -232 q 343 -212 364 -232 q 322 -164 322 -192 q 343 -117 322 -136 q 392 -97 364 -97 q 439 -117 419 -97 q 458 -164 458 -136 q 439 -212 458 -192 q 392 -232 419 -232 z "},"è":{"ha":776,"x_min":60,"x_max":724,"o":"m 426 -14 q 240 33 324 -14 q 108 164 157 79 q 60 360 60 249 q 108 555 60 471 q 237 685 156 639 q 418 732 318 732 q 575 693 506 732 q 683 585 644 654 q 724 428 722 517 l 213 428 l 213 290 q 267 92 213 168 q 426 17 322 17 q 596 71 522 17 q 686 211 669 125 l 718 211 q 619 47 699 108 q 426 -14 540 -14 m 571 463 q 533 642 571 583 q 417 701 496 701 q 272 636 324 701 q 214 463 221 571 l 571 463 m 236 954 q 213 1003 213 974 q 232 1049 213 1029 q 278 1068 251 1068 q 314 1057 297 1068 q 339 1029 331 1046 l 440 810 l 418 793 l 236 954 z "},"ẻ":{"ha":779,"x_min":60,"x_max":724,"o":"m 426 -14 q 240 33 324 -14 q 108 164 157 79 q 60 360 60 249 q 108 555 60 471 q 237 685 156 639 q 418 732 318 732 q 575 693 506 732 q 683 585 644 654 q 724 428 722 517 l 213 428 l 213 290 q 267 92 213 168 q 426 17 322 17 q 596 71 522 17 q 686 211 669 125 l 718 211 q 619 47 699 108 q 426 -14 540 -14 m 571 463 q 533 642 571 583 q 417 701 496 701 q 272 636 324 701 q 214 463 221 571 l 571 463 m 422 785 q 427 808 422 799 q 443 831 432 817 q 469 869 460 849 q 478 926 478 889 q 461 1009 478 986 q 414 1032 444 1032 q 363 1017 385 1032 q 342 978 342 1001 q 371 933 342 949 q 352 903 371 914 q 314 892 333 892 q 283 905 296 892 q 269 940 269 918 q 305 1028 269 993 q 415 1063 340 1063 q 564 929 564 1063 q 544 865 564 886 q 489 826 524 844 q 473 817 486 825 q 453 802 460 810 q 447 785 447 794 l 422 785 z "},"ẽ":{"ha":779,"x_min":60,"x_max":724,"o":"m 426 -14 q 240 33 324 -14 q 108 164 157 79 q 60 360 60 249 q 108 555 60 471 q 237 685 156 639 q 418 732 318 732 q 575 693 506 732 q 683 585 644 654 q 724 428 722 517 l 213 428 l 213 290 q 267 92 213 168 q 426 17 322 17 q 596 71 522 17 q 686 211 669 125 l 718 211 q 619 47 699 108 q 426 -14 540 -14 m 571 463 q 533 642 571 583 q 417 701 496 701 q 272 636 324 701 q 214 463 221 571 l 571 463 m 513 836 q 446 850 478 836 q 372 890 414 864 q 313 924 336 913 q 265 935 289 935 q 186 867 211 935 l 149 872 q 165 919 149 881 q 221 990 182 957 q 322 1024 260 1024 q 389 1010 357 1024 q 463 969 421 996 q 522 936 499 947 q 569 925 546 925 q 649 993 624 925 l 686 988 q 669 941 686 979 q 614 869 653 903 q 513 836 575 836 z "},"f":{"ha":472,"x_min":38,"x_max":563,"o":"m 38 28 l 135 42 l 135 678 l 38 692 l 38 719 l 135 719 l 135 836 q 189 1047 135 969 q 374 1125 243 1125 q 509 1085 456 1125 q 563 978 563 1046 q 540 910 563 936 q 478 883 517 883 q 417 910 443 883 q 390 971 390 936 q 438 1036 438 985 q 419 1077 438 1060 q 374 1094 400 1094 q 297 1044 319 1094 q 274 879 274 993 l 274 719 l 454 719 l 454 692 l 274 678 l 274 42 l 439 28 l 439 0 l 38 0 l 38 28 z "},"g":{"ha":743,"x_min":32,"x_max":750,"o":"m 750 785 q 710 692 750 731 q 582 642 669 653 q 618 497 618 589 q 541 326 618 389 q 346 264 464 264 q 257 272 297 264 q 168 203 168 267 q 198 150 168 167 q 293 133 228 133 l 449 133 q 616 88 561 133 q 671 -69 671 42 q 631 -212 671 -147 q 517 -316 592 -278 q 338 -354 442 -354 q 106 -307 181 -354 q 32 -182 32 -260 q 68 -99 32 -135 q 167 -62 104 -62 q 218 -68 179 -62 q 175 -176 175 -114 q 217 -281 175 -236 q 353 -325 258 -325 q 499 -294 435 -325 q 599 -212 564 -262 q 633 -110 633 -162 q 596 -26 633 -51 q 463 0 558 0 l 293 0 q 147 38 196 0 q 97 151 97 76 q 126 240 97 201 q 199 289 154 278 q 78 497 78 340 q 154 669 78 607 q 346 732 231 732 q 557 671 492 732 q 615 697 596 678 q 635 739 635 715 q 622 773 635 761 q 593 785 610 785 q 616 838 593 815 q 671 861 639 861 q 728 840 706 861 q 750 785 750 819 m 488 532 q 452 663 488 617 q 346 708 417 708 q 208 532 208 708 l 208 464 q 242 335 208 382 q 346 288 276 288 q 452 335 417 288 q 488 464 488 382 l 488 532 z "},"h":{"ha":874,"x_min":29,"x_max":849,"o":"m 29 28 l 126 42 l 126 1069 l 29 1083 l 29 1111 l 265 1111 l 265 569 q 386 688 317 644 q 536 732 456 732 q 694 682 636 732 q 751 533 751 632 l 751 42 l 849 28 l 849 0 l 529 0 l 529 28 l 613 42 l 613 531 q 583 642 613 603 q 493 682 554 682 q 370 635 429 682 q 265 521 311 589 l 265 42 l 349 28 l 349 0 l 29 0 l 29 28 z "},"i":{"ha":401,"x_min":39,"x_max":372,"o":"m 186 881 q 119 908 147 881 q 92 974 92 935 q 119 1039 92 1013 q 186 1065 146 1065 q 250 1039 224 1065 q 276 974 276 1013 q 250 908 276 935 q 186 881 224 881 m 39 0 l 39 28 l 136 42 l 136 676 l 39 690 l 39 718 l 275 718 l 275 42 l 372 28 l 372 0 l 39 0 z "},"ı":{"ha":401,"x_min":39,"x_max":372,"o":"m 39 0 l 39 28 l 136 42 l 136 676 l 39 690 l 39 718 l 275 718 l 275 42 l 372 28 l 372 0 l 39 0 z "},"í":{"ha":400,"x_min":39,"x_max":386,"o":"m 158 810 l 261 1029 q 285 1057 268 1046 q 321 1068 301 1068 q 367 1049 347 1068 q 386 1003 386 1029 q 363 954 386 971 l 181 793 l 158 810 m 39 0 l 39 28 l 136 42 l 136 676 l 39 690 l 39 718 l 275 718 l 275 42 l 372 28 l 372 0 l 39 0 z "},"î":{"ha":399,"x_min":1,"x_max":389,"o":"m 31 818 l 1 839 l 168 1054 l 222 1054 l 389 839 l 360 818 l 194 949 l 31 818 m 39 0 l 39 28 l 136 42 l 136 676 l 39 690 l 39 718 l 275 718 l 275 42 l 372 28 l 372 0 l 39 0 z "},"ï":{"ha":399,"x_min":-12,"x_max":410,"o":"m 39 0 l 39 28 l 136 42 l 136 676 l 39 690 l 39 718 l 275 718 l 275 42 l 372 28 l 372 0 l 39 0 m 71 847 q 12 871 36 847 q -12 929 -12 894 q 12 988 -12 964 q 71 1011 36 1011 q 129 988 106 1011 q 153 929 153 964 q 129 871 153 894 q 71 847 106 847 m 328 847 q 269 871 293 847 q 246 929 246 894 q 269 988 246 964 q 328 1011 293 1011 q 386 988 363 1011 q 410 929 410 964 q 386 871 410 894 q 328 847 363 847 z "},"ị":{"ha":401,"x_min":39,"x_max":372,"o":"m 186 881 q 119 908 147 881 q 92 974 92 935 q 119 1039 92 1013 q 186 1065 146 1065 q 250 1039 224 1065 q 276 974 276 1013 q 250 908 276 935 q 186 881 224 881 m 39 0 l 39 28 l 136 42 l 136 676 l 39 690 l 39 718 l 275 718 l 275 42 l 372 28 l 372 0 l 39 0 m 203 -232 q 154 -212 175 -232 q 133 -164 133 -192 q 154 -117 133 -136 q 203 -97 175 -97 q 250 -117 231 -97 q 269 -164 269 -136 q 250 -212 269 -192 q 203 -232 231 -232 z "},"ì":{"ha":400,"x_min":-6,"x_max":372,"o":"m 18 954 q -6 1003 -6 974 q 14 1049 -6 1029 q 60 1068 33 1068 q 96 1057 79 1068 q 121 1029 113 1046 l 222 810 l 200 793 l 18 954 m 39 0 l 39 28 l 136 42 l 136 676 l 39 690 l 39 718 l 275 718 l 275 42 l 372 28 l 372 0 l 39 0 z "},"ỉ":{"ha":401,"x_min":39,"x_max":372,"o":"m 39 0 l 39 28 l 136 42 l 136 676 l 39 690 l 39 718 l 275 718 l 275 42 l 372 28 l 372 0 l 39 0 m 196 785 q 201 808 196 799 q 217 831 206 817 q 242 869 233 849 q 251 926 251 889 q 235 1009 251 986 q 188 1032 218 1032 q 137 1017 158 1032 q 115 978 115 1001 q 144 933 115 949 q 126 903 144 914 q 88 892 107 892 q 56 905 69 892 q 43 940 43 918 q 78 1028 43 993 q 189 1063 114 1063 q 338 929 338 1063 q 317 865 338 886 q 263 826 297 844 q 247 817 260 825 q 227 802 233 810 q 221 785 221 794 l 196 785 z "},"ĩ":{"ha":401,"x_min":-78,"x_max":460,"o":"m 39 0 l 39 28 l 136 42 l 136 676 l 39 690 l 39 718 l 275 718 l 275 42 l 372 28 l 372 0 l 39 0 m 286 836 q 219 850 251 836 q 146 890 188 864 q 86 924 110 913 q 39 935 63 935 q -40 867 -15 935 l -78 872 q -61 919 -78 881 q -6 990 -44 957 q 96 1024 33 1024 q 163 1010 131 1024 q 236 969 194 996 q 296 936 272 947 q 343 925 319 925 q 422 993 397 925 l 460 988 q 443 941 460 979 q 388 869 426 903 q 286 836 349 836 z "},"j":{"ha":386,"x_min":-125,"x_max":278,"o":"m 188 881 q 121 908 149 881 q 93 974 93 935 q 120 1039 93 1013 q 188 1065 147 1065 q 251 1039 225 1065 q 278 974 278 1013 q 251 908 278 935 q 188 881 225 881 m 44 -406 q -79 -370 -33 -406 q -125 -275 -125 -335 q -104 -214 -125 -237 q -49 -190 -83 -190 q 7 -214 -17 -190 q 31 -269 31 -237 q -12 -324 -12 -282 q 3 -359 -12 -343 q 44 -375 19 -375 q 115 -327 94 -375 q 135 -160 135 -279 l 135 678 l 31 692 l 31 719 l 274 719 l 274 -144 q 222 -335 274 -265 q 44 -406 169 -406 z "},"k":{"ha":785,"x_min":28,"x_max":803,"o":"m 28 0 l 28 28 l 125 42 l 125 1069 l 28 1083 l 28 1111 l 264 1111 l 264 399 l 582 660 l 461 692 l 461 719 l 722 719 l 722 692 l 633 660 l 403 471 l 728 40 l 803 28 l 803 0 l 478 0 l 478 28 l 561 42 l 300 386 l 264 356 l 264 42 l 347 28 l 347 0 l 28 0 z "},"l":{"ha":397,"x_min":28,"x_max":368,"o":"m 28 0 l 28 28 l 132 42 l 132 1069 l 28 1083 l 28 1111 l 271 1111 l 271 42 l 368 28 l 368 0 l 28 0 z "},"m":{"ha":1314,"x_min":38,"x_max":1289,"o":"m 38 28 l 135 42 l 135 678 l 38 692 l 38 719 l 274 719 l 274 592 q 387 694 324 657 q 524 732 450 732 q 662 695 608 732 q 729 585 715 658 q 843 692 779 653 q 983 732 907 732 q 1137 683 1082 732 q 1192 533 1192 633 l 1192 42 l 1289 28 l 1289 0 l 969 0 l 969 28 l 1053 42 l 1053 531 q 1026 643 1053 604 q 940 682 1000 682 q 830 643 883 682 q 733 543 776 604 l 733 42 l 817 28 l 817 0 l 510 0 l 510 28 l 593 42 l 593 531 q 567 643 593 604 q 481 682 540 682 q 370 643 424 682 q 274 543 317 604 l 274 42 l 357 28 l 357 0 l 38 0 l 38 28 z "},"n":{"ha":882,"x_min":38,"x_max":857,"o":"m 38 28 l 135 42 l 135 678 l 38 692 l 38 719 l 274 719 l 274 569 q 394 688 325 644 q 544 732 464 732 q 702 682 644 732 q 760 533 760 632 l 760 42 l 857 28 l 857 0 l 538 0 l 538 28 l 621 42 l 621 531 q 592 642 621 603 q 501 682 563 682 q 378 635 438 682 q 274 521 319 589 l 274 42 l 357 28 l 357 0 l 38 0 l 38 28 z "},"ñ":{"ha":881,"x_min":38,"x_max":857,"o":"m 38 28 l 135 42 l 135 678 l 38 692 l 38 719 l 274 719 l 274 569 q 394 688 325 644 q 544 732 464 732 q 702 682 644 732 q 760 533 760 632 l 760 42 l 857 28 l 857 0 l 538 0 l 538 28 l 621 42 l 621 531 q 592 642 621 603 q 501 682 563 682 q 378 635 438 682 q 274 521 319 589 l 274 42 l 357 28 l 357 0 l 38 0 l 38 28 m 569 836 q 503 850 535 836 q 429 890 471 864 q 369 924 393 913 q 322 935 346 935 q 243 867 268 935 l 206 872 q 222 919 206 881 q 278 990 239 957 q 379 1024 317 1024 q 446 1010 414 1024 q 519 969 478 996 q 579 936 556 947 q 626 925 603 925 q 706 993 681 925 l 743 988 q 726 941 743 979 q 671 869 710 903 q 569 836 632 836 z "},"o":{"ha":839,"x_min":60,"x_max":779,"o":"m 419 -14 q 238 33 319 -14 q 108 165 156 79 q 60 360 60 250 q 108 554 60 469 q 238 685 156 639 q 419 732 319 732 q 601 685 519 732 q 731 554 683 639 q 779 360 779 469 q 731 165 779 250 q 601 33 683 79 q 419 -14 519 -14 m 419 17 q 574 92 522 17 q 626 290 626 167 l 626 429 q 574 627 626 553 q 419 701 522 701 q 265 627 317 701 q 213 429 213 553 l 213 290 q 265 92 213 167 q 419 17 317 17 z "},"ó":{"ha":836,"x_min":60,"x_max":779,"o":"m 419 -14 q 238 33 319 -14 q 108 165 156 79 q 60 360 60 250 q 108 554 60 469 q 238 685 156 639 q 419 732 319 732 q 601 685 519 732 q 731 554 683 639 q 779 360 779 469 q 731 165 779 250 q 601 33 683 79 q 419 -14 519 -14 m 419 17 q 574 92 522 17 q 626 290 626 167 l 626 429 q 574 627 626 553 q 419 701 522 701 q 265 627 317 701 q 213 429 213 553 l 213 290 q 265 92 213 167 q 419 17 317 17 m 400 810 l 503 1029 q 526 1057 510 1046 q 563 1068 543 1068 q 608 1049 589 1068 q 628 1003 628 1029 q 604 954 628 971 l 422 793 l 400 810 z "},"ô":{"ha":836,"x_min":60,"x_max":779,"o":"m 419 -14 q 238 33 319 -14 q 108 165 156 79 q 60 360 60 250 q 108 554 60 469 q 238 685 156 639 q 419 732 319 732 q 601 685 519 732 q 731 554 683 639 q 779 360 779 469 q 731 165 779 250 q 601 33 683 79 q 419 -14 519 -14 m 419 17 q 574 92 522 17 q 626 290 626 167 l 626 429 q 574 627 626 553 q 419 701 522 701 q 265 627 317 701 q 213 429 213 553 l 213 290 q 265 92 213 167 q 419 17 317 17 m 256 818 l 226 839 l 393 1054 l 447 1054 l 614 839 l 585 818 l 419 949 l 256 818 z "},"ố":{"ha":839,"x_min":60,"x_max":822,"o":"m 419 -14 q 238 33 319 -14 q 108 165 156 79 q 60 360 60 250 q 108 554 60 469 q 238 685 156 639 q 419 732 319 732 q 601 685 519 732 q 731 554 683 639 q 779 360 779 469 q 731 165 779 250 q 601 33 683 79 q 419 -14 519 -14 m 419 17 q 574 92 522 17 q 626 290 626 167 l 626 429 q 574 627 626 553 q 419 701 522 701 q 265 627 317 701 q 213 429 213 553 l 213 290 q 265 92 213 167 q 419 17 317 17 m 257 818 l 228 839 l 394 1054 l 449 1054 l 615 839 l 586 818 l 421 949 l 257 818 m 594 967 l 697 1186 q 721 1214 704 1203 q 757 1225 738 1225 q 803 1206 783 1225 q 822 1160 822 1186 q 799 1111 822 1128 l 617 950 l 594 967 z "},"ộ":{"ha":839,"x_min":60,"x_max":779,"o":"m 419 -14 q 238 33 319 -14 q 108 165 156 79 q 60 360 60 250 q 108 554 60 469 q 238 685 156 639 q 419 732 319 732 q 601 685 519 732 q 731 554 683 639 q 779 360 779 469 q 731 165 779 250 q 601 33 683 79 q 419 -14 519 -14 m 419 17 q 574 92 522 17 q 626 290 626 167 l 626 429 q 574 627 626 553 q 419 701 522 701 q 265 627 317 701 q 213 429 213 553 l 213 290 q 265 92 213 167 q 419 17 317 17 m 421 -232 q 372 -212 393 -232 q 351 -164 351 -192 q 372 -117 351 -136 q 421 -97 393 -97 q 468 -117 449 -97 q 488 -164 488 -136 q 468 -212 488 -192 q 421 -232 449 -232 m 257 818 l 228 839 l 394 1054 l 449 1054 l 615 839 l 586 818 l 421 949 l 257 818 z "},"ồ":{"ha":839,"x_min":60,"x_max":779,"o":"m 419 -14 q 238 33 319 -14 q 108 165 156 79 q 60 360 60 250 q 108 554 60 469 q 238 685 156 639 q 419 732 319 732 q 601 685 519 732 q 731 554 683 639 q 779 360 779 469 q 731 165 779 250 q 601 33 683 79 q 419 -14 519 -14 m 419 17 q 574 92 522 17 q 626 290 626 167 l 626 429 q 574 627 626 553 q 419 701 522 701 q 265 627 317 701 q 213 429 213 553 l 213 290 q 265 92 213 167 q 419 17 317 17 m 257 818 l 228 839 l 394 1054 l 449 1054 l 615 839 l 586 818 l 421 949 l 257 818 m 436 1182 q 413 1231 413 1201 q 432 1276 413 1257 q 478 1296 451 1296 q 514 1285 497 1296 q 539 1257 531 1274 l 640 1038 l 618 1021 l 436 1182 z "},"ổ":{"ha":839,"x_min":60,"x_max":779,"o":"m 419 -14 q 238 33 319 -14 q 108 165 156 79 q 60 360 60 250 q 108 554 60 469 q 238 685 156 639 q 419 732 319 732 q 601 685 519 732 q 731 554 683 639 q 779 360 779 469 q 731 165 779 250 q 601 33 683 79 q 419 -14 519 -14 m 419 17 q 574 92 522 17 q 626 290 626 167 l 626 429 q 574 627 626 553 q 419 701 522 701 q 265 627 317 701 q 213 429 213 553 l 213 290 q 265 92 213 167 q 419 17 317 17 m 257 818 l 228 839 l 394 1054 l 449 1054 l 615 839 l 586 818 l 421 949 l 257 818 m 604 1000 q 609 1023 604 1014 q 625 1046 614 1032 q 651 1084 642 1064 q 660 1142 660 1104 q 643 1224 660 1201 q 596 1247 626 1247 q 545 1232 567 1247 q 524 1193 524 1217 q 553 1149 524 1164 q 534 1118 553 1129 q 496 1107 515 1107 q 465 1120 478 1107 q 451 1156 451 1133 q 487 1243 451 1208 q 597 1278 522 1278 q 746 1144 746 1278 q 726 1081 746 1101 q 671 1042 706 1060 q 655 1033 668 1040 q 635 1017 642 1025 q 629 1000 629 1010 l 604 1000 z "},"ỗ":{"ha":839,"x_min":60,"x_max":779,"o":"m 419 -14 q 238 33 319 -14 q 108 165 156 79 q 60 360 60 250 q 108 554 60 469 q 238 685 156 639 q 419 732 319 732 q 601 685 519 732 q 731 554 683 639 q 779 360 779 469 q 731 165 779 250 q 601 33 683 79 q 419 -14 519 -14 m 419 17 q 574 92 522 17 q 626 290 626 167 l 626 429 q 574 627 626 553 q 419 701 522 701 q 265 627 317 701 q 213 429 213 553 l 213 290 q 265 92 213 167 q 419 17 317 17 m 257 818 l 228 839 l 394 1054 l 449 1054 l 615 839 l 586 818 l 421 949 l 257 818 m 533 1081 q 467 1094 499 1081 q 393 1135 435 1108 q 333 1168 357 1157 q 286 1179 310 1179 q 207 1111 232 1179 l 169 1117 q 186 1163 169 1125 q 242 1235 203 1201 q 343 1268 281 1268 q 410 1254 378 1268 q 483 1214 442 1240 q 543 1181 519 1192 q 590 1169 567 1169 q 669 1238 644 1169 l 707 1232 q 690 1185 707 1224 q 635 1114 674 1147 q 533 1081 596 1081 z "},"ö":{"ha":836,"x_min":60,"x_max":779,"o":"m 419 -14 q 238 33 319 -14 q 108 165 156 79 q 60 360 60 250 q 108 554 60 469 q 238 685 156 639 q 419 732 319 732 q 601 685 519 732 q 731 554 683 639 q 779 360 779 469 q 731 165 779 250 q 601 33 683 79 q 419 -14 519 -14 m 419 17 q 574 92 522 17 q 626 290 626 167 l 626 429 q 574 627 626 553 q 419 701 522 701 q 265 627 317 701 q 213 429 213 553 l 213 290 q 265 92 213 167 q 419 17 317 17 m 292 847 q 233 871 257 847 q 208 929 208 894 q 233 988 208 964 q 292 1011 257 1011 q 350 988 326 1011 q 374 929 374 964 q 350 871 374 894 q 292 847 326 847 m 549 847 q 490 871 514 847 q 467 929 467 894 q 490 988 467 964 q 549 1011 514 1011 q 607 988 583 1011 q 631 929 631 964 q 607 871 631 894 q 549 847 583 847 z "},"ọ":{"ha":839,"x_min":60,"x_max":779,"o":"m 419 -14 q 238 33 319 -14 q 108 165 156 79 q 60 360 60 250 q 108 554 60 469 q 238 685 156 639 q 419 732 319 732 q 601 685 519 732 q 731 554 683 639 q 779 360 779 469 q 731 165 779 250 q 601 33 683 79 q 419 -14 519 -14 m 419 17 q 574 92 522 17 q 626 290 626 167 l 626 429 q 574 627 626 553 q 419 701 522 701 q 265 627 317 701 q 213 429 213 553 l 213 290 q 265 92 213 167 q 419 17 317 17 m 421 -232 q 372 -212 393 -232 q 351 -164 351 -192 q 372 -117 351 -136 q 421 -97 393 -97 q 468 -117 449 -97 q 488 -164 488 -136 q 468 -212 488 -192 q 421 -232 449 -232 z "},"ò":{"ha":836,"x_min":60,"x_max":779,"o":"m 419 -14 q 238 33 319 -14 q 108 165 156 79 q 60 360 60 250 q 108 554 60 469 q 238 685 156 639 q 419 732 319 732 q 601 685 519 732 q 731 554 683 639 q 779 360 779 469 q 731 165 779 250 q 601 33 683 79 q 419 -14 519 -14 m 419 17 q 574 92 522 17 q 626 290 626 167 l 626 429 q 574 627 626 553 q 419 701 522 701 q 265 627 317 701 q 213 429 213 553 l 213 290 q 265 92 213 167 q 419 17 317 17 m 244 954 q 221 1003 221 974 q 240 1049 221 1029 q 286 1068 260 1068 q 322 1057 306 1068 q 347 1029 339 1046 l 449 810 l 426 793 l 244 954 z "},"ỏ":{"ha":839,"x_min":60,"x_max":779,"o":"m 419 -14 q 238 33 319 -14 q 108 165 156 79 q 60 360 60 250 q 108 554 60 469 q 238 685 156 639 q 419 732 319 732 q 601 685 519 732 q 731 554 683 639 q 779 360 779 469 q 731 165 779 250 q 601 33 683 79 q 419 -14 519 -14 m 419 17 q 574 92 522 17 q 626 290 626 167 l 626 429 q 574 627 626 553 q 419 701 522 701 q 265 627 317 701 q 213 429 213 553 l 213 290 q 265 92 213 167 q 419 17 317 17 m 425 785 q 430 808 425 799 q 446 831 435 817 q 472 869 463 849 q 481 926 481 889 q 464 1009 481 986 q 417 1032 447 1032 q 366 1017 388 1032 q 344 978 344 1001 q 374 933 344 949 q 355 903 374 914 q 317 892 336 892 q 285 905 299 892 q 272 940 272 918 q 308 1028 272 993 q 418 1063 343 1063 q 567 929 567 1063 q 547 865 567 886 q 492 826 526 844 q 476 817 489 825 q 456 802 463 810 q 450 785 450 794 l 425 785 z "},"ơ":{"ha":839,"x_min":60,"x_max":849,"o":"m 776 856 q 831 836 813 856 q 849 786 849 817 q 839 741 849 764 q 811 700 829 718 q 668 636 747 639 q 750 515 721 586 q 779 360 779 444 q 731 165 779 250 q 601 33 683 79 q 419 -14 519 -14 q 238 33 319 -14 q 108 165 156 79 q 60 360 60 250 q 108 554 60 469 q 238 685 156 639 q 419 732 319 732 q 617 676 529 732 q 671 686 646 676 q 713 713 696 696 q 718 726 718 718 q 703 764 718 743 q 692 799 692 782 q 713 839 692 822 q 776 856 735 856 m 626 429 q 574 627 626 553 q 419 701 522 701 q 265 627 317 701 q 213 429 213 553 l 213 290 q 265 92 213 167 q 419 17 317 17 q 574 92 522 17 q 626 290 626 167 l 626 429 z "},"ớ":{"ha":839,"x_min":60,"x_max":849,"o":"m 776 856 q 831 836 813 856 q 849 786 849 817 q 839 741 849 764 q 811 700 829 718 q 668 636 747 639 q 750 515 721 586 q 779 360 779 444 q 731 165 779 250 q 601 33 683 79 q 419 -14 519 -14 q 238 33 319 -14 q 108 165 156 79 q 60 360 60 250 q 108 554 60 469 q 238 685 156 639 q 419 732 319 732 q 617 676 529 732 q 671 686 646 676 q 713 713 696 696 q 718 726 718 718 q 703 764 718 743 q 692 799 692 782 q 713 839 692 822 q 776 856 735 856 m 626 429 q 574 627 626 553 q 419 701 522 701 q 265 627 317 701 q 213 429 213 553 l 213 290 q 265 92 213 167 q 419 17 317 17 q 574 92 522 17 q 626 290 626 167 l 626 429 m 396 810 l 499 1029 q 522 1057 506 1046 q 558 1068 539 1068 q 604 1049 585 1068 q 624 1003 624 1029 q 600 954 624 971 l 418 793 l 396 810 z "},"ợ":{"ha":839,"x_min":60,"x_max":849,"o":"m 776 856 q 831 836 813 856 q 849 786 849 817 q 839 741 849 764 q 811 700 829 718 q 668 636 747 639 q 750 515 721 586 q 779 360 779 444 q 731 165 779 250 q 601 33 683 79 q 419 -14 519 -14 q 238 33 319 -14 q 108 165 156 79 q 60 360 60 250 q 108 554 60 469 q 238 685 156 639 q 419 732 319 732 q 617 676 529 732 q 671 686 646 676 q 713 713 696 696 q 718 726 718 718 q 703 764 718 743 q 692 799 692 782 q 713 839 692 822 q 776 856 735 856 m 626 429 q 574 627 626 553 q 419 701 522 701 q 265 627 317 701 q 213 429 213 553 l 213 290 q 265 92 213 167 q 419 17 317 17 q 574 92 522 17 q 626 290 626 167 l 626 429 m 421 -232 q 372 -212 393 -232 q 351 -164 351 -192 q 372 -117 351 -136 q 421 -97 393 -97 q 468 -117 449 -97 q 488 -164 488 -136 q 468 -212 488 -192 q 421 -232 449 -232 z "},"ờ":{"ha":839,"x_min":60,"x_max":849,"o":"m 776 856 q 831 836 813 856 q 849 786 849 817 q 839 741 849 764 q 811 700 829 718 q 668 636 747 639 q 750 515 721 586 q 779 360 779 444 q 731 165 779 250 q 601 33 683 79 q 419 -14 519 -14 q 238 33 319 -14 q 108 165 156 79 q 60 360 60 250 q 108 554 60 469 q 238 685 156 639 q 419 732 319 732 q 617 676 529 732 q 671 686 646 676 q 713 713 696 696 q 718 726 718 718 q 703 764 718 743 q 692 799 692 782 q 713 839 692 822 q 776 856 735 856 m 626 429 q 574 627 626 553 q 419 701 522 701 q 265 627 317 701 q 213 429 213 553 l 213 290 q 265 92 213 167 q 419 17 317 17 q 574 92 522 17 q 626 290 626 167 l 626 429 m 243 954 q 219 1003 219 974 q 239 1049 219 1029 q 285 1068 258 1068 q 321 1057 304 1068 q 346 1029 338 1046 l 447 810 l 425 793 l 243 954 z "},"ở":{"ha":839,"x_min":60,"x_max":849,"o":"m 776 856 q 831 836 813 856 q 849 786 849 817 q 839 741 849 764 q 811 700 829 718 q 668 636 747 639 q 750 515 721 586 q 779 360 779 444 q 731 165 779 250 q 601 33 683 79 q 419 -14 519 -14 q 238 33 319 -14 q 108 165 156 79 q 60 360 60 250 q 108 554 60 469 q 238 685 156 639 q 419 732 319 732 q 617 676 529 732 q 671 686 646 676 q 713 713 696 696 q 718 726 718 718 q 703 764 718 743 q 692 799 692 782 q 713 839 692 822 q 776 856 735 856 m 626 429 q 574 627 626 553 q 419 701 522 701 q 265 627 317 701 q 213 429 213 553 l 213 290 q 265 92 213 167 q 419 17 317 17 q 574 92 522 17 q 626 290 626 167 l 626 429 m 425 785 q 430 808 425 799 q 446 831 435 817 q 472 869 463 849 q 481 926 481 889 q 464 1009 481 986 q 417 1032 447 1032 q 366 1017 388 1032 q 344 978 344 1001 q 374 933 344 949 q 355 903 374 914 q 317 892 336 892 q 285 905 299 892 q 272 940 272 918 q 308 1028 272 993 q 418 1063 343 1063 q 567 929 567 1063 q 547 865 567 886 q 492 826 526 844 q 476 817 489 825 q 456 802 463 810 q 450 785 450 794 l 425 785 z "},"ỡ":{"ha":839,"x_min":60,"x_max":849,"o":"m 776 856 q 831 836 813 856 q 849 786 849 817 q 839 741 849 764 q 811 700 829 718 q 668 636 747 639 q 750 515 721 586 q 779 360 779 444 q 731 165 779 250 q 601 33 683 79 q 419 -14 519 -14 q 238 33 319 -14 q 108 165 156 79 q 60 360 60 250 q 108 554 60 469 q 238 685 156 639 q 419 732 319 732 q 617 676 529 732 q 671 686 646 676 q 713 713 696 696 q 718 726 718 718 q 703 764 718 743 q 692 799 692 782 q 713 839 692 822 q 776 856 735 856 m 626 429 q 574 627 626 553 q 419 701 522 701 q 265 627 317 701 q 213 429 213 553 l 213 290 q 265 92 213 167 q 419 17 317 17 q 574 92 522 17 q 626 290 626 167 l 626 429 m 515 836 q 449 850 481 836 q 375 890 417 864 q 315 924 339 913 q 268 935 292 935 q 189 867 214 935 l 151 872 q 168 919 151 881 q 224 990 185 957 q 325 1024 263 1024 q 392 1010 360 1024 q 465 969 424 996 q 525 936 501 947 q 572 925 549 925 q 651 993 626 925 l 689 988 q 672 941 689 979 q 617 869 656 903 q 515 836 578 836 z "},"ø":{"ha":839,"x_min":60,"x_max":779,"o":"m 240 31 q 108 162 157 76 q 60 360 60 247 q 108 554 60 469 q 238 685 156 639 q 419 732 319 732 q 549 710 485 732 l 604 835 l 660 835 l 596 689 q 730 558 681 643 q 779 360 779 472 q 731 165 779 250 q 601 33 683 79 q 419 -14 519 -14 q 286 10 349 -14 l 236 -103 l 181 -103 l 240 31 m 528 672 q 419 701 481 701 q 265 627 317 701 q 213 429 213 553 l 213 290 q 268 86 213 160 l 528 672 m 419 17 q 574 92 522 17 q 626 290 626 167 l 626 429 q 568 636 626 565 l 307 49 q 419 17 354 17 z "},"õ":{"ha":836,"x_min":60,"x_max":779,"o":"m 419 -14 q 238 33 319 -14 q 108 165 156 79 q 60 360 60 250 q 108 554 60 469 q 238 685 156 639 q 419 732 319 732 q 601 685 519 732 q 731 554 683 639 q 779 360 779 469 q 731 165 779 250 q 601 33 683 79 q 419 -14 519 -14 m 419 17 q 574 92 522 17 q 626 290 626 167 l 626 429 q 574 627 626 553 q 419 701 522 701 q 265 627 317 701 q 213 429 213 553 l 213 290 q 265 92 213 167 q 419 17 317 17 m 526 836 q 460 850 492 836 q 386 890 428 864 q 326 924 350 913 q 279 935 303 935 q 200 867 225 935 l 163 872 q 179 919 163 881 q 235 990 196 957 q 336 1024 274 1024 q 403 1010 371 1024 q 476 969 435 996 q 536 936 513 947 q 583 925 560 925 q 663 993 638 925 l 700 988 q 683 941 700 979 q 628 869 667 903 q 526 836 589 836 z "},"œ":{"ha":1347,"x_min":60,"x_max":1292,"o":"m 419 -14 q 238 33 319 -14 q 108 165 156 79 q 60 360 60 250 q 108 554 60 469 q 238 685 156 639 q 419 732 319 732 q 579 697 506 732 q 703 597 653 663 q 825 697 751 663 q 986 732 899 732 q 1142 693 1074 732 q 1251 585 1211 654 q 1292 428 1290 517 l 781 428 l 781 290 q 835 92 781 168 q 993 17 889 17 q 1163 71 1089 17 q 1253 211 1236 125 l 1285 211 q 1186 47 1265 108 q 993 -14 1107 -14 q 828 22 904 -14 q 703 122 753 57 q 580 22 654 57 q 419 -14 506 -14 m 419 17 q 574 92 522 17 q 626 290 626 167 l 626 429 q 574 627 626 553 q 419 701 522 701 q 265 627 317 701 q 213 429 213 553 l 213 290 q 265 92 213 167 q 419 17 317 17 m 1139 463 q 1101 642 1139 583 q 985 701 1063 701 q 840 636 892 701 q 782 463 789 571 l 1139 463 z "},"p":{"ha":892,"x_min":29,"x_max":832,"o":"m 29 -365 l 126 -351 l 126 676 l 29 690 l 29 718 l 265 718 l 265 572 q 359 690 300 647 q 500 732 418 732 q 674 685 599 732 q 790 555 749 639 q 832 358 832 471 q 790 162 832 246 q 674 32 749 78 q 500 -14 599 -14 q 359 28 418 -14 q 265 144 300 71 l 265 -351 l 396 -365 l 396 -393 l 29 -393 l 29 -365 m 486 21 q 679 289 679 21 l 679 428 q 486 697 679 697 q 375 662 425 697 q 296 567 325 626 q 265 438 267 507 l 265 289 q 294 156 265 218 q 373 58 322 94 q 486 21 424 21 z "},"þ":{"ha":869,"x_min":10,"x_max":808,"o":"m 10 -365 l 107 -351 l 107 1069 l 10 1083 l 10 1111 l 246 1111 l 246 581 q 339 692 281 651 q 476 732 397 732 q 650 685 575 732 q 767 555 725 639 q 808 358 808 471 q 767 162 808 246 q 650 32 725 78 q 476 -14 575 -14 q 339 26 397 -14 q 246 135 281 65 l 246 -351 l 376 -365 l 376 -393 l 10 -393 l 10 -365 m 463 21 q 656 289 656 21 l 656 428 q 463 697 656 697 q 320 635 379 697 q 246 481 261 574 l 246 236 q 320 82 261 143 q 463 21 379 21 z "},"q":{"ha":892,"x_min":60,"x_max":863,"o":"m 461 -365 l 626 -351 l 626 144 q 532 28 592 71 q 392 -14 472 -14 q 218 32 293 -14 q 101 162 143 78 q 60 358 60 246 q 101 555 60 471 q 218 685 143 639 q 392 732 293 732 q 532 690 472 732 q 626 572 592 647 l 626 718 l 863 718 l 863 690 l 765 676 l 765 -351 l 863 -365 l 863 -393 l 461 -393 l 461 -365 m 406 21 q 516 56 467 21 q 595 151 565 92 q 626 278 625 210 l 626 438 q 595 567 625 507 q 516 662 565 626 q 406 697 467 697 q 213 428 213 697 l 213 289 q 406 21 213 21 z "},"r":{"ha":614,"x_min":38,"x_max":604,"o":"m 38 28 l 135 42 l 135 678 l 38 692 l 38 719 l 274 719 l 274 613 q 471 732 361 732 q 564 705 524 732 q 604 628 604 678 q 581 567 604 592 q 518 543 557 543 q 446 578 474 543 q 461 619 461 597 q 445 658 461 643 q 403 672 429 672 q 343 645 374 672 q 274 561 313 618 l 274 42 l 385 28 l 385 0 l 38 0 l 38 28 z "},"s":{"ha":661,"x_min":67,"x_max":592,"o":"m 333 -14 q 143 35 219 -14 q 67 161 67 83 q 88 224 67 201 q 146 247 110 247 q 193 233 174 247 q 221 194 213 219 q 190 124 190 161 q 229 49 190 81 q 333 17 268 17 q 476 56 421 17 q 532 163 532 96 q 508 221 532 201 q 417 265 485 240 l 207 342 q 83 507 83 386 q 151 669 83 606 q 339 732 219 732 q 508 687 438 732 q 578 558 578 642 q 560 505 578 525 q 513 485 542 485 q 465 501 483 485 q 446 544 446 517 q 471 574 464 558 q 478 613 478 590 q 444 676 478 651 q 339 701 410 701 q 234 683 278 701 q 168 633 190 664 q 146 571 146 603 q 170 518 146 538 q 260 475 194 499 l 454 406 q 557 336 522 381 q 592 221 592 292 q 528 53 592 119 q 333 -14 464 -14 z "},"ß":{"ha":900,"x_min":29,"x_max":864,"o":"m 608 -14 q 414 19 479 -14 q 349 117 349 53 q 373 180 349 156 q 438 204 397 204 q 484 188 463 204 q 514 147 506 172 q 490 88 490 119 q 522 32 490 51 q 608 13 554 13 q 714 33 667 13 q 788 87 761 53 q 815 163 815 121 q 797 228 815 204 q 748 265 778 253 q 664 293 718 278 l 539 328 q 401 406 447 354 q 356 547 356 457 q 393 658 356 619 q 496 729 431 697 q 586 803 564 761 q 608 933 608 846 q 569 1068 608 1022 q 454 1114 529 1114 q 313 1048 361 1114 q 265 840 265 982 l 265 0 l 29 0 l 29 28 l 126 42 l 126 781 q 208 1050 126 961 q 454 1139 289 1139 q 673 1083 599 1139 q 747 933 747 1028 q 724 842 747 878 q 665 783 701 806 q 556 726 628 760 l 510 704 q 433 653 458 679 q 407 593 407 628 q 447 519 407 544 q 554 476 486 494 l 696 440 q 864 221 864 397 q 803 51 864 117 q 608 -14 743 -14 z "},"t":{"ha":482,"x_min":25,"x_max":475,"o":"m 325 -14 q 178 32 233 -14 q 124 178 124 78 l 124 678 l 25 692 l 25 719 l 124 719 l 124 835 l 263 869 l 263 719 l 443 719 l 443 692 l 263 678 l 263 181 q 368 33 263 33 q 410 40 390 33 q 442 54 431 47 q 457 64 454 61 l 475 42 q 325 -14 413 -14 z "},"u":{"ha":878,"x_min":24,"x_max":843,"o":"m 336 -14 q 178 36 236 -14 q 121 185 121 86 l 121 678 l 24 692 l 24 719 l 260 719 l 260 188 q 289 76 260 117 q 379 36 318 36 q 502 78 443 36 q 607 183 561 121 l 607 678 l 510 692 l 510 719 l 746 719 l 746 42 l 843 28 l 843 0 l 607 0 l 607 133 q 487 25 557 64 q 336 -14 417 -14 z "},"ú":{"ha":871,"x_min":24,"x_max":843,"o":"m 336 -14 q 178 36 236 -14 q 121 185 121 86 l 121 678 l 24 692 l 24 719 l 260 719 l 260 188 q 289 76 260 117 q 379 36 318 36 q 502 78 443 36 q 607 183 561 121 l 607 678 l 510 692 l 510 719 l 746 719 l 746 42 l 843 28 l 843 0 l 607 0 l 607 133 q 487 25 557 64 q 336 -14 417 -14 m 347 810 l 450 1029 q 474 1057 457 1046 q 510 1068 490 1068 q 556 1049 536 1068 q 575 1003 575 1029 q 551 954 575 971 l 369 793 l 347 810 z "},"û":{"ha":871,"x_min":24,"x_max":843,"o":"m 336 -14 q 178 36 236 -14 q 121 185 121 86 l 121 678 l 24 692 l 24 719 l 260 719 l 260 188 q 289 76 260 117 q 379 36 318 36 q 502 78 443 36 q 607 183 561 121 l 607 678 l 510 692 l 510 719 l 746 719 l 746 42 l 843 28 l 843 0 l 607 0 l 607 133 q 487 25 557 64 q 336 -14 417 -14 m 265 818 l 236 839 l 403 1054 l 457 1054 l 624 839 l 594 818 l 429 949 l 265 818 z "},"ü":{"ha":871,"x_min":24,"x_max":843,"o":"m 336 -14 q 178 36 236 -14 q 121 185 121 86 l 121 678 l 24 692 l 24 719 l 260 719 l 260 188 q 289 76 260 117 q 379 36 318 36 q 502 78 443 36 q 607 183 561 121 l 607 678 l 510 692 l 510 719 l 746 719 l 746 42 l 843 28 l 843 0 l 607 0 l 607 133 q 487 25 557 64 q 336 -14 417 -14 m 304 847 q 245 871 269 847 q 221 929 221 894 q 245 988 221 964 q 304 1011 269 1011 q 363 988 339 1011 q 386 929 386 964 q 363 871 386 894 q 304 847 339 847 m 561 847 q 503 871 526 847 q 479 929 479 894 q 503 988 479 964 q 561 1011 526 1011 q 619 988 596 1011 q 643 929 643 964 q 619 871 643 894 q 561 847 596 847 z "},"ụ":{"ha":878,"x_min":24,"x_max":843,"o":"m 336 -14 q 178 36 236 -14 q 121 185 121 86 l 121 678 l 24 692 l 24 719 l 260 719 l 260 188 q 289 76 260 117 q 379 36 318 36 q 502 78 443 36 q 607 183 561 121 l 607 678 l 510 692 l 510 719 l 746 719 l 746 42 l 843 28 l 843 0 l 607 0 l 607 133 q 487 25 557 64 q 336 -14 417 -14 m 440 -232 q 392 -212 413 -232 q 371 -164 371 -192 q 392 -117 371 -136 q 440 -97 413 -97 q 488 -117 468 -97 q 507 -164 507 -136 q 488 -212 507 -192 q 440 -232 468 -232 z "},"ù":{"ha":871,"x_min":24,"x_max":843,"o":"m 336 -14 q 178 36 236 -14 q 121 185 121 86 l 121 678 l 24 692 l 24 719 l 260 719 l 260 188 q 289 76 260 117 q 379 36 318 36 q 502 78 443 36 q 607 183 561 121 l 607 678 l 510 692 l 510 719 l 746 719 l 746 42 l 843 28 l 843 0 l 607 0 l 607 133 q 487 25 557 64 q 336 -14 417 -14 m 246 954 q 222 1003 222 974 q 242 1049 222 1029 q 288 1068 261 1068 q 324 1057 307 1068 q 349 1029 340 1046 l 450 810 l 428 793 l 246 954 z "},"ủ":{"ha":878,"x_min":24,"x_max":843,"o":"m 336 -14 q 178 36 236 -14 q 121 185 121 86 l 121 678 l 24 692 l 24 719 l 260 719 l 260 188 q 289 76 260 117 q 379 36 318 36 q 502 78 443 36 q 607 183 561 121 l 607 678 l 510 692 l 510 719 l 746 719 l 746 42 l 843 28 l 843 0 l 607 0 l 607 133 q 487 25 557 64 q 336 -14 417 -14 m 444 785 q 449 808 444 799 q 465 831 454 817 q 491 869 482 849 q 500 926 500 889 q 483 1009 500 986 q 436 1032 467 1032 q 385 1017 407 1032 q 364 978 364 1001 q 393 933 364 949 q 374 903 393 914 q 336 892 356 892 q 305 905 318 892 q 292 940 292 918 q 327 1028 292 993 q 438 1063 363 1063 q 586 929 586 1063 q 566 865 586 886 q 511 826 546 844 q 495 817 508 825 q 476 802 482 810 q 469 785 469 794 l 444 785 z "},"ư":{"ha":878,"x_min":24,"x_max":931,"o":"m 858 854 q 913 835 894 854 q 931 785 931 815 q 921 740 931 763 q 893 699 911 717 q 746 635 829 638 l 746 42 l 843 28 l 843 0 l 607 0 l 607 133 q 487 25 557 64 q 336 -14 417 -14 q 178 36 236 -14 q 121 185 121 86 l 121 678 l 24 692 l 24 719 l 260 719 l 260 188 q 289 76 260 117 q 379 36 318 36 q 502 78 443 36 q 607 183 561 121 l 607 678 l 510 692 l 510 719 l 746 719 l 746 682 q 794 711 776 693 q 800 725 800 717 q 785 763 800 742 q 774 797 774 781 q 795 838 774 821 q 858 854 817 854 z "},"ứ":{"ha":878,"x_min":24,"x_max":931,"o":"m 858 854 q 913 835 894 854 q 931 785 931 815 q 921 740 931 763 q 893 699 911 717 q 746 635 829 638 l 746 42 l 843 28 l 843 0 l 607 0 l 607 133 q 487 25 557 64 q 336 -14 417 -14 q 178 36 236 -14 q 121 185 121 86 l 121 678 l 24 692 l 24 719 l 260 719 l 260 188 q 289 76 260 117 q 379 36 318 36 q 502 78 443 36 q 607 183 561 121 l 607 678 l 510 692 l 510 719 l 746 719 l 746 682 q 794 711 776 693 q 800 725 800 717 q 785 763 800 742 q 774 797 774 781 q 795 838 774 821 q 858 854 817 854 m 415 810 l 518 1029 q 542 1057 525 1046 q 578 1068 558 1068 q 624 1049 604 1068 q 643 1003 643 1029 q 619 954 643 971 l 438 793 l 415 810 z "},"ự":{"ha":878,"x_min":24,"x_max":931,"o":"m 858 854 q 913 835 894 854 q 931 785 931 815 q 921 740 931 763 q 893 699 911 717 q 746 635 829 638 l 746 42 l 843 28 l 843 0 l 607 0 l 607 133 q 487 25 557 64 q 336 -14 417 -14 q 178 36 236 -14 q 121 185 121 86 l 121 678 l 24 692 l 24 719 l 260 719 l 260 188 q 289 76 260 117 q 379 36 318 36 q 502 78 443 36 q 607 183 561 121 l 607 678 l 510 692 l 510 719 l 746 719 l 746 682 q 794 711 776 693 q 800 725 800 717 q 785 763 800 742 q 774 797 774 781 q 795 838 774 821 q 858 854 817 854 m 396 -272 q 347 -252 368 -272 q 326 -204 326 -232 q 347 -157 326 -176 q 396 -137 368 -137 q 443 -157 424 -137 q 463 -204 463 -176 q 443 -252 463 -232 q 396 -272 424 -272 z "},"ừ":{"ha":878,"x_min":24,"x_max":931,"o":"m 858 854 q 913 835 894 854 q 931 785 931 815 q 921 740 931 763 q 893 699 911 717 q 746 635 829 638 l 746 42 l 843 28 l 843 0 l 607 0 l 607 133 q 487 25 557 64 q 336 -14 417 -14 q 178 36 236 -14 q 121 185 121 86 l 121 678 l 24 692 l 24 719 l 260 719 l 260 188 q 289 76 260 117 q 379 36 318 36 q 502 78 443 36 q 607 183 561 121 l 607 678 l 510 692 l 510 719 l 746 719 l 746 682 q 794 711 776 693 q 800 725 800 717 q 785 763 800 742 q 774 797 774 781 q 795 838 774 821 q 858 854 817 854 m 263 954 q 239 1003 239 974 q 258 1049 239 1029 q 304 1068 278 1068 q 340 1057 324 1068 q 365 1029 357 1046 l 467 810 l 444 793 l 263 954 z "},"ử":{"ha":878,"x_min":24,"x_max":931,"o":"m 858 854 q 913 835 894 854 q 931 785 931 815 q 921 740 931 763 q 893 699 911 717 q 746 635 829 638 l 746 42 l 843 28 l 843 0 l 607 0 l 607 133 q 487 25 557 64 q 336 -14 417 -14 q 178 36 236 -14 q 121 185 121 86 l 121 678 l 24 692 l 24 719 l 260 719 l 260 188 q 289 76 260 117 q 379 36 318 36 q 502 78 443 36 q 607 183 561 121 l 607 678 l 510 692 l 510 719 l 746 719 l 746 682 q 794 711 776 693 q 800 725 800 717 q 785 763 800 742 q 774 797 774 781 q 795 838 774 821 q 858 854 817 854 m 444 785 q 449 808 444 799 q 465 831 454 817 q 491 869 482 849 q 500 926 500 889 q 483 1009 500 986 q 436 1032 467 1032 q 385 1017 407 1032 q 364 978 364 1001 q 393 933 364 949 q 374 903 393 914 q 336 892 356 892 q 305 905 318 892 q 292 940 292 918 q 327 1028 292 993 q 438 1063 363 1063 q 586 929 586 1063 q 566 865 586 886 q 511 826 546 844 q 495 817 508 825 q 476 802 482 810 q 469 785 469 794 l 444 785 z "},"ữ":{"ha":878,"x_min":24,"x_max":931,"o":"m 858 854 q 913 835 894 854 q 931 785 931 815 q 921 740 931 763 q 893 699 911 717 q 746 635 829 638 l 746 42 l 843 28 l 843 0 l 607 0 l 607 133 q 487 25 557 64 q 336 -14 417 -14 q 178 36 236 -14 q 121 185 121 86 l 121 678 l 24 692 l 24 719 l 260 719 l 260 188 q 289 76 260 117 q 379 36 318 36 q 502 78 443 36 q 607 183 561 121 l 607 678 l 510 692 l 510 719 l 746 719 l 746 682 q 794 711 776 693 q 800 725 800 717 q 785 763 800 742 q 774 797 774 781 q 795 838 774 821 q 858 854 817 854 m 535 836 q 468 850 500 836 q 394 890 436 864 q 335 924 358 913 q 288 935 311 935 q 208 867 233 935 l 171 872 q 188 919 171 881 q 243 990 204 957 q 344 1024 282 1024 q 411 1010 379 1024 q 485 969 443 996 q 544 936 521 947 q 592 925 568 925 q 671 993 646 925 l 708 988 q 692 941 708 979 q 636 869 675 903 q 535 836 597 836 z "},"ũ":{"ha":878,"x_min":24,"x_max":843,"o":"m 336 -14 q 178 36 236 -14 q 121 185 121 86 l 121 678 l 24 692 l 24 719 l 260 719 l 260 188 q 289 76 260 117 q 379 36 318 36 q 502 78 443 36 q 607 183 561 121 l 607 678 l 510 692 l 510 719 l 746 719 l 746 42 l 843 28 l 843 0 l 607 0 l 607 133 q 487 25 557 64 q 336 -14 417 -14 m 535 836 q 468 850 500 836 q 394 890 436 864 q 335 924 358 913 q 288 935 311 935 q 208 867 233 935 l 171 872 q 188 919 171 881 q 243 990 204 957 q 344 1024 282 1024 q 411 1010 379 1024 q 485 969 443 996 q 544 936 521 947 q 592 925 568 925 q 671 993 646 925 l 708 988 q 692 941 708 979 q 636 869 675 903 q 535 836 597 836 z "},"v":{"ha":736,"x_min":-19,"x_max":750,"o":"m 368 -28 l 71 678 l -19 692 l -19 719 l 326 719 l 326 692 l 226 674 l 436 151 l 624 656 l 501 690 l 501 718 l 750 718 l 750 690 l 663 657 l 407 -28 l 368 -28 z "},"w":{"ha":1142,"x_min":-19,"x_max":1156,"o":"m 368 -28 l 71 678 l -19 692 l -19 719 l 292 719 l 292 692 l 226 674 l 436 151 l 560 489 l 478 678 l 406 692 l 406 719 l 733 719 l 733 692 l 633 674 l 843 151 l 1031 654 l 914 690 l 914 718 l 1156 718 l 1156 690 l 1069 657 l 814 -28 l 775 -28 l 579 442 l 407 -28 l 368 -28 z "},"x":{"ha":801,"x_min":1,"x_max":806,"o":"m 717 40 l 806 28 l 806 0 l 467 0 l 467 28 l 550 42 l 358 304 l 154 60 l 267 28 l 267 0 l 18 0 l 18 28 l 111 63 l 336 336 l 86 679 l 1 692 l 1 719 l 340 719 l 340 692 l 253 676 l 426 439 l 613 658 l 503 690 l 503 718 l 758 718 l 758 690 l 657 654 l 449 407 l 717 40 z "},"y":{"ha":743,"x_min":-19,"x_max":757,"o":"m 164 -406 q 47 -369 92 -406 q 3 -272 3 -333 q 27 -205 3 -231 q 88 -179 51 -179 q 135 -190 114 -179 q 168 -224 156 -201 q 147 -285 147 -253 q 165 -331 147 -312 q 211 -349 183 -349 q 269 -326 244 -349 q 313 -249 293 -304 l 396 -10 l 74 676 l -19 690 l -19 718 l 326 718 l 326 690 l 229 674 l 461 178 l 626 656 l 507 690 l 507 718 l 757 718 l 757 690 l 663 656 l 351 -249 q 281 -368 322 -331 q 164 -406 240 -406 z "},"ý":{"ha":744,"x_min":-19,"x_max":757,"o":"m 164 -406 q 47 -369 92 -406 q 3 -272 3 -333 q 27 -205 3 -231 q 88 -179 51 -179 q 135 -190 114 -179 q 168 -224 156 -201 q 147 -285 147 -253 q 165 -331 147 -312 q 211 -349 183 -349 q 269 -326 244 -349 q 313 -249 293 -304 l 396 -10 l 74 676 l -19 690 l -19 718 l 326 718 l 326 690 l 229 674 l 461 178 l 626 656 l 507 690 l 507 718 l 757 718 l 757 690 l 663 656 l 351 -249 q 281 -368 322 -331 q 164 -406 240 -406 m 379 810 l 482 1029 q 506 1057 489 1046 q 542 1068 522 1068 q 588 1049 568 1068 q 607 1003 607 1029 q 583 954 607 971 l 401 793 l 379 810 z "},"ÿ":{"ha":744,"x_min":-19,"x_max":757,"o":"m 164 -406 q 47 -369 92 -406 q 3 -272 3 -333 q 27 -205 3 -231 q 88 -179 51 -179 q 135 -190 114 -179 q 168 -224 156 -201 q 147 -285 147 -253 q 165 -331 147 -312 q 211 -349 183 -349 q 269 -326 244 -349 q 313 -249 293 -304 l 396 -10 l 74 676 l -19 690 l -19 718 l 326 718 l 326 690 l 229 674 l 461 178 l 626 656 l 507 690 l 507 718 l 757 718 l 757 690 l 663 656 l 351 -249 q 281 -368 322 -331 q 164 -406 240 -406 m 278 847 q 219 871 243 847 q 194 929 194 894 q 219 988 194 964 q 278 1011 243 1011 q 336 988 313 1011 q 360 929 360 964 q 336 871 360 894 q 278 847 313 847 m 535 847 q 476 871 500 847 q 453 929 453 894 q 476 988 453 964 q 535 1011 500 1011 q 593 988 569 1011 q 617 929 617 964 q 593 871 617 894 q 535 847 569 847 z "},"ỵ":{"ha":743,"x_min":-19,"x_max":757,"o":"m 164 -406 q 47 -369 92 -406 q 3 -272 3 -333 q 27 -205 3 -231 q 88 -179 51 -179 q 135 -190 114 -179 q 168 -224 156 -201 q 147 -285 147 -253 q 165 -331 147 -312 q 211 -349 183 -349 q 269 -326 244 -349 q 313 -249 293 -304 l 396 -10 l 74 676 l -19 690 l -19 718 l 326 718 l 326 690 l 229 674 l 461 178 l 626 656 l 507 690 l 507 718 l 757 718 l 757 690 l 663 656 l 351 -249 q 281 -368 322 -331 q 164 -406 240 -406 m 540 -232 q 492 -212 513 -232 q 471 -164 471 -192 q 492 -117 471 -136 q 540 -97 513 -97 q 588 -117 568 -97 q 607 -164 607 -136 q 588 -212 607 -192 q 540 -232 568 -232 z "},"ỳ":{"ha":743,"x_min":-19,"x_max":757,"o":"m 164 -406 q 47 -369 92 -406 q 3 -272 3 -333 q 27 -205 3 -231 q 88 -179 51 -179 q 135 -190 114 -179 q 168 -224 156 -201 q 147 -285 147 -253 q 165 -331 147 -312 q 211 -349 183 -349 q 269 -326 244 -349 q 313 -249 293 -304 l 396 -10 l 74 676 l -19 690 l -19 718 l 326 718 l 326 690 l 229 674 l 461 178 l 626 656 l 507 690 l 507 718 l 757 718 l 757 690 l 663 656 l 351 -249 q 281 -368 322 -331 q 164 -406 240 -406 m 222 954 q 199 1003 199 974 q 218 1049 199 1029 q 264 1068 238 1068 q 300 1057 283 1068 q 325 1029 317 1046 l 426 810 l 404 793 l 222 954 z "},"ỷ":{"ha":743,"x_min":-19,"x_max":757,"o":"m 164 -406 q 47 -369 92 -406 q 3 -272 3 -333 q 27 -205 3 -231 q 88 -179 51 -179 q 135 -190 114 -179 q 168 -224 156 -201 q 147 -285 147 -253 q 165 -331 147 -312 q 211 -349 183 -349 q 269 -326 244 -349 q 313 -249 293 -304 l 396 -10 l 74 676 l -19 690 l -19 718 l 326 718 l 326 690 l 229 674 l 461 178 l 626 656 l 507 690 l 507 718 l 757 718 l 757 690 l 663 656 l 351 -249 q 281 -368 322 -331 q 164 -406 240 -406 m 404 785 q 409 808 404 799 q 425 831 414 817 q 451 869 442 849 q 460 926 460 889 q 443 1009 460 986 q 396 1032 426 1032 q 345 1017 367 1032 q 324 978 324 1001 q 353 933 324 949 q 334 903 353 914 q 296 892 315 892 q 265 905 278 892 q 251 940 251 918 q 287 1028 251 993 q 397 1063 322 1063 q 546 929 546 1063 q 526 865 546 886 q 471 826 506 844 q 455 817 468 825 q 435 802 442 810 q 429 785 429 794 l 404 785 z "},"ỹ":{"ha":743,"x_min":-19,"x_max":757,"o":"m 164 -406 q 47 -369 92 -406 q 3 -272 3 -333 q 27 -205 3 -231 q 88 -179 51 -179 q 135 -190 114 -179 q 168 -224 156 -201 q 147 -285 147 -253 q 165 -331 147 -312 q 211 -349 183 -349 q 269 -326 244 -349 q 313 -249 293 -304 l 396 -10 l 74 676 l -19 690 l -19 718 l 326 718 l 326 690 l 229 674 l 461 178 l 626 656 l 507 690 l 507 718 l 757 718 l 757 690 l 663 656 l 351 -249 q 281 -368 322 -331 q 164 -406 240 -406 m 494 836 q 428 850 460 836 q 354 890 396 864 q 294 924 318 913 q 247 935 271 935 q 168 867 193 935 l 131 872 q 147 919 131 881 q 203 990 164 957 q 304 1024 242 1024 q 371 1010 339 1024 q 444 969 403 996 q 504 936 481 947 q 551 925 528 925 q 631 993 606 925 l 668 988 q 651 941 668 979 q 596 869 635 903 q 494 836 557 836 z "},"z":{"ha":718,"x_min":54,"x_max":672,"o":"m 54 0 l 54 33 l 485 685 l 210 685 l 96 469 l 61 469 l 79 719 l 647 719 l 647 685 l 217 33 l 514 33 l 636 265 l 672 265 l 646 0 l 54 0 z "},"ª":{"ha":697,"x_min":60,"x_max":661,"o":"m 233 515 q 108 553 156 515 q 60 664 60 590 q 158 819 60 771 q 394 867 256 867 l 429 867 l 429 967 q 403 1054 429 1029 q 321 1079 378 1079 q 246 1063 275 1079 q 217 1017 217 1046 q 251 969 217 982 q 227 915 251 939 q 171 892 203 892 q 117 915 139 892 q 96 969 96 938 q 161 1078 96 1039 q 321 1118 226 1118 q 491 1077 428 1118 q 554 944 554 1036 l 554 601 q 590 565 554 565 q 614 574 604 565 q 624 600 624 583 l 661 600 q 632 538 661 560 q 554 515 603 515 q 478 538 513 515 q 433 606 444 561 q 351 539 403 563 q 233 515 300 515 m 281 568 q 378 609 335 568 q 429 718 422 650 l 429 826 l 394 826 q 252 783 310 826 q 194 664 194 740 q 217 593 194 618 q 281 568 239 568 z "},"º":{"ha":701,"x_min":53,"x_max":649,"o":"m 350 515 q 199 553 267 515 q 92 658 131 590 q 53 815 53 726 q 92 974 53 906 q 199 1081 131 1043 q 350 1118 267 1118 q 501 1081 433 1118 q 609 974 569 1043 q 649 815 649 906 q 609 658 649 726 q 501 553 569 590 q 350 515 433 515 m 350 553 q 472 608 433 553 q 511 760 511 664 l 511 872 q 472 1024 511 968 q 350 1079 433 1079 q 228 1024 267 1079 q 189 872 189 968 l 189 760 q 228 608 189 664 q 350 553 267 553 z "},"А":{"ha":999,"x_min":-39,"x_max":1028,"o":"m -39 0 l -39 29 l 97 85 l 499 1139 l 521 1139 l 900 50 l 1028 29 l 1028 0 l 619 0 l 619 29 l 733 47 l 615 376 l 246 376 l 133 85 l 258 29 l 258 0 l -39 0 m 257 406 l 606 406 l 439 894 l 257 406 z "},"Б":{"ha":1004,"x_min":56,"x_max":939,"o":"m 56 31 l 183 50 l 183 1061 l 56 1082 l 56 1111 l 850 1111 l 850 815 l 808 815 l 704 1076 l 336 1076 l 336 625 l 533 625 q 838 548 738 625 q 939 313 939 471 q 838 77 939 154 q 533 0 738 0 l 56 0 l 56 31 m 514 35 q 707 96 643 35 q 771 285 771 157 l 771 340 q 707 530 771 468 q 514 592 643 592 l 336 592 l 336 35 l 514 35 z "},"В":{"ha":1035,"x_min":56,"x_max":960,"o":"m 56 29 l 183 50 l 183 1061 l 56 1081 l 56 1111 l 479 1111 q 718 1083 629 1111 q 847 999 807 1056 q 888 851 888 943 q 635 596 888 651 l 635 589 q 874 497 789 568 q 960 300 960 426 q 848 74 960 147 q 546 0 736 0 l 56 0 l 56 29 m 490 600 q 661 663 601 600 q 721 840 721 725 l 721 849 q 479 1076 721 1076 l 336 1076 l 336 600 l 490 600 m 546 33 q 729 102 664 33 q 794 299 794 171 l 794 314 q 730 503 794 440 q 546 565 665 565 l 336 565 l 336 33 l 546 33 z "},"Г":{"ha":908,"x_min":56,"x_max":879,"o":"m 56 0 l 56 29 l 183 50 l 183 1056 l 56 1076 l 56 1111 l 879 1111 l 879 801 l 838 801 l 733 1076 l 336 1076 l 336 50 l 464 29 l 464 0 l 56 0 z "},"Ѓ":{"ha":908,"x_min":56,"x_max":879,"o":"m 56 0 l 56 29 l 183 50 l 183 1056 l 56 1076 l 56 1111 l 879 1111 l 879 801 l 838 801 l 733 1076 l 336 1076 l 336 50 l 464 29 l 464 0 l 56 0 m 338 1204 l 521 1363 q 565 1379 540 1379 q 612 1360 593 1379 q 631 1314 631 1340 q 617 1276 631 1293 q 583 1251 604 1258 l 351 1181 l 338 1204 z "},"Ґ":{"ha":908,"x_min":56,"x_max":879,"o":"m 56 0 l 56 29 l 183 50 l 183 1056 l 56 1076 l 56 1111 l 733 1111 l 838 1386 l 879 1386 l 879 1076 l 336 1076 l 336 50 l 464 29 l 464 0 l 56 0 z "},"Д":{"ha":1024,"x_min":-62,"x_max":968,"o":"m -42 35 l 4 35 q 96 73 50 35 q 182 196 142 111 q 240 386 219 275 q 274 719 261 497 l 292 1018 l 144 1079 l 144 1111 l 957 1111 l 957 1081 l 828 1061 l 828 35 l 947 35 l 968 -306 l 926 -306 l 782 0 l 124 0 l -21 -306 l -62 -306 l -42 35 m 675 35 l 675 1076 l 333 1076 l 311 719 q 275 377 296 490 q 218 182 254 264 q 172 99 196 132 q 128 50 147 67 q 108 35 108 33 l 675 35 z "},"Е":{"ha":1001,"x_min":56,"x_max":922,"o":"m 56 0 l 56 29 l 183 50 l 183 1061 l 56 1081 l 56 1111 l 892 1111 l 892 793 l 854 793 l 747 1076 l 336 1076 l 336 576 l 517 576 l 599 778 l 635 778 l 635 339 l 599 339 l 515 543 l 336 543 l 336 33 l 772 33 l 886 339 l 922 339 l 922 0 l 56 0 z "},"Ѐ":{"ha":1001,"x_min":56,"x_max":922,"o":"m 56 0 l 56 29 l 183 50 l 183 1061 l 56 1081 l 56 1111 l 892 1111 l 892 793 l 854 793 l 747 1076 l 336 1076 l 336 576 l 517 576 l 599 778 l 635 778 l 635 339 l 599 339 l 515 543 l 336 543 l 336 33 l 772 33 l 886 339 l 922 339 l 922 0 l 56 0 m 382 1251 q 347 1276 361 1258 q 333 1314 333 1293 q 353 1359 333 1339 q 399 1379 372 1379 q 444 1363 425 1379 l 626 1204 l 614 1181 l 382 1251 z "},"Ё":{"ha":1001,"x_min":56,"x_max":922,"o":"m 56 0 l 56 29 l 183 50 l 183 1061 l 56 1081 l 56 1111 l 892 1111 l 892 793 l 854 793 l 747 1076 l 336 1076 l 336 576 l 517 576 l 599 778 l 635 778 l 635 339 l 599 339 l 515 543 l 336 543 l 336 33 l 772 33 l 886 339 l 922 339 l 922 0 l 56 0 m 372 1192 q 313 1215 338 1192 q 289 1274 289 1239 q 313 1332 289 1308 q 372 1356 338 1356 q 431 1332 407 1356 q 454 1274 454 1308 q 431 1215 454 1239 q 372 1192 407 1192 m 631 1192 q 572 1215 596 1192 q 547 1274 547 1239 q 572 1332 547 1308 q 631 1356 596 1356 q 688 1332 665 1356 q 711 1274 711 1308 q 688 1215 711 1239 q 631 1192 665 1192 z "},"Ж":{"ha":1503,"x_min":-15,"x_max":1517,"o":"m 163 -14 q -15 71 61 -14 l 10 96 q 97 49 56 49 q 110 50 106 49 q 146 83 133 56 q 169 182 158 111 l 201 392 q 276 536 215 483 q 454 603 338 589 q 381 666 413 621 q 331 776 349 711 l 288 951 q 231 999 276 999 q 161 939 183 999 l 133 939 q 73 964 96 939 q 50 1029 50 989 q 81 1099 50 1072 q 164 1125 113 1125 q 260 1087 222 1125 q 318 969 297 1049 l 361 794 q 432 658 385 708 q 542 607 479 608 l 675 607 l 675 1061 l 547 1081 l 547 1111 l 956 1111 l 956 1081 l 828 1061 l 828 607 l 963 607 q 1070 658 1024 608 q 1142 794 1117 708 l 1185 969 q 1243 1087 1206 1049 q 1339 1125 1281 1125 q 1422 1099 1390 1125 q 1453 1029 1453 1072 q 1430 964 1453 989 q 1369 939 1407 939 l 1342 939 q 1272 999 1319 999 q 1215 951 1226 999 l 1172 776 q 1122 666 1154 711 q 1049 603 1090 621 q 1226 536 1165 589 q 1301 392 1288 483 l 1333 182 q 1357 83 1344 111 q 1393 50 1369 56 q 1406 49 1397 49 q 1493 96 1447 49 l 1517 71 q 1340 -14 1442 -14 q 1224 24 1263 -14 q 1171 151 1185 61 l 1138 386 q 1078 529 1124 485 q 931 574 1032 574 l 828 574 l 828 50 l 956 29 l 956 0 l 547 0 l 547 29 l 675 50 l 675 574 l 572 574 q 425 529 471 574 q 365 386 379 485 l 332 151 q 279 24 318 61 q 163 -14 240 -14 z "},"З":{"ha":939,"x_min":88,"x_max":864,"o":"m 467 -28 q 340 -9 397 -28 q 246 32 283 10 q 208 57 208 54 l 117 -14 l 88 -14 l 88 343 l 117 343 l 197 111 q 232 79 197 107 q 326 28 267 51 q 467 4 386 4 q 642 78 585 4 q 699 285 699 151 l 699 300 q 635 499 699 431 q 432 568 571 568 l 332 568 l 332 599 l 432 599 q 598 660 543 599 q 653 840 653 722 l 653 849 q 601 1043 653 979 q 453 1107 549 1107 q 335 1090 385 1107 q 258 1051 286 1072 q 229 1028 229 1031 l 143 794 l 114 794 l 114 1139 l 143 1139 l 236 1075 q 267 1094 236 1076 q 347 1125 299 1111 q 454 1139 396 1139 q 733 1063 646 1139 q 819 851 819 986 q 753 676 819 749 q 557 588 688 604 q 792 485 719 563 q 864 286 864 407 q 764 52 864 132 q 467 -28 664 -28 z "},"И":{"ha":1201,"x_min":49,"x_max":1153,"o":"m 49 0 l 49 29 l 176 50 l 176 1061 l 49 1081 l 49 1111 l 457 1111 l 457 1081 l 329 1061 l 329 161 l 871 1022 l 871 1061 l 742 1081 l 742 1111 l 1153 1111 l 1153 1081 l 1024 1061 l 1024 50 l 1153 29 l 1153 0 l 742 0 l 742 29 l 871 50 l 871 957 l 329 96 l 329 50 l 457 29 l 457 0 l 49 0 z "},"Й":{"ha":1201,"x_min":49,"x_max":1153,"o":"m 49 0 l 49 29 l 176 50 l 176 1061 l 49 1081 l 49 1111 l 457 1111 l 457 1081 l 329 1061 l 329 161 l 871 1022 l 871 1061 l 742 1081 l 742 1111 l 1153 1111 l 1153 1081 l 1024 1061 l 1024 50 l 1153 29 l 1153 0 l 742 0 l 742 29 l 871 50 l 871 957 l 329 96 l 329 50 l 457 29 l 457 0 l 49 0 m 603 1156 q 419 1194 493 1156 q 346 1311 346 1233 q 371 1374 346 1349 q 433 1400 396 1400 q 497 1374 469 1400 q 525 1311 525 1347 q 490 1284 503 1300 q 478 1253 478 1268 q 510 1206 478 1225 q 603 1186 543 1186 q 693 1206 660 1186 q 726 1254 726 1226 q 681 1311 726 1289 q 708 1374 681 1347 q 772 1400 736 1400 q 833 1374 808 1400 q 858 1311 858 1347 q 785 1194 858 1233 q 603 1156 713 1156 z "},"Ѝ":{"ha":1201,"x_min":49,"x_max":1153,"o":"m 49 0 l 49 29 l 176 50 l 176 1061 l 49 1081 l 49 1111 l 457 1111 l 457 1081 l 329 1061 l 329 161 l 871 1022 l 871 1061 l 742 1081 l 742 1111 l 1153 1111 l 1153 1081 l 1024 1061 l 1024 50 l 1153 29 l 1153 0 l 742 0 l 742 29 l 871 50 l 871 957 l 329 96 l 329 50 l 457 29 l 457 0 l 49 0 m 486 1251 q 451 1276 465 1258 q 438 1314 438 1293 q 457 1359 438 1339 q 503 1379 476 1379 q 549 1363 529 1379 l 731 1204 l 718 1181 l 486 1251 z "},"К":{"ha":1025,"x_min":56,"x_max":1039,"o":"m 863 -14 q 746 24 785 -14 q 693 151 707 61 l 660 386 q 600 529 646 485 q 453 574 554 574 l 336 574 l 336 50 l 464 29 l 464 0 l 56 0 l 56 29 l 183 50 l 183 1061 l 56 1081 l 56 1111 l 464 1111 l 464 1081 l 336 1061 l 336 607 l 482 607 q 596 659 549 608 q 664 794 643 710 l 707 969 q 766 1086 726 1047 q 861 1125 806 1125 q 941 1099 907 1125 q 975 1029 975 1072 q 952 964 975 989 q 892 939 929 939 l 864 939 q 794 999 842 999 q 738 951 749 999 l 694 776 q 646 666 678 711 q 572 601 614 621 q 749 535 688 588 q 824 392 810 482 l 856 182 q 879 83 867 111 q 915 50 892 56 q 928 49 919 49 q 1015 96 969 49 l 1039 71 q 863 -14 964 -14 z "},"Ќ":{"ha":1025,"x_min":56,"x_max":1039,"o":"m 863 -14 q 746 24 785 -14 q 693 151 707 61 l 660 386 q 600 529 646 485 q 453 574 554 574 l 336 574 l 336 50 l 464 29 l 464 0 l 56 0 l 56 29 l 183 50 l 183 1061 l 56 1081 l 56 1111 l 464 1111 l 464 1081 l 336 1061 l 336 607 l 482 607 q 596 659 549 608 q 664 794 643 710 l 707 969 q 766 1086 726 1047 q 861 1125 806 1125 q 941 1099 907 1125 q 975 1029 975 1072 q 952 964 975 989 q 892 939 929 939 l 864 939 q 794 999 842 999 q 738 951 749 999 l 694 776 q 646 666 678 711 q 572 601 614 621 q 749 535 688 588 q 824 392 810 482 l 856 182 q 879 83 867 111 q 915 50 892 56 q 928 49 919 49 q 1015 96 969 49 l 1039 71 q 863 -14 964 -14 m 371 1204 l 554 1363 q 599 1379 574 1379 q 645 1360 626 1379 q 664 1314 664 1340 q 651 1276 664 1293 q 617 1251 638 1258 l 385 1181 l 371 1204 z "},"Л":{"ha":1064,"x_min":-10,"x_max":1008,"o":"m 119 -14 q 22 17 53 -14 q -10 94 -10 49 q 15 158 -10 131 q 82 185 39 185 q 124 174 107 185 q 149 153 142 164 q 158 139 157 143 q 133 96 133 122 q 144 68 133 79 q 172 57 154 57 q 251 126 218 57 q 305 356 283 194 q 338 793 326 517 l 347 1018 l 200 1079 l 200 1111 l 1008 1111 l 1008 1081 l 879 1061 l 879 50 l 1008 29 l 1008 0 l 597 0 l 597 29 l 726 50 l 726 1076 l 388 1076 l 375 792 q 339 315 361 481 q 266 67 317 149 q 119 -14 215 -14 z "},"М":{"ha":1406,"x_min":56,"x_max":1350,"o":"m 633 -14 l 219 1061 l 219 85 l 353 29 l 353 0 l 56 0 l 56 29 l 186 85 l 186 1061 l 58 1081 l 58 1111 l 365 1111 l 714 219 l 1069 1111 l 1350 1111 l 1350 1081 l 1222 1061 l 1222 50 l 1350 29 l 1350 0 l 942 0 l 942 29 l 1069 50 l 1069 1019 l 658 -14 l 633 -14 z "},"Н":{"ha":1201,"x_min":56,"x_max":1146,"o":"m 56 0 l 56 29 l 183 50 l 183 1061 l 56 1081 l 56 1111 l 464 1111 l 464 1081 l 336 1061 l 336 606 l 864 606 l 864 1061 l 735 1081 l 735 1111 l 1146 1111 l 1146 1081 l 1017 1061 l 1017 50 l 1146 29 l 1146 0 l 735 0 l 735 29 l 864 50 l 864 571 l 336 571 l 336 50 l 464 29 l 464 0 l 56 0 z "},"О":{"ha":1197,"x_min":75,"x_max":1122,"o":"m 599 -28 q 328 46 447 -28 q 142 252 208 119 q 75 556 75 385 q 142 859 75 726 q 328 1065 208 992 q 599 1139 447 1139 q 869 1065 750 1139 q 1056 859 989 992 q 1122 556 1122 726 q 1056 252 1122 385 q 869 46 989 119 q 599 -28 750 -28 m 599 4 q 778 57 699 4 q 904 210 858 110 q 950 449 950 311 l 950 663 q 904 901 950 800 q 778 1054 858 1001 q 599 1107 699 1107 q 418 1054 497 1107 q 293 901 339 1001 q 247 663 247 800 l 247 449 q 293 210 247 311 q 418 57 339 110 q 599 4 497 4 z "},"П":{"ha":1188,"x_min":56,"x_max":1132,"o":"m 56 0 l 56 29 l 183 50 l 183 1061 l 56 1081 l 56 1111 l 1132 1111 l 1132 1081 l 1003 1061 l 1003 50 l 1132 29 l 1132 0 l 721 0 l 721 29 l 850 50 l 850 1076 l 336 1076 l 336 50 l 464 29 l 464 0 l 56 0 z "},"Р":{"ha":950,"x_min":56,"x_max":897,"o":"m 56 29 l 183 50 l 183 1061 l 56 1081 l 56 1111 l 492 1111 q 797 1024 697 1111 q 897 771 897 936 q 797 518 897 606 q 492 431 697 431 l 336 431 l 336 50 l 464 29 l 464 0 l 56 0 l 56 29 m 472 464 q 729 743 729 464 l 729 799 q 472 1076 729 1076 l 336 1076 l 336 464 l 472 464 z "},"С":{"ha":1035,"x_min":75,"x_max":947,"o":"m 578 -28 q 313 46 426 -28 q 137 251 199 119 q 75 556 75 383 q 138 860 75 728 q 317 1066 201 993 q 585 1139 433 1139 q 706 1118 644 1139 q 818 1060 768 1097 l 911 1139 l 940 1139 l 940 794 l 911 794 l 825 1010 q 712 1081 776 1054 q 585 1107 647 1107 q 413 1057 488 1107 q 297 911 339 1007 q 256 683 256 815 l 256 429 q 296 201 256 297 q 408 55 336 106 q 578 4 481 4 q 719 35 649 4 q 838 119 790 67 l 918 343 l 947 343 l 947 -14 l 918 -14 l 818 57 q 704 -6 768 17 q 578 -28 640 -28 z "},"Т":{"ha":972,"x_min":35,"x_max":939,"o":"m 282 0 l 282 29 l 410 50 l 410 1076 l 181 1076 l 75 801 l 35 801 l 35 1111 l 939 1111 l 939 801 l 897 801 l 793 1076 l 563 1076 l 563 50 l 690 29 l 690 0 l 282 0 z "},"У":{"ha":1008,"x_min":-29,"x_max":1019,"o":"m 299 -14 q 195 22 232 -14 q 158 114 158 57 q 188 191 158 161 q 258 221 217 221 q 313 208 289 221 q 349 171 336 194 q 340 161 347 169 q 328 139 333 153 q 322 107 322 125 q 336 65 322 81 q 375 49 350 49 q 442 82 411 49 q 514 208 472 115 l 532 250 l 81 1061 l -29 1081 l -29 1111 l 389 1111 l 389 1081 l 260 1061 l 613 428 l 875 1014 l 708 1081 l 708 1111 l 1019 1111 l 1019 1081 l 913 1013 l 546 196 q 474 68 508 113 q 399 5 440 24 q 299 -14 358 -14 z "},"Ў":{"ha":1008,"x_min":-29,"x_max":1019,"o":"m 299 -14 q 195 22 232 -14 q 158 114 158 57 q 188 191 158 161 q 258 221 217 221 q 313 208 289 221 q 349 171 336 194 q 340 161 347 169 q 328 139 333 153 q 322 107 322 125 q 336 65 322 81 q 375 49 350 49 q 442 82 411 49 q 514 208 472 115 l 532 250 l 81 1061 l -29 1081 l -29 1111 l 389 1111 l 389 1081 l 260 1061 l 613 428 l 875 1014 l 708 1081 l 708 1111 l 1019 1111 l 1019 1081 l 913 1013 l 546 196 q 474 68 508 113 q 399 5 440 24 q 299 -14 358 -14 m 553 1156 q 369 1194 443 1156 q 296 1311 296 1233 q 321 1374 296 1349 q 383 1400 346 1400 q 447 1374 419 1400 q 475 1311 475 1347 q 440 1284 453 1300 q 428 1253 428 1268 q 460 1206 428 1225 q 553 1186 493 1186 q 643 1206 610 1186 q 676 1254 676 1226 q 631 1311 676 1289 q 658 1374 631 1347 q 722 1400 686 1400 q 783 1374 758 1400 q 808 1311 808 1347 q 735 1194 808 1233 q 553 1156 663 1156 z "},"Ф":{"ha":1314,"x_min":58,"x_max":1256,"o":"m 453 29 l 581 50 l 581 194 q 185 292 311 196 q 58 583 58 389 q 185 876 58 781 q 581 972 313 972 l 581 1089 l 453 1108 l 453 1139 l 861 1139 l 861 1108 l 733 1089 l 733 972 q 1128 876 1001 972 q 1256 583 1256 781 q 1129 292 1256 389 q 733 194 1003 196 l 733 50 l 861 29 l 861 0 l 453 0 l 453 29 m 581 940 q 321 853 411 940 q 231 621 231 767 l 231 546 q 321 314 231 400 q 581 226 411 228 l 581 940 m 733 226 q 993 314 903 228 q 1083 546 1083 400 l 1083 621 q 993 853 1083 767 q 733 940 903 940 l 733 226 z "},"Х":{"ha":1056,"x_min":-11,"x_max":1093,"o":"m 3 0 l 3 29 l 140 107 l 458 532 l 107 1061 l -11 1081 l -11 1111 l 410 1111 l 410 1081 l 300 1064 l 569 656 l 838 1014 l 672 1081 l 672 1111 l 1004 1111 l 1004 1081 l 872 1007 l 589 628 l 974 49 l 1093 29 l 1093 0 l 671 0 l 671 29 l 781 47 l 478 503 l 171 94 l 335 29 l 335 0 l 3 0 z "},"Ч":{"ha":1126,"x_min":22,"x_max":1071,"o":"m 618 29 l 789 50 l 789 518 q 750 501 789 517 q 651 474 711 486 q 518 461 590 461 q 297 490 376 461 q 183 579 217 519 q 150 739 150 639 l 150 1061 l 22 1081 l 22 1111 l 431 1111 l 431 1081 l 303 1061 l 303 742 q 353 554 303 615 q 518 493 404 493 q 654 507 594 493 q 751 537 714 521 q 789 554 789 553 l 789 1061 l 660 1081 l 660 1111 l 1071 1111 l 1071 1081 l 942 1061 l 942 50 l 1071 29 l 1071 0 l 618 0 l 618 29 z "},"Ц":{"ha":1185,"x_min":56,"x_max":1129,"o":"m 1088 -306 l 943 0 l 56 0 l 56 31 l 183 50 l 183 1061 l 56 1082 l 56 1111 l 464 1111 l 464 1082 l 336 1061 l 336 35 l 836 35 l 836 1061 l 707 1082 l 707 1111 l 1118 1111 l 1118 1082 l 989 1061 l 989 35 l 1108 35 l 1129 -306 l 1088 -306 z "},"Ш":{"ha":1576,"x_min":56,"x_max":1521,"o":"m 56 0 l 56 29 l 183 50 l 183 1061 l 56 1081 l 56 1111 l 464 1111 l 464 1081 l 336 1061 l 336 35 l 711 35 l 711 1061 l 583 1081 l 582 1081 l 582 1111 l 993 1111 l 993 1081 l 992 1081 l 864 1061 l 864 35 l 1239 35 l 1239 1061 l 1110 1081 l 1110 1111 l 1521 1111 l 1521 1081 l 1392 1061 l 1392 50 l 1521 29 l 1521 0 l 56 0 z "},"Щ":{"ha":1588,"x_min":56,"x_max":1532,"o":"m 1490 -306 l 1346 0 l 56 0 l 56 29 l 183 50 l 183 1061 l 56 1081 l 56 1111 l 464 1111 l 464 1081 l 336 1061 l 336 35 l 711 35 l 711 1061 l 583 1081 l 582 1081 l 582 1111 l 993 1111 l 993 1081 l 992 1081 l 864 1061 l 864 35 l 1239 35 l 1239 1061 l 1110 1081 l 1110 1111 l 1521 1111 l 1521 1081 l 1392 1061 l 1392 35 l 1511 35 l 1532 -306 l 1490 -306 z "},"Џ":{"ha":1188,"x_min":56,"x_max":1132,"o":"m 1132 1082 l 1003 1061 l 1003 50 l 1132 31 l 1132 0 l 681 0 l 615 -306 l 572 -306 l 507 0 l 56 0 l 56 31 l 183 50 l 183 1061 l 56 1082 l 56 1111 l 464 1111 l 464 1082 l 336 1061 l 336 35 l 850 35 l 850 1061 l 721 1082 l 721 1111 l 1132 1111 l 1132 1082 z "},"Ь":{"ha":986,"x_min":56,"x_max":939,"o":"m 56 31 l 183 50 l 183 1061 l 56 1082 l 56 1111 l 464 1111 l 464 1082 l 336 1061 l 336 625 l 533 625 q 838 548 738 625 q 939 313 939 471 q 838 77 939 154 q 533 0 738 0 l 56 0 l 56 31 m 514 35 q 707 96 643 35 q 771 285 771 157 l 771 340 q 707 530 771 468 q 514 592 643 592 l 336 592 l 336 35 l 514 35 z "},"Ъ":{"ha":1188,"x_min":21,"x_max":1140,"o":"m 735 625 q 1040 548 939 625 q 1140 313 1140 471 q 1040 77 1140 154 q 735 0 939 0 l 257 0 l 257 31 l 385 50 l 385 1076 l 167 1076 l 61 801 l 21 801 l 21 1111 l 665 1111 l 665 1082 l 538 1061 l 538 625 l 735 625 m 972 340 q 908 530 972 468 q 715 592 844 592 l 538 592 l 538 35 l 715 35 q 908 96 844 35 q 972 285 972 157 l 972 340 z "},"Ы":{"ha":1436,"x_min":56,"x_max":1381,"o":"m 56 31 l 183 50 l 183 1061 l 56 1082 l 56 1111 l 464 1111 l 464 1082 l 336 1061 l 336 625 l 515 625 q 820 548 719 625 q 921 313 921 471 q 820 77 921 154 q 515 0 719 0 l 56 0 l 56 31 m 972 0 l 972 29 l 1100 50 l 1100 1061 l 972 1081 l 972 1111 l 1381 1111 l 1381 1081 l 1253 1061 l 1253 50 l 1381 29 l 1381 0 l 972 0 m 496 35 q 689 96 625 35 q 753 285 753 157 l 753 340 q 689 530 753 468 q 496 592 625 592 l 336 592 l 336 35 l 496 35 z "},"Љ":{"ha":1532,"x_min":-10,"x_max":1485,"o":"m 119 -14 q 22 17 53 -14 q -10 94 -10 49 q 15 158 -10 131 q 82 185 39 185 q 124 174 107 185 q 149 153 142 164 q 158 139 157 143 q 133 96 133 122 q 144 68 133 79 q 172 57 154 57 q 251 126 218 57 q 305 356 283 194 q 338 793 326 517 l 347 1018 l 200 1079 l 200 1111 l 1008 1111 l 1008 1081 l 879 1061 l 879 625 l 1079 625 q 1384 548 1283 625 q 1485 313 1485 471 q 1384 77 1485 154 q 1079 0 1283 0 l 599 0 l 599 29 l 728 50 l 726 1076 l 388 1076 l 375 792 q 339 315 361 481 q 266 67 317 149 q 119 -14 215 -14 m 1057 35 q 1250 96 1186 35 q 1314 285 1314 157 l 1314 340 q 1250 530 1314 468 q 1057 592 1186 592 l 879 592 l 879 35 l 1057 35 z "},"Њ":{"ha":1667,"x_min":56,"x_max":1619,"o":"m 56 29 l 183 50 l 183 1061 l 56 1081 l 56 1111 l 464 1111 l 464 1081 l 336 1061 l 336 606 l 864 606 l 864 1061 l 736 1082 l 736 1111 l 1144 1111 l 1144 1082 l 1017 1061 l 1017 606 l 1214 606 q 1519 532 1418 606 q 1619 306 1619 458 q 1519 75 1619 150 q 1214 0 1418 0 l 736 0 l 736 31 l 864 50 l 864 571 l 336 571 l 336 50 l 464 29 l 464 0 l 56 0 l 56 29 m 1194 35 q 1388 94 1324 35 q 1451 278 1451 154 l 1451 333 q 1388 513 1451 454 q 1194 571 1324 571 l 1017 571 l 1017 35 l 1194 35 z "},"Ѕ":{"ha":925,"x_min":93,"x_max":846,"o":"m 496 -28 q 242 46 367 -28 l 124 -14 l 93 -14 l 93 343 l 124 343 l 243 85 q 507 3 358 3 q 709 67 629 3 q 789 249 789 132 q 738 383 789 333 q 571 461 686 432 l 340 521 q 158 630 219 553 q 97 813 97 707 q 135 983 97 908 q 247 1098 174 1057 q 422 1139 321 1139 q 649 1096 549 1139 l 750 1139 l 781 1139 l 781 856 l 750 856 l 650 1058 q 424 1108 546 1108 q 233 1047 303 1108 q 164 883 164 985 q 213 765 164 808 q 358 697 263 722 l 607 632 q 787 527 728 601 q 846 301 846 453 q 751 60 846 147 q 496 -28 656 -28 z "},"Є":{"ha":1035,"x_min":75,"x_max":947,"o":"m 578 -28 q 313 45 426 -28 q 137 251 199 118 q 75 556 75 383 q 138 858 75 726 q 317 1065 201 990 q 582 1139 432 1139 q 818 1060 710 1139 l 911 1139 l 940 1139 l 940 794 l 911 794 l 825 1010 q 582 1107 719 1107 q 410 1056 485 1107 q 296 908 336 1004 q 256 683 256 813 l 256 590 l 756 590 l 756 557 l 256 557 l 256 429 q 295 203 256 299 q 408 56 335 107 q 578 4 481 4 q 719 35 649 4 q 838 119 790 67 l 918 343 l 947 343 l 947 -14 l 918 -14 l 821 57 q 578 -28 711 -28 z "},"Э":{"ha":1035,"x_min":88,"x_max":960,"o":"m 457 -28 q 214 57 324 -28 l 117 -14 l 88 -14 l 88 343 l 117 343 l 197 119 q 315 35 244 67 q 457 4 386 4 q 627 56 554 4 q 740 203 700 107 q 779 429 779 299 l 779 557 l 279 557 l 279 590 l 779 590 l 779 683 q 739 908 779 813 q 624 1056 699 1004 q 453 1107 550 1107 q 210 1010 315 1107 l 124 794 l 94 794 l 94 1139 l 124 1139 l 217 1060 q 453 1139 325 1139 q 718 1065 603 1139 q 897 858 833 990 q 960 556 960 726 q 898 251 960 383 q 722 45 836 118 q 457 -28 608 -28 z "},"І":{"ha":519,"x_min":56,"x_max":464,"o":"m 56 0 l 56 29 l 183 50 l 183 1061 l 56 1081 l 56 1111 l 464 1111 l 464 1081 l 336 1061 l 336 50 l 464 29 l 464 0 l 56 0 z "},"Ї":{"ha":519,"x_min":49,"x_max":471,"o":"m 56 0 l 56 29 l 183 50 l 183 1061 l 56 1081 l 56 1111 l 464 1111 l 464 1081 l 336 1061 l 336 50 l 464 29 l 464 0 l 56 0 m 132 1192 q 73 1215 97 1192 q 49 1274 49 1239 q 73 1332 49 1308 q 132 1356 97 1356 q 190 1332 167 1356 q 214 1274 214 1308 q 190 1215 214 1239 q 132 1192 167 1192 m 390 1192 q 331 1215 356 1192 q 307 1274 307 1239 q 331 1332 307 1308 q 390 1356 356 1356 q 448 1332 425 1356 q 471 1274 471 1308 q 448 1215 471 1239 q 390 1192 425 1192 z "},"Ј":{"ha":622,"x_min":10,"x_max":583,"o":"m 203 -28 q 65 8 119 -28 q 10 114 10 44 q 35 188 10 160 q 103 217 61 217 q 156 199 136 217 q 183 160 175 181 q 190 135 190 140 q 150 67 150 106 q 167 22 150 40 q 213 4 183 4 q 283 65 257 4 q 308 274 308 125 l 308 1061 l 181 1081 l 181 1111 l 583 1111 l 583 1081 l 456 1061 l 456 274 q 437 112 456 176 q 363 10 418 47 q 203 -28 307 -28 z "},"Ћ":{"ha":1297,"x_min":35,"x_max":1275,"o":"m 1275 31 l 1275 0 l 867 0 l 867 31 l 994 50 l 994 356 q 951 533 994 475 q 807 590 907 590 q 671 576 731 590 q 574 547 611 563 q 536 529 536 531 l 536 50 l 664 29 l 664 0 l 256 0 l 256 29 l 383 50 l 383 1076 l 181 1076 l 75 801 l 35 801 l 35 1111 l 885 1111 l 885 801 l 843 801 l 739 1076 l 536 1076 l 536 565 q 575 582 536 567 q 674 610 614 597 q 807 622 735 622 q 1011 594 938 622 q 1116 510 1085 567 q 1147 358 1147 453 l 1147 50 l 1275 31 z "},"Ю":{"ha":1649,"x_min":56,"x_max":1574,"o":"m 1056 -28 q 788 47 906 -28 q 603 253 669 121 q 538 556 538 386 l 538 557 l 336 557 l 336 50 l 464 29 l 464 0 l 56 0 l 56 29 l 183 50 l 183 1061 l 56 1081 l 56 1111 l 464 1111 l 464 1081 l 336 1061 l 336 592 l 538 592 q 613 877 544 753 q 796 1070 681 1001 q 1056 1139 911 1139 q 1324 1065 1206 1139 q 1508 858 1442 990 q 1574 556 1574 725 q 1508 255 1574 388 q 1324 47 1442 122 q 1056 -28 1207 -28 m 1056 4 q 1235 58 1157 4 q 1358 213 1314 113 q 1401 449 1401 314 l 1401 663 q 1357 897 1401 796 q 1234 1052 1313 997 q 1056 1107 1156 1107 q 877 1052 956 1107 q 754 897 799 997 q 710 663 710 796 l 710 449 q 753 213 710 314 q 876 58 797 113 q 1056 4 954 4 z "},"Я":{"ha":1010,"x_min":-29,"x_max":954,"o":"m 147 -14 q -29 71 46 -14 l -6 96 q 82 49 40 49 q 94 50 90 49 q 131 83 118 56 q 154 182 143 111 l 175 315 q 251 465 192 417 q 425 531 310 514 l 425 539 q 135 817 135 578 q 240 1039 135 967 q 572 1111 346 1111 l 954 1111 l 954 1081 l 826 1061 l 826 50 l 954 29 l 954 0 l 546 0 l 546 29 l 674 50 l 674 524 l 565 524 q 412 480 467 524 q 343 338 357 436 l 317 151 q 264 24 303 61 q 147 -14 225 -14 m 674 557 l 674 1076 l 572 1076 q 303 846 303 1076 l 303 801 q 363 620 303 683 q 525 557 422 557 l 674 557 z "},"Ђ":{"ha":1222,"x_min":35,"x_max":1175,"o":"m 793 622 q 1021 586 938 622 q 1140 481 1104 550 q 1175 304 1175 411 q 1141 131 1175 200 q 1026 27 1107 63 q 807 -8 946 -8 l 807 24 q 972 96 921 24 q 1022 304 1022 168 q 968 517 1022 443 q 793 590 914 590 q 664 576 721 590 q 572 547 607 563 q 536 529 536 531 l 536 50 l 664 29 l 664 0 l 256 0 l 256 29 l 383 50 l 383 1076 l 181 1076 l 75 801 l 35 801 l 35 1111 l 885 1111 l 885 801 l 843 801 l 739 1076 l 536 1076 l 536 565 q 573 582 536 567 q 667 610 610 597 q 793 622 725 622 z "},"Ѣ":{"ha":1174,"x_min":35,"x_max":1126,"o":"m 721 625 q 1026 548 925 625 q 1126 313 1126 471 q 1026 77 1126 154 q 721 0 925 0 l 243 0 l 243 31 l 371 50 l 371 938 l 181 938 l 75 718 l 35 718 l 35 972 l 371 972 l 371 1061 l 243 1082 l 243 1111 l 651 1111 l 651 1082 l 524 1061 l 524 972 l 856 972 l 856 718 l 814 718 l 710 938 l 524 938 l 524 625 l 721 625 m 958 340 q 894 530 958 468 q 701 592 831 592 l 524 592 l 524 35 l 701 35 q 894 96 831 35 q 958 285 958 157 l 958 340 z "},"Ѫ":{"ha":1447,"x_min":-43,"x_max":1489,"o":"m 1489 71 q 1313 -14 1414 -14 q 1196 24 1235 -14 q 1143 151 1157 61 l 1110 386 q 1050 529 1096 485 q 903 574 1004 574 l 800 574 l 800 50 l 928 29 l 928 0 l 519 0 l 519 29 l 647 50 l 647 574 l 544 574 q 397 529 443 574 q 338 386 351 485 l 304 151 q 251 24 290 61 q 135 -14 213 -14 q -43 71 33 -14 l -19 96 q 69 49 28 49 q 82 50 78 49 q 118 83 106 56 q 142 182 131 111 l 174 392 q 263 554 190 501 q 468 607 335 607 l 601 607 l 190 1111 l 1247 1111 l 831 607 l 979 607 q 1185 554 1113 607 q 1274 392 1257 501 l 1306 182 q 1329 83 1317 111 q 1365 50 1342 56 q 1378 49 1369 49 q 1465 96 1419 49 l 1489 71 m 1179 1081 l 400 1081 l 788 607 l 1179 1081 z "},"Ѳ":{"ha":1197,"x_min":75,"x_max":1122,"o":"m 599 1139 q 869 1065 750 1139 q 1056 859 989 992 q 1122 556 1122 726 q 1056 252 1122 385 q 869 46 989 119 q 599 -28 750 -28 q 328 46 447 -28 q 142 252 208 119 q 75 556 75 385 q 142 859 75 726 q 328 1065 208 992 q 599 1139 447 1139 m 599 1107 q 418 1054 497 1107 q 293 901 339 1001 q 247 663 247 800 l 247 606 l 950 606 l 950 663 q 904 901 950 800 q 778 1054 858 1001 q 599 1107 699 1107 m 599 4 q 778 57 699 4 q 904 210 858 110 q 950 449 950 311 l 950 571 l 247 571 l 247 449 q 293 210 247 311 q 418 57 339 110 q 599 4 497 4 z "},"Ѵ":{"ha":1089,"x_min":-40,"x_max":1132,"o":"m 71 1061 l -40 1081 l -40 1111 l 367 1111 l 367 1081 l 236 1064 l 542 232 l 832 989 q 899 1097 863 1069 q 992 1124 936 1124 q 1092 1092 1051 1124 q 1132 1001 1132 1060 q 1103 927 1132 954 q 1035 900 1075 900 q 987 911 1007 900 q 956 935 967 922 q 946 951 946 949 q 972 1007 972 976 q 961 1033 972 1022 q 932 1043 950 1043 q 893 1030 908 1043 q 865 982 878 1017 l 482 -28 l 471 -28 l 71 1061 z "},"Ғ":{"ha":908,"x_min":35,"x_max":879,"o":"m 56 1111 l 879 1111 l 879 801 l 838 801 l 733 1076 l 336 1076 l 336 556 l 625 556 l 625 510 l 336 510 l 336 50 l 464 29 l 464 0 l 56 0 l 56 29 l 183 50 l 183 510 l 35 510 l 35 556 l 183 556 l 183 1056 l 56 1076 l 56 1111 z "},"Ҕ":{"ha":1010,"x_min":56,"x_max":944,"o":"m 576 633 q 858 551 772 633 q 944 304 944 468 q 508 -400 944 -74 l 489 -381 q 721 -66 654 -244 q 788 304 788 113 q 735 520 788 443 q 576 597 682 597 q 336 526 443 597 l 336 50 l 464 29 l 464 0 l 56 0 l 56 29 l 183 50 l 183 1056 l 56 1076 l 56 1111 l 879 1111 l 879 801 l 838 801 l 733 1076 l 336 1076 l 336 567 q 429 610 367 588 q 576 633 492 633 z "},"Җ":{"ha":1504,"x_min":-15,"x_max":1576,"o":"m 1390 0 l 1340 0 q 1223 34 1261 0 q 1171 151 1185 68 l 1138 386 q 1078 529 1124 485 q 931 574 1032 574 l 828 574 l 828 50 l 956 29 l 956 0 l 547 0 l 547 29 l 675 50 l 675 574 l 572 574 q 425 529 471 574 q 365 386 379 485 l 332 151 q 279 24 318 61 q 163 -14 240 -14 q -15 71 61 -14 l 10 96 q 97 49 56 49 q 110 50 106 49 q 146 83 133 56 q 169 182 158 111 l 201 392 q 276 536 215 483 q 454 603 338 589 q 381 666 413 621 q 331 776 349 711 l 288 951 q 231 999 276 999 q 161 939 183 999 l 133 939 q 73 964 96 939 q 50 1029 50 989 q 81 1099 50 1072 q 164 1125 113 1125 q 260 1087 222 1125 q 318 969 297 1049 l 361 794 q 432 658 385 708 q 542 607 479 608 l 675 607 l 675 1061 l 547 1081 l 547 1111 l 956 1111 l 956 1081 l 828 1061 l 828 607 l 963 607 q 1070 658 1024 608 q 1142 794 1117 708 l 1185 969 q 1243 1087 1206 1049 q 1339 1125 1281 1125 q 1422 1099 1390 1125 q 1453 1029 1453 1072 q 1430 964 1453 989 q 1369 939 1407 939 l 1342 939 q 1272 999 1319 999 q 1215 951 1226 999 l 1172 776 q 1122 666 1154 711 q 1049 603 1090 621 q 1226 536 1165 589 q 1301 392 1288 483 l 1336 168 q 1376 63 1353 90 q 1446 35 1400 35 l 1556 35 l 1576 -306 l 1535 -306 l 1390 0 z "},"Ҙ":{"ha":939,"x_min":88,"x_max":864,"o":"m 864 286 q 779 65 864 144 q 528 -26 694 -14 l 468 -306 l 425 -306 l 364 -15 q 286 12 321 -4 q 232 40 251 28 q 208 57 213 53 l 117 -14 l 88 -14 l 88 343 l 117 343 l 197 111 q 232 79 197 107 q 326 28 267 51 q 467 4 386 4 q 642 78 585 4 q 699 285 699 151 l 699 300 q 635 499 699 431 q 432 568 571 568 l 332 568 l 332 599 l 432 599 q 598 660 543 599 q 653 840 653 722 l 653 849 q 601 1043 653 979 q 453 1107 549 1107 q 335 1090 385 1107 q 258 1051 286 1072 q 229 1028 229 1031 l 143 794 l 114 794 l 114 1139 l 143 1139 l 236 1075 q 267 1094 236 1076 q 347 1125 299 1111 q 454 1139 396 1139 q 733 1063 646 1139 q 819 851 819 986 q 753 676 819 749 q 557 588 688 604 q 792 485 719 563 q 864 286 864 407 z "},"Қ":{"ha":1026,"x_min":56,"x_max":1099,"o":"m 913 0 l 863 0 q 745 34 783 0 q 693 151 707 68 l 660 386 q 600 529 646 485 q 453 574 554 574 l 336 574 l 336 50 l 464 29 l 464 0 l 56 0 l 56 29 l 183 50 l 183 1061 l 56 1081 l 56 1111 l 464 1111 l 464 1081 l 336 1061 l 336 607 l 485 607 q 594 658 547 608 q 664 794 642 708 l 707 969 q 766 1086 726 1047 q 861 1125 806 1125 q 941 1099 907 1125 q 975 1029 975 1072 q 952 964 975 989 q 892 939 929 939 l 864 939 q 794 999 842 999 q 738 951 749 999 l 694 776 q 646 666 678 711 q 572 601 614 621 q 749 535 688 588 q 824 392 810 482 l 858 168 q 899 63 875 90 q 968 35 922 35 l 1078 35 l 1099 -306 l 1057 -306 l 913 0 z "},"Ҝ":{"ha":1025,"x_min":56,"x_max":1039,"o":"m 1039 71 q 863 -14 964 -14 q 746 24 785 -14 q 693 151 707 61 l 660 386 q 610 519 647 475 q 494 572 572 563 l 494 303 l 451 303 l 451 574 l 336 574 l 336 50 l 464 29 l 464 0 l 56 0 l 56 29 l 183 50 l 183 1061 l 56 1081 l 56 1111 l 464 1111 l 464 1081 l 336 1061 l 336 607 l 451 607 l 451 886 l 494 886 l 494 608 q 599 664 556 614 q 664 794 643 714 l 707 969 q 766 1086 726 1047 q 861 1125 806 1125 q 941 1099 907 1125 q 975 1029 975 1072 q 952 964 975 989 q 892 939 929 939 l 864 939 q 794 999 842 999 q 738 951 749 999 l 694 776 q 646 666 678 711 q 572 601 614 621 q 749 535 688 588 q 824 392 810 482 l 856 182 q 879 83 867 111 q 915 50 892 56 q 928 49 919 49 q 1015 96 969 49 l 1039 71 z "},"Ҡ":{"ha":1226,"x_min":21,"x_max":1240,"o":"m 1240 71 q 1064 -14 1165 -14 q 947 24 986 -14 q 894 151 908 61 l 861 386 q 801 529 847 485 q 654 574 756 574 l 538 574 l 538 50 l 665 29 l 665 0 l 257 0 l 257 29 l 385 50 l 385 1076 l 167 1076 l 61 801 l 21 801 l 21 1111 l 665 1111 l 665 1082 l 538 1061 l 538 607 l 686 607 q 796 658 749 608 q 865 794 843 708 l 908 969 q 967 1086 928 1047 q 1063 1125 1007 1125 q 1142 1099 1108 1125 q 1176 1029 1176 1072 q 1153 964 1176 989 q 1093 939 1131 939 l 1065 939 q 996 999 1043 999 q 939 951 950 999 l 896 776 q 847 666 879 711 q 774 601 815 621 q 950 535 889 588 q 1025 392 1011 482 l 1057 182 q 1081 83 1068 111 q 1117 50 1093 56 q 1129 49 1121 49 q 1217 96 1171 49 l 1240 71 z "},"Ң":{"ha":1211,"x_min":56,"x_max":1156,"o":"m 1135 35 l 1156 -306 l 1114 -306 l 969 0 l 735 0 l 735 31 l 864 50 l 864 571 l 336 571 l 336 50 l 464 29 l 464 0 l 56 0 l 56 29 l 183 50 l 183 1061 l 56 1081 l 56 1111 l 464 1111 l 464 1081 l 336 1061 l 336 606 l 864 606 l 864 1061 l 735 1081 l 735 1111 l 1144 1111 l 1144 1081 l 1015 1061 l 1015 35 l 1135 35 z "},"Ԥ":{"ha":1199,"x_min":56,"x_max":1143,"o":"m 1101 -306 l 957 0 l 722 0 l 722 29 l 850 50 l 850 1076 l 336 1076 l 336 50 l 464 29 l 464 0 l 56 0 l 56 29 l 183 50 l 183 1061 l 56 1081 l 56 1111 l 1132 1111 l 1132 1081 l 1003 1061 l 1003 35 l 1122 35 l 1143 -306 l 1101 -306 z "},"Ҫ":{"ha":1036,"x_min":75,"x_max":947,"o":"m 947 343 l 947 -14 l 918 -14 l 818 57 q 651 -19 743 -3 l 590 -306 l 547 -306 l 486 -21 q 268 78 361 0 q 125 278 175 156 q 75 556 75 401 q 138 860 75 728 q 317 1066 201 993 q 585 1139 433 1139 q 706 1118 644 1139 q 818 1060 768 1097 l 911 1139 l 940 1139 l 940 794 l 911 794 l 825 1010 q 712 1081 776 1054 q 585 1107 647 1107 q 413 1057 488 1107 q 297 911 339 1007 q 256 683 256 815 l 256 429 q 296 201 256 297 q 408 55 336 106 q 578 4 481 4 q 719 35 649 4 q 838 119 790 67 l 918 343 l 947 343 z "},"Ү":{"ha":913,"x_min":-46,"x_max":947,"o":"m 272 0 l 272 29 l 401 50 l 401 472 l 64 1061 l -46 1081 l -46 1111 l 372 1111 l 372 1081 l 243 1061 l 535 557 l 803 1014 l 636 1081 l 636 1111 l 947 1111 l 947 1081 l 840 1013 l 551 518 l 551 50 l 681 29 l 681 0 l 272 0 z "},"Ұ":{"ha":936,"x_min":-46,"x_max":947,"o":"m 636 1111 l 947 1111 l 947 1081 l 840 1013 l 551 518 l 551 508 l 774 508 l 774 463 l 551 463 l 551 50 l 681 29 l 681 0 l 272 0 l 272 29 l 401 50 l 401 463 l 185 463 l 185 508 l 381 508 l 64 1061 l -46 1081 l -46 1111 l 372 1111 l 372 1081 l 243 1061 l 535 557 l 803 1014 l 636 1081 l 636 1111 z "},"Ҷ":{"ha":1135,"x_min":22,"x_max":1079,"o":"m 1079 -306 l 1038 -306 l 893 0 l 618 0 l 618 31 l 789 51 l 789 518 q 750 501 789 517 q 651 474 711 486 q 518 461 590 461 q 297 490 376 461 q 183 579 217 519 q 150 739 150 639 l 150 1061 l 22 1081 l 22 1111 l 431 1111 l 431 1081 l 303 1061 l 303 742 q 353 554 303 615 q 518 493 404 493 q 654 507 594 493 q 751 537 714 521 q 789 554 789 553 l 789 1061 l 660 1081 l 660 1111 l 1069 1111 l 1069 1081 l 940 1061 l 940 35 l 1058 35 l 1079 -306 z "},"Ҹ":{"ha":1126,"x_min":22,"x_max":1071,"o":"m 942 1061 l 942 50 l 1071 29 l 1071 0 l 618 0 l 618 29 l 789 50 l 789 518 q 756 504 782 515 q 684 481 731 493 q 581 464 638 469 l 581 190 l 538 190 l 538 461 l 518 461 q 297 490 376 461 q 183 579 217 519 q 150 739 150 639 l 150 1061 l 22 1081 l 22 1111 l 431 1111 l 431 1081 l 303 1061 l 303 742 q 353 554 303 615 q 518 493 404 493 l 538 493 l 538 774 l 581 774 l 581 496 q 685 515 639 501 q 758 539 732 528 q 789 554 783 550 l 789 1061 l 660 1081 l 660 1111 l 1071 1111 l 1071 1081 l 942 1061 z "},"Һ":{"ha":1126,"x_min":56,"x_max":1104,"o":"m 508 1082 l 338 1061 l 338 593 q 376 610 338 594 q 476 638 415 625 q 608 650 536 650 q 830 621 750 650 q 943 532 910 592 q 976 372 976 472 l 976 50 l 1104 31 l 1104 0 l 696 0 l 696 31 l 824 50 l 824 369 q 773 557 824 496 q 608 618 722 618 q 472 604 532 618 q 375 574 413 590 q 338 557 338 558 l 338 50 l 467 31 l 467 0 l 56 0 l 56 31 l 185 50 l 185 1061 l 56 1082 l 56 1111 l 508 1111 l 508 1082 z "},"Ӏ":{"ha":519,"x_min":56,"x_max":464,"o":"m 56 0 l 56 29 l 183 50 l 183 1061 l 56 1081 l 56 1111 l 464 1111 l 464 1081 l 336 1061 l 336 50 l 464 29 l 464 0 l 56 0 z "},"Ӂ":{"ha":1503,"x_min":-15,"x_max":1517,"o":"m 163 -14 q -15 71 61 -14 l 10 96 q 97 49 56 49 q 110 50 106 49 q 146 83 133 56 q 169 182 158 111 l 201 392 q 276 536 215 483 q 454 603 338 589 q 381 666 413 621 q 331 776 349 711 l 288 951 q 231 999 276 999 q 161 939 183 999 l 133 939 q 73 964 96 939 q 50 1029 50 989 q 81 1099 50 1072 q 164 1125 113 1125 q 260 1087 222 1125 q 318 969 297 1049 l 361 794 q 432 658 385 708 q 542 607 479 608 l 675 607 l 675 1061 l 547 1081 l 547 1111 l 956 1111 l 956 1081 l 828 1061 l 828 607 l 963 607 q 1070 658 1024 608 q 1142 794 1117 708 l 1185 969 q 1243 1087 1206 1049 q 1339 1125 1281 1125 q 1422 1099 1390 1125 q 1453 1029 1453 1072 q 1430 964 1453 989 q 1369 939 1407 939 l 1342 939 q 1272 999 1319 999 q 1215 951 1226 999 l 1172 776 q 1122 666 1154 711 q 1049 603 1090 621 q 1226 536 1165 589 q 1301 392 1288 483 l 1333 182 q 1357 83 1344 111 q 1393 50 1369 56 q 1406 49 1397 49 q 1493 96 1447 49 l 1517 71 q 1340 -14 1442 -14 q 1224 24 1263 -14 q 1171 151 1185 61 l 1138 386 q 1078 529 1124 485 q 931 574 1032 574 l 828 574 l 828 50 l 956 29 l 956 0 l 547 0 l 547 29 l 675 50 l 675 574 l 572 574 q 425 529 471 574 q 365 386 379 485 l 332 151 q 279 24 318 61 q 163 -14 240 -14 m 749 1156 q 565 1194 639 1156 q 492 1311 492 1233 q 517 1374 492 1349 q 579 1400 542 1400 q 643 1374 615 1400 q 671 1311 671 1347 q 636 1284 649 1300 q 624 1253 624 1268 q 656 1206 624 1225 q 749 1186 689 1186 q 839 1206 806 1186 q 872 1254 872 1226 q 826 1311 872 1289 q 854 1374 826 1347 q 918 1400 882 1400 q 979 1374 954 1400 q 1004 1311 1004 1347 q 931 1194 1004 1233 q 749 1156 858 1156 z "},"Ӌ":{"ha":1125,"x_min":22,"x_max":1069,"o":"m 940 1061 l 940 50 l 1069 31 l 1069 0 l 836 0 l 692 -306 l 650 -306 l 671 35 l 789 35 l 789 518 q 750 501 789 517 q 651 474 711 486 q 518 461 590 461 q 297 490 376 461 q 183 579 217 519 q 150 739 150 639 l 150 1061 l 22 1081 l 22 1111 l 431 1111 l 431 1081 l 303 1061 l 303 742 q 353 554 303 615 q 518 493 404 493 q 654 507 594 493 q 751 537 714 521 q 789 554 789 553 l 789 1061 l 660 1081 l 660 1111 l 1069 1111 l 1069 1081 l 940 1061 z "},"Ӑ":{"ha":999,"x_min":-39,"x_max":1028,"o":"m -39 0 l -39 29 l 97 85 l 499 1139 l 521 1139 l 900 50 l 1028 29 l 1028 0 l 619 0 l 619 29 l 733 47 l 615 376 l 246 376 l 133 85 l 258 29 l 258 0 l -39 0 m 257 406 l 606 406 l 439 894 l 257 406 m 511 1156 q 328 1194 401 1156 q 254 1311 254 1233 q 279 1374 254 1349 q 342 1400 304 1400 q 406 1374 378 1400 q 433 1311 433 1347 q 399 1284 411 1300 q 386 1253 386 1268 q 419 1206 386 1225 q 511 1186 451 1186 q 601 1206 568 1186 q 635 1254 635 1226 q 589 1311 635 1289 q 617 1374 589 1347 q 681 1400 644 1400 q 742 1374 717 1400 q 767 1311 767 1347 q 694 1194 767 1233 q 511 1156 621 1156 z "},"Ӓ":{"ha":999,"x_min":-39,"x_max":1028,"o":"m -39 0 l -39 29 l 97 85 l 499 1139 l 521 1139 l 900 50 l 1028 29 l 1028 0 l 619 0 l 619 29 l 733 47 l 615 376 l 246 376 l 133 85 l 258 29 l 258 0 l -39 0 m 257 406 l 606 406 l 439 894 l 257 406 m 385 1192 q 326 1215 350 1192 q 301 1274 301 1239 q 326 1332 301 1308 q 385 1356 350 1356 q 443 1332 419 1356 q 467 1274 467 1308 q 443 1215 467 1239 q 385 1192 419 1192 m 643 1192 q 584 1215 608 1192 q 560 1274 560 1239 q 584 1332 560 1308 q 643 1356 608 1356 q 701 1332 678 1356 q 724 1274 724 1308 q 701 1215 724 1239 q 643 1192 678 1192 z "},"Ӗ":{"ha":1001,"x_min":56,"x_max":922,"o":"m 56 0 l 56 29 l 183 50 l 183 1061 l 56 1081 l 56 1111 l 892 1111 l 892 793 l 854 793 l 747 1076 l 336 1076 l 336 576 l 517 576 l 599 778 l 635 778 l 635 339 l 599 339 l 515 543 l 336 543 l 336 33 l 772 33 l 886 339 l 922 339 l 922 0 l 56 0 m 499 1156 q 315 1194 389 1156 q 242 1311 242 1233 q 267 1374 242 1349 q 329 1400 292 1400 q 393 1374 365 1400 q 421 1311 421 1347 q 386 1284 399 1300 q 374 1253 374 1268 q 406 1206 374 1225 q 499 1186 439 1186 q 589 1206 556 1186 q 622 1254 622 1226 q 576 1311 622 1289 q 604 1374 576 1347 q 668 1400 632 1400 q 729 1374 704 1400 q 754 1311 754 1347 q 681 1194 754 1233 q 499 1156 608 1156 z "},"Ә":{"ha":1104,"x_min":65,"x_max":1029,"o":"m 506 1139 q 780 1066 661 1139 q 964 860 899 993 q 1029 556 1029 728 q 967 251 1029 383 q 792 46 906 119 q 526 -28 678 -28 q 283 46 388 -28 q 122 251 179 119 q 65 556 65 383 l 849 556 l 849 683 q 806 911 849 815 q 685 1057 763 1007 q 506 1107 607 1107 q 364 1081 436 1107 q 238 1010 292 1054 l 151 794 l 122 794 l 122 1139 l 151 1139 l 244 1060 q 370 1118 301 1097 q 506 1139 439 1139 m 526 4 q 696 55 624 4 q 808 201 768 106 q 849 429 849 297 l 849 521 l 246 521 l 246 429 q 281 201 246 297 q 378 55 315 106 q 526 4 442 4 z "},"Ӝ":{"ha":1503,"x_min":-15,"x_max":1517,"o":"m 163 -14 q -15 71 61 -14 l 10 96 q 97 49 56 49 q 110 50 106 49 q 146 83 133 56 q 169 182 158 111 l 201 392 q 276 536 215 483 q 454 603 338 589 q 381 666 413 621 q 331 776 349 711 l 288 951 q 231 999 276 999 q 161 939 183 999 l 133 939 q 73 964 96 939 q 50 1029 50 989 q 81 1099 50 1072 q 164 1125 113 1125 q 260 1087 222 1125 q 318 969 297 1049 l 361 794 q 432 658 385 708 q 542 607 479 608 l 675 607 l 675 1061 l 547 1081 l 547 1111 l 956 1111 l 956 1081 l 828 1061 l 828 607 l 963 607 q 1070 658 1024 608 q 1142 794 1117 708 l 1185 969 q 1243 1087 1206 1049 q 1339 1125 1281 1125 q 1422 1099 1390 1125 q 1453 1029 1453 1072 q 1430 964 1453 989 q 1369 939 1407 939 l 1342 939 q 1272 999 1319 999 q 1215 951 1226 999 l 1172 776 q 1122 666 1154 711 q 1049 603 1090 621 q 1226 536 1165 589 q 1301 392 1288 483 l 1333 182 q 1357 83 1344 111 q 1393 50 1369 56 q 1406 49 1397 49 q 1493 96 1447 49 l 1517 71 q 1340 -14 1442 -14 q 1224 24 1263 -14 q 1171 151 1185 61 l 1138 386 q 1078 529 1124 485 q 931 574 1032 574 l 828 574 l 828 50 l 956 29 l 956 0 l 547 0 l 547 29 l 675 50 l 675 574 l 572 574 q 425 529 471 574 q 365 386 379 485 l 332 151 q 279 24 318 61 q 163 -14 240 -14 m 622 1192 q 563 1215 588 1192 q 539 1274 539 1239 q 563 1332 539 1308 q 622 1356 588 1356 q 681 1332 657 1356 q 704 1274 704 1308 q 681 1215 704 1239 q 622 1192 657 1192 m 881 1192 q 822 1215 846 1192 q 797 1274 797 1239 q 822 1332 797 1308 q 881 1356 846 1356 q 938 1332 915 1356 q 961 1274 961 1308 q 938 1215 961 1239 q 881 1192 915 1192 z "},"Ӟ":{"ha":939,"x_min":88,"x_max":864,"o":"m 467 -28 q 340 -9 397 -28 q 246 32 283 10 q 208 57 208 54 l 117 -14 l 88 -14 l 88 343 l 117 343 l 197 111 q 232 79 197 107 q 326 28 267 51 q 467 4 386 4 q 642 78 585 4 q 699 285 699 151 l 699 300 q 635 499 699 431 q 432 568 571 568 l 332 568 l 332 599 l 432 599 q 598 660 543 599 q 653 840 653 722 l 653 849 q 601 1043 653 979 q 453 1107 549 1107 q 335 1090 385 1107 q 258 1051 286 1072 q 229 1028 229 1031 l 143 794 l 114 794 l 114 1139 l 143 1139 l 236 1075 q 267 1094 236 1076 q 347 1125 299 1111 q 454 1139 396 1139 q 733 1063 646 1139 q 819 851 819 986 q 753 676 819 749 q 557 588 688 604 q 792 485 719 563 q 864 286 864 407 q 764 52 864 132 q 467 -28 664 -28 m 329 1192 q 270 1215 294 1192 q 246 1274 246 1239 q 270 1332 246 1308 q 329 1356 294 1356 q 388 1332 364 1356 q 411 1274 411 1308 q 388 1215 411 1239 q 329 1192 364 1192 m 588 1192 q 528 1215 553 1192 q 504 1274 504 1239 q 528 1332 504 1308 q 588 1356 553 1356 q 645 1332 622 1356 q 668 1274 668 1308 q 645 1215 668 1239 q 588 1192 622 1192 z "},"Ӣ":{"ha":1201,"x_min":49,"x_max":1153,"o":"m 49 0 l 49 29 l 176 50 l 176 1061 l 49 1081 l 49 1111 l 457 1111 l 457 1081 l 329 1061 l 329 161 l 871 1022 l 871 1061 l 742 1081 l 742 1111 l 1153 1111 l 1153 1081 l 1024 1061 l 1024 50 l 1153 29 l 1153 0 l 742 0 l 742 29 l 871 50 l 871 957 l 329 96 l 329 50 l 457 29 l 457 0 l 49 0 m 283 1317 l 283 1364 l 921 1364 l 921 1317 l 283 1317 z "},"Ӥ":{"ha":1201,"x_min":49,"x_max":1153,"o":"m 49 0 l 49 29 l 176 50 l 176 1061 l 49 1081 l 49 1111 l 457 1111 l 457 1081 l 329 1061 l 329 161 l 871 1022 l 871 1061 l 742 1081 l 742 1111 l 1153 1111 l 1153 1081 l 1024 1061 l 1024 50 l 1153 29 l 1153 0 l 742 0 l 742 29 l 871 50 l 871 957 l 329 96 l 329 50 l 457 29 l 457 0 l 49 0 m 476 1192 q 417 1215 442 1192 q 393 1274 393 1239 q 417 1332 393 1308 q 476 1356 442 1356 q 535 1332 511 1356 q 558 1274 558 1308 q 535 1215 558 1239 q 476 1192 511 1192 m 735 1192 q 676 1215 700 1192 q 651 1274 651 1239 q 676 1332 651 1308 q 735 1356 700 1356 q 792 1332 769 1356 q 815 1274 815 1308 q 792 1215 815 1239 q 735 1192 769 1192 z "},"Ӧ":{"ha":1197,"x_min":75,"x_max":1122,"o":"m 599 -28 q 328 46 447 -28 q 142 252 208 119 q 75 556 75 385 q 142 859 75 726 q 328 1065 208 992 q 599 1139 447 1139 q 869 1065 750 1139 q 1056 859 989 992 q 1122 556 1122 726 q 1056 252 1122 385 q 869 46 989 119 q 599 -28 750 -28 m 599 4 q 778 57 699 4 q 904 210 858 110 q 950 449 950 311 l 950 663 q 904 901 950 800 q 778 1054 858 1001 q 599 1107 699 1107 q 418 1054 497 1107 q 293 901 339 1001 q 247 663 247 800 l 247 449 q 293 210 247 311 q 418 57 339 110 q 599 4 497 4 m 474 1192 q 415 1215 439 1192 q 390 1274 390 1239 q 415 1332 390 1308 q 474 1356 439 1356 q 532 1332 508 1356 q 556 1274 556 1308 q 532 1215 556 1239 q 474 1192 508 1192 m 732 1192 q 673 1215 697 1192 q 649 1274 649 1239 q 673 1332 649 1308 q 732 1356 697 1356 q 790 1332 767 1356 q 813 1274 813 1308 q 790 1215 813 1239 q 732 1192 767 1192 z "},"Ө":{"ha":1197,"x_min":75,"x_max":1122,"o":"m 599 1139 q 869 1065 750 1139 q 1056 859 989 992 q 1122 556 1122 726 q 1056 252 1122 385 q 869 46 989 119 q 599 -28 750 -28 q 328 46 447 -28 q 142 252 208 119 q 75 556 75 385 q 142 859 75 726 q 328 1065 208 992 q 599 1139 447 1139 m 599 1107 q 418 1054 497 1107 q 293 901 339 1001 q 247 663 247 800 l 247 606 l 950 606 l 950 663 q 904 901 950 800 q 778 1054 858 1001 q 599 1107 699 1107 m 599 4 q 778 57 699 4 q 904 210 858 110 q 950 449 950 311 l 950 571 l 247 571 l 247 449 q 293 210 247 311 q 418 57 339 110 q 599 4 497 4 z "},"Ӯ":{"ha":1008,"x_min":-29,"x_max":1019,"o":"m 299 -14 q 195 22 232 -14 q 158 114 158 57 q 188 191 158 161 q 258 221 217 221 q 313 208 289 221 q 349 171 336 194 q 340 161 347 169 q 328 139 333 153 q 322 107 322 125 q 336 65 322 81 q 375 49 350 49 q 442 82 411 49 q 514 208 472 115 l 532 250 l 81 1061 l -29 1081 l -29 1111 l 389 1111 l 389 1081 l 260 1061 l 613 428 l 875 1014 l 708 1081 l 708 1111 l 1019 1111 l 1019 1081 l 913 1013 l 546 196 q 474 68 508 113 q 399 5 440 24 q 299 -14 358 -14 m 233 1317 l 233 1364 l 871 1364 l 871 1317 l 233 1317 z "},"Ӱ":{"ha":1008,"x_min":-29,"x_max":1019,"o":"m 299 -14 q 195 22 232 -14 q 158 114 158 57 q 188 191 158 161 q 258 221 217 221 q 313 208 289 221 q 349 171 336 194 q 340 161 347 169 q 328 139 333 153 q 322 107 322 125 q 336 65 322 81 q 375 49 350 49 q 442 82 411 49 q 514 208 472 115 l 532 250 l 81 1061 l -29 1081 l -29 1111 l 389 1111 l 389 1081 l 260 1061 l 613 428 l 875 1014 l 708 1081 l 708 1111 l 1019 1111 l 1019 1081 l 913 1013 l 546 196 q 474 68 508 113 q 399 5 440 24 q 299 -14 358 -14 m 426 1192 q 367 1215 392 1192 q 343 1274 343 1239 q 367 1332 343 1308 q 426 1356 392 1356 q 485 1332 461 1356 q 508 1274 508 1308 q 485 1215 508 1239 q 426 1192 461 1192 m 685 1192 q 626 1215 650 1192 q 601 1274 601 1239 q 626 1332 601 1308 q 685 1356 650 1356 q 742 1332 719 1356 q 765 1274 765 1308 q 742 1215 765 1239 q 685 1192 719 1192 z "},"Ӳ":{"ha":1010,"x_min":-29,"x_max":1019,"o":"m 301 1190 l 499 1379 q 540 1396 518 1396 q 578 1379 563 1396 q 594 1339 594 1363 q 592 1321 594 1326 q 578 1300 588 1310 q 560 1288 569 1290 l 314 1169 l 301 1190 m 543 1203 l 757 1374 q 794 1388 775 1388 q 833 1371 818 1388 q 849 1331 849 1354 q 844 1308 849 1319 q 829 1288 839 1297 q 810 1278 819 1279 l 554 1182 l 543 1203 m 299 -14 q 195 22 232 -14 q 158 114 158 57 q 188 191 158 161 q 258 221 217 221 q 313 208 289 221 q 349 171 336 194 q 340 161 347 169 q 328 139 333 153 q 322 107 322 125 q 336 65 322 81 q 375 49 350 49 q 442 82 411 49 q 514 208 472 115 l 532 250 l 81 1061 l -29 1081 l -29 1111 l 389 1111 l 389 1081 l 260 1061 l 613 428 l 875 1014 l 708 1081 l 708 1111 l 1019 1111 l 1019 1081 l 913 1013 l 546 196 q 474 68 508 113 q 399 5 440 24 q 299 -14 358 -14 z "},"Ӵ":{"ha":1126,"x_min":22,"x_max":1071,"o":"m 618 29 l 789 50 l 789 518 q 750 501 789 517 q 651 474 711 486 q 518 461 590 461 q 297 490 376 461 q 183 579 217 519 q 150 739 150 639 l 150 1061 l 22 1081 l 22 1111 l 431 1111 l 431 1081 l 303 1061 l 303 742 q 353 554 303 615 q 518 493 404 493 q 654 507 594 493 q 751 537 714 521 q 789 554 789 553 l 789 1061 l 660 1081 l 660 1111 l 1071 1111 l 1071 1081 l 942 1061 l 942 50 l 1071 29 l 1071 0 l 618 0 l 618 29 m 425 1192 q 366 1215 390 1192 q 342 1274 342 1239 q 366 1332 342 1308 q 425 1356 390 1356 q 483 1332 460 1356 q 507 1274 507 1308 q 483 1215 507 1239 q 425 1192 460 1192 m 683 1192 q 624 1215 649 1192 q 600 1274 600 1239 q 624 1332 600 1308 q 683 1356 649 1356 q 741 1332 718 1356 q 764 1274 764 1308 q 741 1215 764 1239 q 683 1192 718 1192 z "},"Ӷ":{"ha":908,"x_min":56,"x_max":879,"o":"m 435 -306 l 290 0 l 56 0 l 56 29 l 183 50 l 183 1056 l 56 1076 l 56 1111 l 879 1111 l 879 801 l 838 801 l 733 1076 l 336 1076 l 336 35 l 456 35 l 476 -306 l 435 -306 z "},"Ӹ":{"ha":1436,"x_min":56,"x_max":1381,"o":"m 56 31 l 183 50 l 183 1061 l 56 1082 l 56 1111 l 464 1111 l 464 1082 l 336 1061 l 336 625 l 515 625 q 820 548 719 625 q 921 313 921 471 q 820 77 921 154 q 515 0 719 0 l 56 0 l 56 31 m 972 0 l 972 29 l 1100 50 l 1100 1061 l 972 1081 l 972 1111 l 1381 1111 l 1381 1081 l 1253 1061 l 1253 50 l 1381 29 l 1381 0 l 972 0 m 496 35 q 689 96 625 35 q 753 285 753 157 l 753 340 q 689 530 753 468 q 496 592 625 592 l 336 592 l 336 35 l 496 35 m 586 1192 q 527 1215 551 1192 q 503 1274 503 1239 q 527 1332 503 1308 q 586 1356 551 1356 q 644 1332 621 1356 q 668 1274 668 1308 q 644 1215 668 1239 q 586 1192 621 1192 m 844 1192 q 785 1215 810 1192 q 761 1274 761 1239 q 785 1332 761 1308 q 844 1356 810 1356 q 902 1332 879 1356 q 925 1274 925 1308 q 902 1215 925 1239 q 844 1192 879 1192 z "},"Ԛ":{"ha":1197,"x_min":75,"x_max":1122,"o":"m 810 -321 q 515 -81 515 -321 l 515 -21 q 285 75 385 -3 q 130 276 185 153 q 75 556 75 400 q 142 859 75 726 q 328 1065 208 992 q 599 1139 447 1139 q 869 1065 750 1139 q 1056 859 989 992 q 1122 556 1122 726 q 1067 278 1122 401 q 914 76 1013 154 q 686 -21 815 -1 l 686 -114 q 856 -289 686 -289 l 856 -321 l 810 -321 m 599 4 q 778 57 699 4 q 902 210 857 110 q 947 449 947 310 l 947 663 q 902 901 947 801 q 778 1054 857 1001 q 599 1107 699 1107 q 419 1054 497 1107 q 295 901 340 1001 q 250 663 250 801 l 250 449 q 295 210 250 310 q 419 57 340 110 q 599 4 497 4 z "},"Ԝ":{"ha":1501,"x_min":-29,"x_max":1535,"o":"m 456 -28 l 64 1061 l -29 1081 l -29 1111 l 357 1111 l 357 1081 l 231 1061 l 529 239 l 732 769 l 628 1061 l 500 1081 l 500 1111 l 913 1111 l 913 1081 l 793 1064 l 1094 240 l 1393 1018 l 1236 1081 l 1236 1111 l 1535 1111 l 1535 1081 l 1429 1019 l 1032 -28 l 1021 -28 l 750 721 l 467 -28 l 456 -28 z "},"а":{"ha":788,"x_min":64,"x_max":792,"o":"m 267 -14 q 121 33 178 -14 q 64 171 64 79 q 174 356 64 301 q 428 411 283 411 l 521 411 l 521 518 q 505 630 521 590 q 456 685 489 669 q 365 701 422 701 q 268 676 300 701 q 236 607 236 650 q 275 554 236 567 q 249 493 275 519 q 186 467 222 467 q 124 488 147 467 q 100 554 100 510 q 181 683 100 635 q 382 732 261 732 q 660 490 660 732 l 660 93 q 673 47 660 63 q 711 31 686 31 q 749 47 735 31 q 763 90 763 63 l 792 90 q 760 14 792 42 q 674 -14 729 -14 q 566 23 610 -14 q 521 138 522 60 q 419 26 488 67 q 267 -14 350 -14 m 343 47 q 420 69 381 47 q 488 134 460 92 q 521 236 515 176 l 521 381 l 428 381 q 258 330 314 381 q 201 188 201 279 q 238 79 201 111 q 343 47 274 47 z "},"б":{"ha":847,"x_min":69,"x_max":788,"o":"m 442 -14 q 173 103 276 -14 q 69 463 69 219 q 174 872 69 731 q 465 1014 278 1014 l 576 1014 q 679 1038 646 1014 q 713 1111 713 1063 l 746 1111 q 727 972 746 1024 q 667 898 708 921 q 556 875 626 875 l 442 875 q 111 463 111 875 l 119 463 q 238 650 150 581 q 442 719 325 719 q 614 674 535 719 q 740 544 693 628 q 788 353 788 461 q 740 161 788 244 q 614 32 693 78 q 442 -14 535 -14 m 442 19 q 587 90 539 19 q 635 283 635 161 l 635 422 q 587 615 635 544 q 442 686 539 686 q 297 615 344 686 q 249 422 249 544 l 249 283 q 297 90 249 161 q 442 19 344 19 z "},"в":{"ha":782,"x_min":38,"x_max":731,"o":"m 38 28 l 135 42 l 135 678 l 38 692 l 38 719 l 418 719 q 622 680 561 719 q 683 551 683 640 q 519 386 683 422 l 519 382 q 731 194 731 353 q 660 49 731 97 q 463 0 589 0 l 38 0 l 38 28 m 385 394 q 495 432 457 394 q 533 544 533 469 l 533 550 q 494 651 533 618 q 376 685 456 685 l 274 685 l 274 394 l 385 394 m 421 35 q 539 75 497 35 q 581 193 581 115 l 581 203 q 540 322 581 282 q 421 361 499 361 l 274 361 l 274 35 l 421 35 z "},"г":{"ha":694,"x_min":38,"x_max":665,"o":"m 38 0 l 38 28 l 135 42 l 135 678 l 38 692 l 38 719 l 644 719 l 665 456 l 626 456 l 504 685 l 274 685 l 274 42 l 399 28 l 399 0 l 38 0 z "},"ѓ":{"ha":694,"x_min":38,"x_max":665,"o":"m 38 0 l 38 28 l 135 42 l 135 678 l 38 692 l 38 719 l 644 719 l 665 456 l 626 456 l 504 685 l 274 685 l 274 42 l 399 28 l 399 0 l 38 0 m 319 810 l 422 1029 q 446 1057 429 1046 q 482 1068 463 1068 q 528 1049 508 1068 q 547 1003 547 1029 q 524 954 547 971 l 342 793 l 319 810 z "},"ґ":{"ha":675,"x_min":38,"x_max":665,"o":"m 38 0 l 38 28 l 135 42 l 135 678 l 38 692 l 38 719 l 504 719 l 626 949 l 665 949 l 644 685 l 274 685 l 274 42 l 399 28 l 399 0 l 38 0 z "},"д":{"ha":750,"x_min":-28,"x_max":740,"o":"m 740 -229 l 701 -229 l 579 0 l 132 0 l 11 -229 l -28 -229 l -7 35 l 38 35 q 97 61 68 35 q 149 138 126 88 q 180 251 168 183 q 201 465 192 319 l 213 632 l 86 692 l 86 719 l 718 719 l 718 692 l 621 678 l 621 35 l 719 35 l 740 -229 m 482 685 l 251 685 l 236 465 q 214 248 226 318 q 183 131 201 178 q 156 78 171 100 q 131 47 142 57 q 118 35 121 38 l 482 35 l 482 685 z "},"е":{"ha":779,"x_min":60,"x_max":724,"o":"m 426 -14 q 240 33 324 -14 q 108 164 157 79 q 60 360 60 249 q 108 555 60 471 q 237 685 156 639 q 418 732 318 732 q 575 693 506 732 q 683 585 644 654 q 724 428 722 517 l 213 428 l 213 290 q 267 92 213 168 q 426 17 322 17 q 596 71 522 17 q 686 211 669 125 l 718 211 q 619 47 699 108 q 426 -14 540 -14 m 571 463 q 533 642 571 583 q 417 701 496 701 q 272 636 324 701 q 214 463 221 571 l 571 463 z "},"ѐ":{"ha":779,"x_min":60,"x_max":724,"o":"m 426 -14 q 240 33 324 -14 q 108 164 157 79 q 60 360 60 249 q 108 555 60 471 q 237 685 156 639 q 418 732 318 732 q 575 693 506 732 q 683 585 644 654 q 724 428 722 517 l 213 428 l 213 290 q 267 92 213 168 q 426 17 322 17 q 596 71 522 17 q 686 211 669 125 l 718 211 q 619 47 699 108 q 426 -14 540 -14 m 571 463 q 533 642 571 583 q 417 701 496 701 q 272 636 324 701 q 214 463 221 571 l 571 463 m 240 954 q 217 1003 217 974 q 236 1049 217 1029 q 282 1068 256 1068 q 318 1057 301 1068 q 343 1029 335 1046 l 444 810 l 422 793 l 240 954 z "},"ё":{"ha":779,"x_min":60,"x_max":724,"o":"m 426 -14 q 240 33 324 -14 q 108 164 157 79 q 60 360 60 249 q 108 555 60 471 q 237 685 156 639 q 418 732 318 732 q 575 693 506 732 q 683 585 644 654 q 724 428 722 517 l 213 428 l 213 290 q 267 92 213 168 q 426 17 322 17 q 596 71 522 17 q 686 211 669 125 l 718 211 q 619 47 699 108 q 426 -14 540 -14 m 571 463 q 533 642 571 583 q 417 701 496 701 q 272 636 324 701 q 214 463 221 571 l 571 463 m 292 854 q 233 878 257 854 q 208 936 208 901 q 233 994 208 971 q 292 1018 257 1018 q 350 994 326 1018 q 374 936 374 971 q 350 878 374 901 q 292 854 326 854 m 549 854 q 490 878 514 854 q 467 936 467 901 q 490 994 467 971 q 549 1018 514 1018 q 607 994 583 1018 q 631 936 631 971 q 607 878 631 901 q 549 854 583 854 z "},"ж":{"ha":1181,"x_min":-7,"x_max":1188,"o":"m 126 -17 q 56 -1 92 -17 q -7 46 19 15 l 14 67 q 63 42 39 42 q 94 58 83 42 q 114 118 106 74 l 138 240 q 192 350 150 314 q 326 394 235 386 q 281 486 296 422 l 254 586 q 210 625 243 625 q 182 613 193 625 q 171 582 171 600 q 175 558 171 571 q 135 551 156 551 q 73 577 96 551 q 50 639 50 603 q 78 705 50 678 q 156 732 106 732 q 244 698 215 732 q 289 596 272 664 l 314 496 q 347 422 326 444 q 403 397 368 400 l 521 397 l 521 676 l 421 690 l 421 719 l 760 719 l 760 690 l 660 676 l 660 397 l 775 397 q 831 421 810 399 q 867 496 853 443 l 892 596 q 937 698 908 664 q 1025 732 965 732 q 1103 705 1075 732 q 1131 639 1131 678 q 1108 577 1131 603 q 1046 551 1085 551 q 1006 558 1025 551 q 1010 582 1010 571 q 999 613 1010 600 q 971 625 988 625 q 926 586 938 625 l 900 486 q 853 394 885 424 q 988 350 944 386 q 1043 240 1031 314 l 1067 118 q 1086 58 1075 74 q 1118 42 1097 42 q 1167 67 1142 42 l 1188 46 q 1125 -1 1161 15 q 1054 -17 1089 -17 q 964 9 993 -17 q 924 96 935 35 l 896 246 q 853 340 883 314 q 768 365 822 365 l 660 365 l 660 43 l 760 28 l 760 0 l 421 0 l 421 28 l 521 43 l 521 365 l 406 365 q 325 338 354 364 q 285 246 296 311 l 257 96 q 217 9 246 35 q 126 -17 188 -17 z "},"з":{"ha":739,"x_min":51,"x_max":681,"o":"m 346 -14 q 122 30 192 -14 q 51 140 51 74 q 76 208 51 182 q 140 233 100 233 q 188 219 167 233 q 217 181 208 206 q 193 122 193 153 q 235 44 193 75 q 346 13 278 13 q 480 56 429 13 q 531 185 531 100 l 531 203 q 474 320 531 279 q 335 361 418 361 l 257 361 l 257 394 l 335 394 q 456 433 414 394 q 497 544 497 471 l 497 550 q 350 706 497 706 q 204 667 271 706 l 121 468 l 92 468 l 107 732 l 190 692 q 353 732 268 732 q 578 687 508 732 q 647 551 647 642 q 599 443 647 486 q 456 385 551 400 l 456 383 q 624 324 568 372 q 681 194 681 275 q 597 41 681 96 q 346 -14 514 -14 z "},"и":{"ha":899,"x_min":38,"x_max":861,"o":"m 38 0 l 38 28 l 135 42 l 135 678 l 38 692 l 38 719 l 357 719 l 357 692 l 274 678 l 274 138 l 625 650 l 625 678 l 542 692 l 542 719 l 861 719 l 861 692 l 764 678 l 764 42 l 861 28 l 861 0 l 542 0 l 542 28 l 625 42 l 625 592 l 274 78 l 274 42 l 357 28 l 357 0 l 38 0 z "},"й":{"ha":899,"x_min":38,"x_max":861,"o":"m 38 0 l 38 28 l 135 42 l 135 678 l 38 692 l 38 719 l 357 719 l 357 692 l 274 678 l 274 138 l 625 650 l 625 678 l 542 692 l 542 719 l 861 719 l 861 692 l 764 678 l 764 42 l 861 28 l 861 0 l 542 0 l 542 28 l 625 42 l 625 592 l 274 78 l 274 42 l 357 28 l 357 0 l 38 0 m 454 808 q 278 845 349 808 q 208 957 208 882 q 233 1017 208 992 q 292 1042 257 1042 q 353 1017 326 1042 q 379 957 379 992 q 347 931 358 946 q 335 901 335 917 q 366 856 335 875 q 454 838 397 838 q 540 857 508 838 q 572 903 572 876 q 529 957 572 935 q 555 1017 529 992 q 617 1042 581 1042 q 675 1017 651 1042 q 699 957 699 992 q 628 845 699 882 q 454 808 558 808 z "},"ѝ":{"ha":899,"x_min":38,"x_max":861,"o":"m 38 0 l 38 28 l 135 42 l 135 678 l 38 692 l 38 719 l 357 719 l 357 692 l 274 678 l 274 138 l 625 650 l 625 678 l 542 692 l 542 719 l 861 719 l 861 692 l 764 678 l 764 42 l 861 28 l 861 0 l 542 0 l 542 28 l 625 42 l 625 592 l 274 78 l 274 42 l 357 28 l 357 0 l 38 0 m 276 954 q 253 1003 253 974 q 272 1049 253 1029 q 318 1068 292 1068 q 354 1057 338 1068 q 379 1029 371 1046 l 481 810 l 458 793 l 276 954 z "},"к":{"ha":811,"x_min":38,"x_max":818,"o":"m 685 -14 q 594 12 624 -14 q 554 99 565 38 l 526 246 q 485 338 514 311 q 406 365 456 364 l 276 365 l 276 43 l 376 28 l 376 0 l 38 0 l 38 28 l 138 43 l 138 676 l 38 690 l 38 719 l 376 719 l 376 690 l 276 676 l 276 397 l 407 397 q 463 422 442 400 q 497 496 483 443 l 522 596 q 567 698 539 664 q 656 732 596 732 q 733 705 706 732 q 761 639 761 678 q 738 577 761 603 q 676 551 715 551 q 636 558 656 551 q 640 582 640 571 q 629 613 640 600 q 601 625 618 625 q 557 586 568 625 l 531 486 q 483 394 513 421 q 617 350 575 386 q 674 240 660 314 l 697 121 q 717 60 707 75 q 749 44 728 44 q 797 69 772 44 l 818 49 q 756 2 792 18 q 685 -14 719 -14 z "},"ќ":{"ha":811,"x_min":38,"x_max":818,"o":"m 685 -14 q 594 12 624 -14 q 554 99 565 38 l 526 246 q 485 338 514 311 q 406 365 456 364 l 276 365 l 276 43 l 376 28 l 376 0 l 38 0 l 38 28 l 138 43 l 138 676 l 38 690 l 38 719 l 376 719 l 376 690 l 276 676 l 276 397 l 407 397 q 463 422 442 400 q 497 496 483 443 l 522 596 q 567 698 539 664 q 656 732 596 732 q 733 705 706 732 q 761 639 761 678 q 738 577 761 603 q 676 551 715 551 q 636 558 656 551 q 640 582 640 571 q 629 613 640 600 q 601 625 618 625 q 557 586 568 625 l 531 486 q 483 394 513 421 q 617 350 575 386 q 674 240 660 314 l 697 121 q 717 60 707 75 q 749 44 728 44 q 797 69 772 44 l 818 49 q 756 2 792 18 q 685 -14 719 -14 m 399 810 l 501 1029 q 525 1057 508 1046 q 561 1068 542 1068 q 607 1049 588 1068 q 626 1003 626 1029 q 603 954 626 971 l 421 793 l 399 810 z "},"л":{"ha":842,"x_min":21,"x_max":804,"o":"m 125 -14 q 49 10 76 -14 q 21 79 21 33 q 44 140 21 118 q 101 163 68 163 q 139 153 124 163 q 162 135 154 144 q 171 122 169 125 q 153 86 153 106 q 181 64 153 64 q 296 467 275 64 l 304 632 l 178 692 l 178 719 l 801 719 l 801 692 l 704 678 l 704 43 l 804 29 l 804 0 l 479 0 l 479 29 l 565 43 l 565 685 l 340 685 l 329 465 q 298 193 321 297 q 233 38 275 89 q 125 -14 192 -14 z "},"м":{"ha":1046,"x_min":38,"x_max":1008,"o":"m 38 0 l 38 28 l 143 69 l 143 679 l 46 692 l 46 719 l 315 719 l 535 200 l 753 719 l 1008 719 l 1008 692 l 911 678 l 911 42 l 1008 28 l 1008 0 l 689 0 l 689 28 l 772 42 l 772 674 l 485 0 l 468 0 l 178 674 l 178 69 l 283 28 l 283 0 l 38 0 z "},"н":{"ha":890,"x_min":38,"x_max":853,"o":"m 38 0 l 38 28 l 135 42 l 135 678 l 38 692 l 38 719 l 357 719 l 357 692 l 274 678 l 274 382 l 617 382 l 617 678 l 533 692 l 533 719 l 853 719 l 853 692 l 756 678 l 756 42 l 853 28 l 853 0 l 533 0 l 533 28 l 617 42 l 617 347 l 274 347 l 274 42 l 357 28 l 357 0 l 38 0 z "}}}
